<svg width="66" height="24" viewBox="0 0 66 24" fill="none" xmlns="http://www.w3.org/2000/svg">
    <rect x="0.5" y="0.5" width="65" height="23" rx="11.5" fill="white"/>
    <rect x="0.5" y="0.5" width="65" height="23" rx="11.5" stroke="#E1E3EB"/>
    <path fill-rule="evenodd" clip-rule="evenodd" d="M14 15C14 15 16 13 16 11.025C16 8.80205 14.2091 7 12 7C9.79086 7 8 8.80205 8 11.025C8 13 10 15 10 15L12 17L14 15ZM12 12.5C12.8284 12.5 13.5 11.8284 13.5 11C13.5 10.1716 12.8284 9.5 12 9.5C11.1716 9.5 10.5 10.1716 10.5 11C10.5 11.8284 11.1716 12.5 12 12.5Z" fill="#F76A43"/>
    <path d="M23.5342 7.79297C24.9629 7.78223 25.9834 8.56641 25.9834 9.7373C25.9834 10.8975 24.9629 11.7031 23.5342 11.6924C22.1055 11.7031 21.085 10.8975 21.085 9.7373C21.085 8.56641 22.1055 7.78223 23.5342 7.79297ZM23.5342 8.48047C22.5781 8.46973 21.9014 8.99609 21.9121 9.7373C21.9014 10.4893 22.5781 11.0049 23.5342 10.9941C24.501 11.0049 25.1777 10.4893 25.1777 9.7373C25.1777 8.99609 24.501 8.46973 23.5342 8.48047ZM28.2607 7.33105V16.8809H27.4336V7.33105H28.2607ZM20.3652 12.5088C22.1592 12.5088 24.6084 12.4766 26.7354 12.165L26.7891 12.7988C25.876 12.9653 24.9253 13.0674 24.0068 13.1211V16.5801H23.1689V13.1748C22.1968 13.2178 21.2783 13.2231 20.4834 13.2285L20.3652 12.5088ZM37.5476 7.32031V16.8701H36.6989V7.32031H37.5476ZM33.197 10.4355C33.197 12.0361 34.3142 13.583 35.7536 14.1953L35.281 14.8506C34.1799 14.3618 33.2453 13.3252 32.7995 12.0576C32.3698 13.4004 31.4406 14.5015 30.3396 15.0225L29.8669 14.3672C31.2849 13.7227 32.3698 12.1113 32.3698 10.4355V9.67285H30.1247V8.98535H32.3591V7.50293H33.197V8.98535H35.4206V9.67285H33.197V10.4355ZM47.7045 14.9473V15.6455H38.9604V14.9473H42.892V12.8848H39.9916V7.99707H40.8403V9.72656H45.8032V7.99707H46.6303V12.8848H43.7192V14.9473H47.7045ZM40.8403 12.1973H45.8032V10.4141H40.8403V12.1973ZM56.1427 7.32031V16.8701H55.2941V7.32031H56.1427ZM53.3175 8.3623C53.3068 11.1123 52.0285 13.54 48.8273 15.0762L48.3654 14.3887C50.9489 13.1641 52.2648 11.3325 52.4582 9.0498H48.8058V8.3623H53.3175Z" fill="#434447"/>
</svg>
