<svg width="44" height="51" viewBox="0 0 44 51" fill="none" xmlns="http://www.w3.org/2000/svg">
    <g clip-path="url(#clip0_2096_71149)">
        <g clip-path="url(#clip1_2096_71149)">
            <path d="M0 14.6667C0 6.56649 6.56649 0 14.6667 0H29.3333C37.4335 0 44 6.56649 44 14.6667V29.3333C44 37.4335 37.4335 44 29.3333 44H14.6667C6.56649 44 0 37.4335 0 29.3333V14.6667Z" fill="#EA0029"/>
            <path fill-rule="evenodd" clip-rule="evenodd" d="M11 11H33V33H11V11ZM14.3715 24.303C13.5096 23.4024 13.4445 22.3134 13.4445 21.8304V21.8222C13.4445 21.3391 13.5096 20.2501 14.3715 19.3495C15.266 18.4325 16.315 18.3342 16.9248 18.3342C17.5347 18.3342 18.0388 18.4325 18.4779 18.6208C19.1835 18.9357 19.5412 19.3779 19.7226 19.6021L19.7302 19.6115L18.543 20.5285L18.5109 20.5015C18.122 20.1733 17.7085 19.8244 16.933 19.8244C16.0796 19.8244 15.2821 20.6108 15.2662 21.8182C15.2821 23.0336 16.0796 23.82 16.933 23.82C17.7085 23.82 18.122 23.4711 18.5109 23.1429L18.543 23.1159L19.7302 24.0328L19.7227 24.0421C19.5414 24.2663 19.1837 24.7087 18.4779 25.0236C18.0388 25.2119 17.5184 25.3183 16.9248 25.3183C16.3312 25.3183 15.266 25.2283 14.3715 24.303ZM28.4601 18.6833H30.2061V25.3183H28.4601V18.6833ZM24.9896 23.0841C24.6848 23.3298 24.0583 23.5427 23.3893 23.6983C21.9796 24.0129 22.1067 23.485 22.2727 22.7958L22.2802 22.7648C22.4495 22.0442 22.3987 21.6266 22.2548 21.1271C22.0601 20.431 22.0177 19.7022 22.712 19.7596C24.0413 19.8742 26.4544 21.8804 24.9811 23.0841H24.9896ZM27.3857 22.2325C27.0047 19.3419 19.5285 16.2302 20.5191 20.2509C20.5615 20.4228 20.6207 20.5948 20.7054 20.7831C20.8663 21.1516 20.9933 21.4628 20.9933 22.0933C20.9933 22.3308 20.9509 22.6256 20.8832 22.8958C20.426 24.5909 20.5699 25.6062 22.9576 25.246C25.4214 24.8775 27.5805 23.5837 27.4026 22.2325H27.3857Z" fill="white"/>
        </g>
    </g>
    <path d="M21.5385 51L16 44H28L21.5385 51Z" fill="#EA0029"/>
    <defs>
        <clipPath id="clip0_2096_71149">
            <rect width="44" height="44" fill="white"/>
        </clipPath>
        <clipPath id="clip1_2096_71149">
            <rect width="44" height="44" fill="white"/>
        </clipPath>
    </defs>
</svg>
