<svg width="44" height="51" viewBox="0 0 44 51" fill="none" xmlns="http://www.w3.org/2000/svg">
    <path d="M0 14.6667C0 6.56649 6.56649 0 14.6667 0H29.3333C37.4335 0 44 6.56649 44 14.6667V29.3333C44 37.4335 37.4335 44 29.3333 44H14.6667C6.56649 44 0 37.4335 0 29.3333V14.6667Z" fill="#3DBCD2"/>
    <path d="M18.2739 12.4732C18.7205 12.0298 19.6576 11.9254 20.4458 11.9167H27.198C27.198 11.9167 27.2944 11.9167 27.3644 11.9167H28.0301C28.4679 11.9428 28.8095 12.2993 28.8095 12.7254C28.8095 12.9254 28.7394 13.1167 28.608 13.2646L28.573 13.2993L25.5428 16.308C25.4815 16.3688 24.7984 17.0471 23.6599 17.0732H13.5972L17.9411 12.7515L18.2651 12.4645L18.2739 12.4732Z" fill="white"/>
    <path d="M26.5774 27.3934C26.5774 27.3934 26.5426 27.3934 26.5252 27.3934H16.5577C16.2968 27.3934 16.0794 27.1771 16.0794 26.9176V16.1979V16.1806V14.4935L14.8791 15.6788C14.8791 15.6788 14.8618 15.6874 14.8618 15.6961L12.5482 17.9974C12.5482 17.9974 12.5134 18.0321 12.496 18.058C12.322 18.2484 11.7045 18.9319 11.4175 19.5721C11.0783 20.3248 11 20.965 11 23.1454C11 23.1626 11 23.1713 11 23.1886V27.1857C11 27.2982 11.0087 28.3278 12.0698 29.4439C12.0872 29.4612 12.0959 29.4698 12.1133 29.4872L14.6878 31.9356C14.8182 32.0827 15.1661 32.4115 15.7489 32.5066L15.8533 32.524C15.8967 32.524 16.2099 32.5412 16.2359 32.5412H22.1677C23.1157 32.5412 23.7507 32.0654 23.9855 31.8664C23.9942 31.8578 24.0116 31.8491 24.0203 31.8318L27.0905 28.7777C27.0905 28.7777 27.0993 28.7691 27.1079 28.7604C27.2471 28.6133 27.3254 28.4143 27.3254 28.2153C27.3254 27.7914 26.9949 27.4453 26.5687 27.4107L26.5774 27.3934Z" fill="white"/>
    <path d="M34.3665 16.3135C34.3176 15.6892 34.0317 15.2295 33.5091 14.9607C34.0481 14.7092 34.3258 14.3016 34.3258 13.7466C34.3339 13.1741 34.1869 12.7232 33.8929 12.4024C33.5989 12.0901 33.1252 11.9254 32.48 11.9167H31.2469C31.0427 11.9167 30.8549 11.9947 30.7242 12.1422C30.667 12.2029 30.3077 12.5845 30.0219 12.888C29.9157 13.0008 29.8585 13.2175 30.0464 13.2956C30.079 13.313 30.1117 13.313 30.1444 13.3216H32.3821C32.6516 13.3216 32.872 13.5558 32.872 13.842C32.872 14.1281 32.6516 14.3623 32.3821 14.3623H31.1652V15.6978H32.3821C32.6516 15.6978 32.872 15.932 32.872 16.2182C32.872 16.5044 32.6516 16.7386 32.3821 16.7386H31.2469C31.059 16.7472 30.8875 16.8253 30.7651 16.964C30.7079 17.0247 30.324 17.441 30.0301 17.7532C29.9157 17.8573 29.8503 18.0828 30.0545 18.1608C30.0872 18.1695 30.1198 18.1782 30.1525 18.1782H32.8312C33.7214 18.1782 34.3339 17.5711 34.3747 16.6345V16.3135H34.3665Z" fill="white"/>
    <path d="M21.5385 51L16 44H28L21.5385 51Z" fill="#3DBCD2"/>
</svg>
