<svg width="44" height="51" viewBox="0 0 44 51" fill="none" xmlns="http://www.w3.org/2000/svg">
    <path d="M0 14.6667C0 6.56649 6.56649 0 14.6667 0H29.3333C37.4335 0 44 6.56649 44 14.6667V29.3333C44 37.4335 37.4335 44 29.3333 44H14.6667C6.56649 44 0 37.4335 0 29.3333V14.6667Z" fill="#8FC31F"/>
    <path fill-rule="evenodd" clip-rule="evenodd" d="M22 11H30.8016C32.0112 11 33 11.9807 33 13.1984V22C33 28.0721 28.0802 33 22 33H13.1984C11.9889 33 11 32.0193 11 30.8016V22C11 15.9279 15.9198 11 22 11ZM29.1585 24.2707H28.4601V18.6833H29.1585V24.2707ZM27.262 19.8853C27.3625 19.7886 27.4128 19.6677 27.4128 19.5307C27.4128 19.3937 27.3625 19.2728 27.262 19.1761C27.1614 19.0794 27.044 19.031 26.8932 19.031C26.7424 19.031 26.6166 19.0794 26.516 19.1761C26.4154 19.2728 26.3652 19.3937 26.3652 19.5307C26.3652 19.6677 26.4154 19.7886 26.516 19.8853C26.6166 19.982 26.7507 20.0303 26.8932 20.0303C27.0356 20.0303 27.1614 19.982 27.262 19.8853ZM26.4658 24.2692H27.2954V20.5783H26.4658V24.2692ZM17.7761 24.2692H18.6825L16.8536 19.3803H15.9473L14.1428 24.2692H14.9601L15.3485 23.1923H17.3877L17.7761 24.2692ZM16.6028 21.023L17.1773 22.5556L17.1692 22.5636H15.5589L16.1253 21.0466C16.2305 20.7714 16.3114 20.5121 16.36 20.2684H16.3762C16.4328 20.5278 16.5056 20.7794 16.6028 21.023ZM22.0451 23.7074C22.3616 23.3359 22.5238 22.8273 22.5238 22.1733H22.5161C22.5161 21.6161 22.4002 21.1801 22.1763 20.8814C21.9524 20.5827 21.628 20.4292 21.211 20.4292C20.6705 20.4292 20.2844 20.6876 20.0682 21.1963H20.0527C20.0836 21.0348 20.0991 20.8087 20.0991 20.5019H19.3809V26.0166H20.1454V24.208C20.2921 24.2403 20.4697 24.2564 20.6782 24.2564C21.2729 24.2564 21.7285 24.0707 22.0451 23.7074ZM21.0257 21.0994C21.4891 21.0994 21.7207 21.4789 21.7207 22.254C21.7207 23.1745 21.3809 23.6347 20.7014 23.6347C20.4852 23.6347 20.2998 23.6104 20.1454 23.562V22.4236C20.1454 22.0764 20.2226 21.7776 20.3771 21.5273C20.547 21.2448 20.7632 21.0994 21.0257 21.0994ZM25.6663 20.444L25.6226 21.2387C25.544 21.2224 25.4655 21.2142 25.3869 21.2142C24.7496 21.2142 24.4353 21.7221 24.4353 22.7463V24.2702H23.571V20.5177H24.3916C24.3916 20.7963 24.3655 21.0749 24.3131 21.3452H24.3305C24.5575 20.6816 25.0028 20.3785 25.6575 20.4358L25.6663 20.444Z" fill="white"/>
    <path d="M21.5385 51L16 44H28L21.5385 51Z" fill="#8FC31F"/>
</svg>
