<svg width="44" height="51" viewBox="0 0 44 51" fill="none" xmlns="http://www.w3.org/2000/svg">
    <g clip-path="url(#clip0_2096_71161)">
        <g clip-path="url(#clip1_2096_71161)">
            <path d="M0 14.6667C0 6.56649 6.56649 0 14.6667 0H29.3333C37.4335 0 44 6.56649 44 14.6667V29.3333C44 37.4335 37.4335 44 29.3333 44H14.6667C6.56649 44 0 37.4335 0 29.3333V14.6667Z" fill="#F08300"/>
            <path d="M10.4632 26.562H11.4336C11.4306 26.5365 11.4276 26.5079 11.4261 26.4763C11.4246 26.4447 11.4231 26.4116 11.4231 26.38C11.4201 26.3439 11.4156 26.3092 11.4125 26.2777C11.4095 26.2461 11.405 26.213 11.402 26.1814H12.2777C12.2671 26.2747 12.2611 26.3664 12.2596 26.4552C12.2581 26.5455 12.2566 26.6342 12.2566 26.7246V28.3765C12.2566 28.4728 12.2566 28.5796 12.2596 28.697C12.2611 28.8128 12.2671 28.9257 12.2777 29.0325H11.402C11.4125 28.9422 11.4201 28.8474 11.4231 28.7451C11.4261 28.6428 11.4291 28.5541 11.4291 28.4789H10.4857C10.3699 28.5932 10.233 28.6819 10.0765 28.7451C9.92004 28.8083 9.74702 28.8399 9.55745 28.8399C9.36788 28.8399 9.18281 28.8068 9.02183 28.7406C8.86235 28.6744 8.72393 28.5841 8.60808 28.4683C8.49524 28.3495 8.40797 28.2125 8.34479 28.0545C8.2816 27.8965 8.25 27.7251 8.25 27.5385C8.25 27.3519 8.2816 27.1834 8.34479 27.0225C8.40797 26.8614 8.49524 26.7215 8.60808 26.6027C8.72393 26.4838 8.86235 26.3905 9.02183 26.3198C9.18131 26.2506 9.36035 26.2145 9.55745 26.2145C9.7395 26.2145 9.908 26.2461 10.0615 26.3092C10.2149 26.3725 10.3488 26.4567 10.4647 26.5651L10.4632 26.562ZM8.78562 30.0586C8.78562 29.7682 8.93607 29.5245 9.23698 29.3304C9.53789 29.1348 9.97721 29.037 10.558 29.037C10.8363 29.037 11.0846 29.0626 11.3072 29.1153C11.5284 29.1679 11.715 29.2401 11.8654 29.3334C12.0204 29.4237 12.1377 29.5305 12.219 29.6569C12.3002 29.7817 12.3408 29.9172 12.3408 30.0601C12.3408 30.361 12.1829 30.6063 11.8684 30.7943C11.554 30.9824 11.1177 31.0772 10.558 31.0772C9.99828 31.0772 9.53789 30.9824 9.23698 30.7943C8.93607 30.6063 8.78562 30.361 8.78562 30.0601V30.0586ZM9.06546 27.5355C9.06546 27.6965 9.1106 27.8334 9.19937 27.9447C9.28964 28.056 9.40699 28.1117 9.55594 28.1117C9.70489 28.1117 9.81623 28.056 9.9065 27.9447C9.99677 27.8334 10.0404 27.698 10.0404 27.5355C10.0404 27.373 9.99527 27.2271 9.9065 27.1157C9.81623 27.0044 9.70038 26.9487 9.55594 26.9487C9.4115 26.9487 9.28964 27.0044 9.19937 27.1157C9.10909 27.2271 9.06546 27.367 9.06546 27.5355ZM11.39 30.0586C11.39 29.9502 11.3163 29.8675 11.1718 29.8088C11.0259 29.7502 10.8213 29.7201 10.558 29.7201C10.2947 29.7201 10.0901 29.7502 9.94411 29.8088C9.79817 29.8675 9.72595 29.9518 9.72595 30.0586C9.72595 30.1654 9.79817 30.2497 9.94411 30.3084C10.0901 30.367 10.2947 30.3971 10.558 30.3971C10.8213 30.3971 11.0259 30.367 11.1718 30.3084C11.3178 30.2497 11.39 30.1654 11.39 30.0586ZM10.8423 27.7551H11.4276V27.2812H10.8378C10.8453 27.3248 10.8498 27.367 10.8544 27.4076C10.8574 27.4482 10.8604 27.4904 10.8604 27.534C10.8604 27.5731 10.8589 27.6122 10.8544 27.6498C10.8513 27.6874 10.8468 27.7221 10.8438 27.7551H10.8423Z" fill="white"/>
            <path d="M16.1034 26.9802V27.7716H16.3622V26.9005C16.3622 26.7816 16.3607 26.6628 16.3561 26.5424C16.3532 26.422 16.3456 26.3017 16.3351 26.1798H17.1791C17.1686 26.3017 17.1626 26.4235 17.1611 26.5424C17.1596 26.6628 17.1581 26.7816 17.1581 26.9005V30.2842C17.1581 30.4061 17.1581 30.5264 17.1611 30.6468C17.1626 30.7671 17.1686 30.886 17.1791 31.0049H16.3351C16.3456 30.886 16.3532 30.7671 16.3561 30.6468C16.3592 30.5264 16.3622 30.4061 16.3622 30.2842V28.6593H16.1034V30.4316C16.1034 30.552 16.1094 30.6709 16.12 30.7897H15.297C15.3045 30.6709 15.309 30.552 15.3135 30.4316C15.3165 30.3113 15.3195 30.1909 15.3195 30.0691V29.4612C15.2353 29.5439 15.151 29.6342 15.0668 29.7335C14.9825 29.8328 14.9088 29.9186 14.8456 29.9938C14.7012 29.908 14.5612 29.7892 14.4258 29.6387C14.2904 29.4883 14.1881 29.3363 14.1174 29.1813C14.0362 29.3574 13.9263 29.5334 13.7849 29.7109C13.645 29.8885 13.5005 30.0314 13.3531 30.1383C13.3004 30.0946 13.2478 30.0495 13.1952 30.0013C13.1425 29.9532 13.0898 29.9036 13.0372 29.8539C12.9845 29.8073 12.9303 29.7621 12.8762 29.717C12.822 29.6718 12.7693 29.6282 12.7212 29.5846C12.9845 29.413 13.2101 29.1708 13.3952 28.8579C13.5818 28.5464 13.6751 28.1583 13.6751 27.6963V27.2119H13.4223C13.3516 27.2119 13.2884 27.2119 13.2328 27.2149C13.1771 27.2164 13.1154 27.2225 13.0477 27.233V26.4476C13.1139 26.4582 13.1756 26.4641 13.2328 26.4672C13.2884 26.4687 13.3516 26.4702 13.4223 26.4702H14.7613C14.8276 26.4702 14.8892 26.4702 14.9464 26.4672C15.0021 26.4657 15.0653 26.4597 15.136 26.4476V27.233C15.0653 27.2225 15.0021 27.2164 14.9464 27.2149C14.8907 27.2135 14.8291 27.2119 14.7613 27.2119H14.498V27.5835C14.498 28.0289 14.5718 28.393 14.7192 28.6758C14.8667 28.9587 15.0668 29.1813 15.3195 29.3424V26.9802C15.3195 26.8614 15.318 26.7425 15.3135 26.6221C15.3105 26.5018 15.3045 26.3814 15.297 26.2595H16.12C16.1094 26.3814 16.1034 26.5033 16.1034 26.6221V26.9802Z" fill="white"/>
            <path d="M19.1142 29.8584H19.4722V28.8308C19.4722 28.7556 19.4707 28.6683 19.4663 28.5675C19.4632 28.4667 19.4557 28.3794 19.4452 28.3042H20.3464C20.3329 28.3869 20.3239 28.4787 20.3223 28.5781C20.3208 28.6789 20.3193 28.7631 20.3193 28.8308V29.8584H21.1634C21.3002 29.8584 21.4342 29.8584 21.5666 29.8554C21.699 29.8539 21.8328 29.8479 21.9698 29.8358V30.6318C21.8328 30.6212 21.699 30.6152 21.5666 30.6137C21.4342 30.6122 21.3002 30.6107 21.1634 30.6107H18.3168C18.2039 30.6107 18.0775 30.6107 17.9376 30.6137C17.7977 30.6152 17.6729 30.6212 17.563 30.6318V29.8358C17.6608 29.8464 17.7691 29.8524 17.8865 29.8554C18.0038 29.8569 18.1091 29.8584 18.1994 29.8584H18.2686V28.8308C18.2686 28.7556 18.2671 28.6683 18.2626 28.5675C18.2596 28.4667 18.2521 28.3794 18.2416 28.3042H19.1383C19.1247 28.3794 19.1157 28.4667 19.1142 28.5645C19.1127 28.6638 19.1112 28.7526 19.1112 28.8308V29.8584H19.1142ZM20.6789 27.1803H18.5801C18.4672 27.1803 18.3664 27.1803 18.2776 27.1833C18.1874 27.1848 18.0881 27.1908 17.9798 27.2029V26.3904C18.0881 26.401 18.1874 26.407 18.2776 26.41C18.3679 26.4115 18.4687 26.413 18.5801 26.413H21.5591C21.5591 27.1021 21.541 27.6768 21.5064 28.1402C21.4718 28.6036 21.4267 29.0038 21.374 29.3454H20.4983C20.5224 29.1919 20.5465 29.0219 20.5676 28.8399C20.5886 28.6563 20.6082 28.4727 20.6262 28.2862C20.6398 28.0966 20.6533 27.9085 20.6638 27.722C20.6744 27.5354 20.6804 27.3564 20.6804 27.1833L20.6789 27.1803Z" fill="white"/>
            <path d="M23.1779 29.4658V29.025H23.0515C22.9146 29.025 22.7807 29.025 22.6483 29.028C22.5159 29.0296 22.382 29.0355 22.2451 29.0476V28.2833C22.382 28.2938 22.5159 28.2998 22.6483 28.3029C22.7807 28.3044 22.9146 28.3058 23.0515 28.3058H25.8665C26.0034 28.3058 26.1373 28.3058 26.2697 28.3029C26.4022 28.3014 26.536 28.2953 26.673 28.2833V29.0476C26.536 29.037 26.4022 29.0311 26.2697 29.028C26.1373 29.0265 26.0034 29.025 25.8665 29.025H25.7296V29.4658H26.2035C26.193 29.5381 26.187 29.6163 26.1855 29.7006C26.1839 29.7848 26.1825 29.8616 26.1825 29.9293V30.5476C26.1825 30.6304 26.1839 30.7146 26.1885 30.8004C26.1915 30.8861 26.199 30.9689 26.2095 31.0472H25.2767C25.2872 30.9719 25.2933 30.8892 25.2948 30.8004C25.2963 30.7101 25.2978 30.6259 25.2978 30.5476V30.182H23.2516C23.1598 30.182 23.065 30.182 22.9642 30.185C22.8635 30.1865 22.7671 30.1925 22.6724 30.2046V29.4508C22.7461 29.4614 22.8258 29.4674 22.9116 29.4674H23.1779V29.4658ZM24.4538 28.1855C24.1754 28.1855 23.9241 28.1629 23.7 28.1148C23.4758 28.0682 23.2817 28.0004 23.1207 27.9102C22.9627 27.8199 22.8409 27.7146 22.7536 27.5897C22.6679 27.4663 22.6242 27.3294 22.6242 27.1774C22.6242 27.0255 22.6679 26.8901 22.7536 26.7682C22.8394 26.6463 22.9612 26.541 23.1207 26.4507C23.2817 26.3605 23.4758 26.2928 23.7 26.2431C23.9241 26.195 24.1769 26.1709 24.4538 26.1709C25.0164 26.1709 25.4603 26.2627 25.7868 26.4477C26.1133 26.6328 26.2772 26.8751 26.2772 27.1759C26.2772 27.4768 26.1133 27.7206 25.7868 27.9041C25.4603 28.0892 25.0149 28.181 24.4538 28.181V28.1855ZM23.6157 27.1805C23.6157 27.2768 23.6894 27.355 23.8369 27.4152C23.9844 27.4738 24.1905 27.5039 24.4538 27.5039C24.717 27.5039 24.9217 27.4738 25.0676 27.4152C25.2135 27.3565 25.2858 27.2783 25.2858 27.1805C25.2858 27.0827 25.212 27.0059 25.0676 26.9488C24.9217 26.8916 24.717 26.863 24.4538 26.863C24.1905 26.863 23.9844 26.8916 23.8369 26.9488C23.6894 27.0059 23.6157 27.0827 23.6157 27.1805ZM24.8811 29.025H24.0264V29.4658H24.8811V29.025Z" fill="white"/>
            <path d="M29.4039 28.9015V28.4231C29.3197 28.5088 29.2294 28.6036 29.1346 28.7059C29.0398 28.8082 28.9571 28.9045 28.8863 28.9933C28.7389 28.918 28.5915 28.8098 28.4455 28.6683C28.2996 28.5269 28.1898 28.3825 28.1161 28.235C28.0769 28.3178 28.0287 28.4035 27.9686 28.4938C27.9084 28.584 27.8437 28.6698 27.773 28.7526C27.7023 28.8384 27.6286 28.918 27.5488 28.9918C27.4691 29.0655 27.3908 29.1272 27.3141 29.1769C27.2374 29.1016 27.1441 29.0144 27.0343 28.9136C26.9259 28.8128 26.8131 28.7195 26.6973 28.6337C26.9996 28.4441 27.2343 28.1989 27.4044 27.8995C27.5729 27.6001 27.6572 27.2781 27.6572 26.9336V26.7395C27.6572 26.6793 27.6556 26.6056 27.6511 26.5183C27.6481 26.4326 27.6406 26.3573 27.6301 26.2926H28.5268C28.5163 26.3573 28.5087 26.4311 28.5057 26.5138C28.5027 26.5966 28.4997 26.6703 28.4997 26.7349V26.9336C28.4997 27.2345 28.5825 27.5143 28.7495 27.7731C28.9164 28.0319 29.1331 28.2245 29.4009 28.3539V27.719H29.2218C29.1617 27.719 29.1 27.719 29.0353 27.7219C28.9706 27.7234 28.9089 27.7295 28.8533 27.74V26.9231C28.9134 26.9336 28.9751 26.9396 29.0398 26.9426C29.1045 26.9441 29.1692 26.9456 29.2324 26.9456H29.4009V26.7847C29.4009 26.6989 29.4009 26.6086 29.3979 26.5123C29.3964 26.4175 29.3903 26.3317 29.3798 26.2565H30.2074C30.1968 26.3649 30.1908 26.4702 30.1908 26.574V29.2205C30.1908 29.3243 30.1968 29.4281 30.2074 29.5319H29.3798C29.3903 29.4281 29.3964 29.3243 29.3979 29.2205C29.3994 29.1167 29.4009 29.0113 29.4009 28.903L29.4039 28.9015ZM30.4059 30.9402H27.7595V29.9456C27.7595 29.881 27.7595 29.7952 27.7564 29.6869C27.7549 29.5786 27.7489 29.4928 27.7384 29.4281H28.6351C28.6245 29.4928 28.6186 29.5786 28.617 29.6838C28.6155 29.7892 28.614 29.8735 28.614 29.9336V30.1759H30.4059C30.5398 30.1759 30.6782 30.1759 30.8227 30.1729C30.9671 30.1713 31.1085 30.1653 31.25 30.1533V30.9597C31.1131 30.9492 30.9717 30.9432 30.8287 30.9402C30.6843 30.9387 30.5444 30.9372 30.4074 30.9372L30.4059 30.9402ZM31.1868 26.8147V29.0264C31.1868 29.1347 31.1868 29.2401 31.1898 29.3468C31.1913 29.4522 31.1973 29.5575 31.2079 29.6613H30.3744C30.3849 29.5575 30.3924 29.4522 30.3954 29.3468C30.3984 29.2416 30.4014 29.1347 30.4014 29.0264V26.8147C30.4014 26.7064 30.4014 26.6011 30.3984 26.4973C30.3969 26.3935 30.3909 26.2881 30.3803 26.1798H31.2079C31.1973 26.2881 31.1913 26.3935 31.1898 26.4973C31.1883 26.6011 31.1868 26.7064 31.1868 26.8147Z" fill="white"/>
            <path d="M32.7618 27.1908V27.7822H34.1069V28.5404H32.7618V29.234H32.9725C33.2463 29.234 33.5292 29.225 33.818 29.2069C34.1084 29.1889 34.3642 29.1588 34.5854 29.1151V29.8464C34.4831 29.875 34.3657 29.899 34.2318 29.9156C34.0979 29.9336 33.9595 29.9472 33.815 29.9592C33.6676 29.9698 33.5186 29.9773 33.3697 29.9803C33.2207 29.9833 33.0793 29.9863 32.9454 29.9863H31.9328V27.087C31.9328 26.9968 31.9313 26.8885 31.9269 26.7591C31.9238 26.6297 31.9163 26.5183 31.9058 26.425H33.6134C33.6977 26.425 33.7894 26.425 33.8873 26.422C33.985 26.4206 34.0783 26.4145 34.1671 26.404V27.2104C34.0753 27.2029 33.9821 27.1984 33.8858 27.1939C33.7894 27.1908 33.6992 27.1879 33.615 27.1879H32.7604L32.7618 27.1908ZM34.9073 30.2842V28.5675H34.7855C34.7147 28.5675 34.632 28.5675 34.5357 28.5705C34.4394 28.572 34.3567 28.5781 34.2905 28.5886V27.7445C34.3642 27.7551 34.4485 27.761 34.5432 27.7641C34.638 27.7656 34.7223 27.7671 34.796 27.7671H34.9073V26.9005C34.9073 26.7816 34.9059 26.6628 34.9013 26.5424C34.8983 26.422 34.8908 26.3017 34.8802 26.1798H35.7499C35.7393 26.3017 35.7333 26.4235 35.7318 26.5424C35.7303 26.6628 35.7288 26.7816 35.7288 26.9005V30.2842C35.7288 30.4061 35.7288 30.5264 35.7318 30.6468C35.7333 30.7671 35.7393 30.886 35.7499 31.0049H34.8802C34.8908 30.886 34.8983 30.7671 34.9013 30.6468C34.9044 30.5264 34.9073 30.4061 34.9073 30.2842Z" fill="white"/>
            <path d="M24.6653 15.372H26.8704V24.1599H24.6549V18.7745H22.2686L24.6653 15.372Z" fill="white"/>
            <path d="M33.3844 18.7926C34.7988 18.8755 35.7324 19.8531 35.7393 21.2107V21.4559C35.7289 23.0726 34.9033 24.0743 33.4019 24.1572H27.7759L28.6502 22.2573H32.8515C33.273 22.2573 33.5342 21.8946 33.5342 21.4041C33.5342 20.9723 33.2068 20.6372 32.8062 20.6372H30.1308C28.6991 20.6372 27.7759 19.6043 27.7759 18.226V17.9808C27.7863 16.4298 28.72 15.3693 30.1134 15.3693H35.7498L34.8545 17.2623H30.6289C30.2248 17.2623 29.974 17.5939 29.981 18.0706C29.981 18.499 30.2457 18.7926 30.7056 18.7926H33.3844Z" fill="white"/>
            <path d="M16.2343 15.3728L15.3391 17.2727H12.4582C11.225 17.2796 10.5945 18.0982 10.5701 19.7391C10.5805 21.4214 11.1379 22.2608 12.2352 22.2539H16.2309V24.1642H11.8834C9.5668 24.0294 8.25 22.4024 8.25 19.7598C8.25 17.1276 9.68175 15.5213 12.2387 15.3693H16.2343V15.3728Z" fill="white"/>
            <path d="M23.1494 20.6503H20.9512L19.4289 18.5604V24.1599H17.2134V15.372H19.4185L23.1494 20.6503Z" fill="white"/>
            <path d="M19.2548 13.8454C19.2548 14.4051 18.7984 14.8576 18.234 14.8576C17.6697 14.8576 17.2134 14.4051 17.2134 13.8454C17.2134 13.2893 17.6697 12.8333 18.234 12.8333C18.7984 12.8333 19.2548 13.2893 19.2548 13.8454Z" fill="white"/>
            <path d="M26.87 13.8454C26.87 14.4051 26.4136 14.8576 25.8493 14.8576C25.285 14.8576 24.8286 14.4051 24.8286 13.8454C24.8286 13.2858 25.285 12.8333 25.8493 12.8333C26.4101 12.8333 26.87 13.2893 26.87 13.8454Z" fill="white"/>
        </g>
    </g>
    <path d="M21.5385 51L16 44H28L21.5385 51Z" fill="#F08300"/>
    <defs>
        <clipPath id="clip0_2096_71161">
            <rect width="44" height="44" fill="white"/>
        </clipPath>
        <clipPath id="clip1_2096_71161">
            <rect width="44" height="44" fill="white"/>
        </clipPath>
    </defs>
</svg>
