<svg width="44" height="51" viewBox="0 0 44 51" fill="none" xmlns="http://www.w3.org/2000/svg">
    <g clip-path="url(#clip0_2096_71152)">
        <g clip-path="url(#clip1_2096_71152)">
            <path d="M0 14.6667C0 6.56649 6.56649 0 14.6667 0H29.3333C37.4335 0 44 6.56649 44 14.6667V29.3333C44 37.4335 37.4335 44 29.3333 44H14.6667C6.56649 44 0 37.4335 0 29.3333V14.6667Z" fill="#3DBCD2"/>
            <path d="M17.2517 26.5539H18.2235C18.2205 26.5284 18.2175 26.4998 18.2161 26.4683C18.2145 26.4353 18.213 26.4037 18.213 26.3706C18.21 26.3346 18.2055 26.3001 18.2025 26.2686C18.1995 26.2355 18.195 26.2039 18.192 26.1709H19.0692C19.0587 26.264 19.0527 26.3557 19.0512 26.4458C19.0496 26.5359 19.0481 26.6261 19.0481 26.7147V28.3699C19.0481 28.4675 19.0481 28.5742 19.0512 28.6913C19.0527 28.8085 19.0587 28.9211 19.0692 29.0278H18.192C18.2025 28.9377 18.21 28.8415 18.213 28.7394C18.2161 28.6373 18.219 28.5486 18.219 28.4721H17.2727C17.1571 28.5877 17.0204 28.6763 16.8627 28.7394C16.7065 28.8025 16.5322 28.834 16.343 28.834C16.1538 28.834 15.9674 28.801 15.8068 28.7349C15.646 28.6688 15.5079 28.5772 15.3922 28.4631C15.2795 28.3444 15.1909 28.2062 15.1278 28.0485C15.0648 27.8908 15.0332 27.718 15.0332 27.5303C15.0332 27.3425 15.0648 27.1743 15.1278 27.0121C15.1909 26.8498 15.2795 26.7101 15.3922 26.5915C15.5079 26.4728 15.646 26.3782 15.8068 26.3091C15.9674 26.2385 16.1462 26.2039 16.343 26.2039C16.5262 26.2039 16.6945 26.2355 16.8477 26.2986C17.0009 26.3616 17.1361 26.4473 17.2517 26.5554V26.5539ZM15.571 30.0582C15.571 29.7668 15.7211 29.5235 16.0231 29.3282C16.3249 29.133 16.7651 29.0338 17.3464 29.0338C17.6243 29.0338 17.8751 29.0593 18.0974 29.1119C18.3197 29.1645 18.5059 29.2366 18.6576 29.3297C18.8123 29.4198 18.931 29.528 19.0121 29.6526C19.0932 29.7788 19.1338 29.914 19.1338 30.0567C19.1338 30.3586 18.9761 30.6034 18.6607 30.7927C18.3452 30.9819 17.9081 31.0751 17.3479 31.0751C16.7876 31.0751 16.3249 30.9805 16.0246 30.7927C15.7241 30.605 15.5724 30.3586 15.5724 30.0567L15.571 30.0582ZM15.8503 27.5303C15.8503 27.6925 15.8954 27.8292 15.9855 27.9403C16.0756 28.0514 16.1943 28.1071 16.3414 28.1071C16.4887 28.1071 16.6028 28.0514 16.693 27.9403C16.7831 27.8292 16.8281 27.6925 16.8281 27.5303C16.8281 27.368 16.7831 27.2208 16.693 27.1097C16.6028 26.9985 16.4857 26.943 16.3414 26.943C16.1973 26.943 16.0741 26.9985 15.9855 27.1097C15.8954 27.2208 15.8503 27.362 15.8503 27.5303ZM18.1815 30.0582C18.1815 29.95 18.1079 29.8674 17.9622 29.8073C17.8165 29.7487 17.6107 29.7187 17.3464 29.7187C17.082 29.7187 16.8762 29.7487 16.7305 29.8073C16.5848 29.866 16.5112 29.95 16.5112 30.0582C16.5112 30.1663 16.5848 30.249 16.7305 30.3091C16.8762 30.3676 17.082 30.3977 17.3464 30.3977C17.6107 30.3977 17.815 30.3676 17.9622 30.3091C18.1079 30.2505 18.1815 30.1663 18.1815 30.0582ZM17.6317 27.7511H18.2176V27.2764H17.6257C17.6333 27.3199 17.6377 27.362 17.6423 27.4026C17.6452 27.4447 17.6482 27.4867 17.6482 27.5287C17.6482 27.5678 17.6467 27.6068 17.6423 27.6444C17.6392 27.682 17.6348 27.7165 17.6317 27.7496V27.7511Z" fill="white"/>
            <path d="M22.9039 26.9744V27.7675H23.1623V26.8948C23.1623 26.7761 23.1607 26.656 23.1562 26.5359C23.1533 26.4157 23.1457 26.294 23.1352 26.1723H23.9809C23.9703 26.294 23.9643 26.4157 23.9629 26.5359C23.9613 26.656 23.9598 26.7761 23.9598 26.8948V30.2864C23.9598 30.4081 23.9598 30.5297 23.9629 30.6499C23.9643 30.7701 23.9703 30.8903 23.9809 31.0089H23.1352C23.1457 30.8903 23.1533 30.7701 23.1562 30.6499C23.1592 30.5297 23.1623 30.4081 23.1623 30.2864V28.6582H22.9039V30.4351C22.9039 30.5553 22.9099 30.6754 22.9204 30.7941H22.0958C22.1033 30.6754 22.1078 30.5553 22.1123 30.4351C22.1153 30.315 22.1183 30.1933 22.1183 30.0717V29.4618C22.0342 29.5444 21.9486 29.6346 21.8645 29.7337C21.7804 29.8328 21.7052 29.9199 21.6422 29.995C21.498 29.9094 21.3583 29.7908 21.2216 29.639C21.0864 29.4889 20.9827 29.3356 20.9122 29.1809C20.8311 29.3567 20.7199 29.5339 20.5787 29.7127C20.4376 29.8899 20.2933 30.0341 20.1461 30.1408C20.0935 30.0972 20.041 30.0521 19.9869 30.0026C19.9344 29.9544 19.8818 29.9049 19.8277 29.8539C19.7752 29.8073 19.721 29.7607 19.667 29.7157C19.6129 29.6706 19.5603 29.6271 19.5107 29.5835C19.7752 29.4108 20.0004 29.1689 20.1867 28.855C20.3729 28.5425 20.4661 28.1535 20.4661 27.6909V27.2058H20.2122C20.1417 27.2058 20.0785 27.2058 20.0215 27.2088C19.9644 27.2102 19.9028 27.2163 19.8367 27.2283V26.4412C19.9043 26.4517 19.9659 26.4578 20.0215 26.4607C20.077 26.4622 20.1417 26.4637 20.2122 26.4637H21.5536C21.6212 26.4637 21.6828 26.4637 21.7383 26.4607C21.7939 26.4592 21.8585 26.4532 21.9291 26.4412V27.2283C21.8585 27.2178 21.7954 27.2117 21.7383 27.2088C21.6812 27.2073 21.6196 27.2058 21.5536 27.2058H21.2892V27.5782C21.2892 28.0244 21.3628 28.3894 21.5115 28.6732C21.6587 28.9571 21.86 29.1794 22.1138 29.3417V26.9744C22.1138 26.8557 22.1123 26.7356 22.1078 26.6155C22.1048 26.4953 22.0988 26.3736 22.0913 26.2519H22.9159C22.9054 26.3736 22.8994 26.4953 22.8994 26.6155V26.9744H22.9039Z" fill="white"/>
            <path d="M25.0189 28.4255H25.124V27.9343C25.124 27.8728 25.124 27.8037 25.121 27.7241C25.1195 27.6444 25.1135 27.5708 25.103 27.5032H25.9591C25.9486 27.5678 25.9426 27.6384 25.9411 27.7135C25.9396 27.7886 25.9381 27.8592 25.9381 27.9238V28.4255H26.0748C26.2761 28.4255 26.4954 28.4195 26.7327 28.406C26.97 28.394 27.1953 28.3714 27.4056 28.3383V29.0443C27.2193 29.0804 26.9956 29.1059 26.7342 29.1194C26.4728 29.1345 26.2235 29.1404 25.9832 29.1404H25.0369C24.9423 29.1404 24.8416 29.1404 24.735 29.1435C24.6299 29.145 24.5292 29.151 24.4331 29.163V28.403C24.5172 28.4135 24.6119 28.4195 24.7155 28.4225C24.8191 28.424 24.9182 28.4255 25.0144 28.4255H25.0189ZM26.3662 27.0346H25.2037C25.115 27.0346 25.0264 27.0346 24.9363 27.0376C24.8462 27.0391 24.759 27.0451 24.6749 27.0571V26.2641C24.759 26.2745 24.8462 26.2806 24.9363 26.2836C25.0264 26.2851 25.115 26.2866 25.2037 26.2866H27.2224C27.2224 26.65 27.2089 26.979 27.1833 27.2764C27.1563 27.5723 27.1232 27.8292 27.0797 28.0455H26.2506C26.2821 27.8937 26.3092 27.727 26.3302 27.5408C26.3512 27.356 26.3632 27.1878 26.3677 27.0361L26.3662 27.0346ZM27.6129 30.9429H25.0564V29.881C25.0564 29.8164 25.0565 29.7488 25.0534 29.6767C25.0519 29.6046 25.0459 29.537 25.0354 29.4724H25.9021C25.8916 29.537 25.8856 29.6046 25.8841 29.6752C25.8826 29.7458 25.881 29.8103 25.881 29.8719V30.1799H27.5979C27.7421 30.1799 27.8848 30.1799 28.026 30.1769C28.1671 30.1753 28.3053 30.1694 28.4435 30.1573V30.9654C28.3309 30.9549 28.1957 30.9489 28.0395 30.9459C27.8833 30.9444 27.7406 30.9429 27.6144 30.9429H27.6129ZM28.3684 26.7207V27.4642H28.5382C28.6013 27.4642 28.6689 27.4642 28.7395 27.4612C28.81 27.4596 28.8761 27.4537 28.9407 27.4416V28.2393C28.8777 28.2287 28.8115 28.2227 28.7424 28.2197C28.6733 28.2182 28.6088 28.2167 28.5502 28.2167H28.3699V29.1059C28.3699 29.199 28.3699 29.2907 28.373 29.3808C28.3744 29.4709 28.3805 29.5611 28.391 29.6497H27.5243C27.5348 29.5595 27.5423 29.4694 27.5453 29.3808C27.5483 29.2907 27.5513 29.199 27.5513 29.1059V26.7177C27.5513 26.6276 27.5498 26.5374 27.5453 26.4488C27.5423 26.3587 27.5348 26.267 27.5243 26.174H28.391C28.3805 26.267 28.3744 26.3587 28.373 26.4488C28.3714 26.5389 28.3699 26.6291 28.3699 26.7177L28.3684 26.7207Z" fill="white"/>
            <path d="M24.6652 15.372H26.8703V24.1599H24.6548V18.7745H22.2686L24.6652 15.372Z" fill="white"/>
            <path d="M33.3844 18.7926C34.7988 18.8755 35.7324 19.8531 35.7393 21.2107V21.4559C35.7289 23.0726 34.9033 24.0743 33.4019 24.1572H27.7759L28.6502 22.2573H32.8515C33.273 22.2573 33.5342 21.8946 33.5342 21.4041C33.5342 20.9723 33.2068 20.6372 32.8062 20.6372H30.1308C28.6991 20.6372 27.7759 19.6043 27.7759 18.226V17.9808C27.7863 16.4298 28.72 15.3693 30.1134 15.3693H35.7498L34.8545 17.2623H30.6289C30.2248 17.2623 29.974 17.594 29.981 18.0706C29.981 18.499 30.2457 18.7926 30.7056 18.7926H33.3844Z" fill="white"/>
            <path d="M16.2343 15.3728L15.3391 17.2727H12.4582C11.225 17.2796 10.5945 18.0982 10.5701 19.7391C10.5805 21.4214 11.1379 22.2608 12.2352 22.2539H16.2309V24.1642H11.8834C9.5668 24.0294 8.25 22.4024 8.25 19.7598C8.25 17.1276 9.68175 15.5213 12.2387 15.3693H16.2343V15.3728Z" fill="white"/>
            <path d="M23.1494 20.6503H20.9512L19.4289 18.5604V24.1599H17.2134V15.372H19.4185L23.1494 20.6503Z" fill="white"/>
            <path d="M19.2548 13.8454C19.2548 14.4051 18.7984 14.8576 18.2341 14.8576C17.6697 14.8576 17.2134 14.4051 17.2134 13.8454C17.2134 13.2893 17.6697 12.8333 18.2341 12.8333C18.7984 12.8333 19.2548 13.2893 19.2548 13.8454Z" fill="white"/>
            <path d="M26.87 13.8454C26.87 14.4051 26.4136 14.8576 25.8493 14.8576C25.285 14.8576 24.8286 14.4051 24.8286 13.8454C24.8286 13.2858 25.285 12.8333 25.8493 12.8333C26.4101 12.8333 26.87 13.2893 26.87 13.8454Z" fill="white"/>
        </g>
    </g>
    <path d="M21.5385 51L16 44H28L21.5385 51Z" fill="#3DBCD2"/>
    <defs>
        <clipPath id="clip0_2096_71152">
            <rect width="44" height="44" fill="white"/>
        </clipPath>
        <clipPath id="clip1_2096_71152">
            <rect width="44" height="44" fill="white"/>
        </clipPath>
    </defs>
</svg>
