<svg width="24" height="24" viewBox="0 0 24 24" fill="none" xmlns="http://www.w3.org/2000/svg">
    <path fill-rule="evenodd" clip-rule="evenodd" d="M19 16V14H21V16C21 18.7614 18.7614 21 16 21H13V19H16C17.6569 19 19 17.6569 19 16Z" fill="#A6EBE9"/>
    <path d="M12 2C7.02944 2 3 6.02944 3 11V14H5V11C5 7.13401 8.13401 4 12 4C15.866 4 19 7.13401 19 11V14H21V11C21 6.02944 16.9706 2 12 2Z" fill="#A6EBE9"/>
    <path d="M2 11.2C2 9.43269 3.43269 8 5.2 8C5.64183 8 6 8.35817 6 8.8V15.2C6 15.6418 5.64183 16 5.2 16C3.43269 16 2 14.5673 2 12.8V11.2Z" fill="#00BABB"/>
    <path d="M22 11.2C22 9.43269 20.5673 8 18.8 8C18.3582 8 18 8.35817 18 8.8V15.2C18 15.6418 18.3582 16 18.8 16C20.5673 16 22 14.5673 22 12.8V11.2Z" fill="#00BABB"/>
    <path d="M10 20C10 18.8954 10.8954 18 12 18C13.1046 18 14 18.8954 14 20C14 21.1046 13.1046 22 12 22C10.8954 22 10 21.1046 10 20Z" fill="#00BABB"/>
    <path d="M9.5 9.75C9.5 9.33579 9.83579 9 10.25 9C10.6642 9 11 9.33579 11 9.75C11 10.1642 10.6642 10.5 10.25 10.5C9.83579 10.5 9.5 10.1642 9.5 9.75Z" fill="#676F87"/>
    <path d="M13 9.75C13 9.33579 13.3358 9 13.75 9C14.1642 9 14.5 9.33579 14.5 9.75C14.5 10.1642 14.1642 10.5 13.75 10.5C13.3358 10.5 13 10.1642 13 9.75Z" fill="#676F87"/>
    <path fill-rule="evenodd" clip-rule="evenodd" d="M9.23507 11.5761C9.46924 11.4297 9.77771 11.5009 9.92407 11.7351C10.8829 13.2692 13.1172 13.2692 14.0761 11.7351C14.2224 11.5009 14.5309 11.4297 14.7651 11.5761C14.9992 11.7224 15.0704 12.0309 14.9241 12.2651C13.5736 14.4259 10.4266 14.4259 9.07607 12.2651C8.92971 12.0309 9.0009 11.7224 9.23507 11.5761Z" fill="#676F87"/>
</svg>
