<svg width="553" height="553" viewBox="0 0 553 553" fill="none" xmlns="http://www.w3.org/2000/svg">
<circle cx="276.5" cy="276.5" r="276.5" fill="#FEC425"/>
<mask id="mask0_39_2018" style="mask-type:alpha" maskUnits="userSpaceOnUse" x="0" y="0" width="553" height="553">
<circle cx="276.5" cy="276.5" r="276.5" fill="#F9F9F9"/>
</mask>
<g mask="url(#mask0_39_2018)">
<path d="M279.065 129.922C279.065 134.278 278.76 138.702 279.065 143.058C279.184 144.736 280.472 146.363 282.286 146.278C283.93 146.21 285.641 144.854 285.506 143.058C285.201 138.702 285.506 134.278 285.506 129.922C285.506 128.228 284.014 126.617 282.286 126.685C280.54 126.77 279.065 128.109 279.065 129.922Z" fill="#F3CC00"/>
<path d="M222.506 122.176C233.683 122.176 242.743 113.116 242.743 101.94C242.743 90.763 233.683 81.7026 222.506 81.7026C211.329 81.7026 202.269 90.763 202.269 101.94C202.269 113.116 211.329 122.176 222.506 122.176Z" fill="#603E3E"/>
<path d="M283.735 87.3325C290.139 79.5222 288.999 67.9993 281.189 61.5953C273.379 55.1912 261.856 56.3312 255.452 64.1415C249.048 71.9517 250.188 83.4747 257.998 89.8787C265.808 96.2827 277.331 95.1427 283.735 87.3325Z" fill="#603E3E"/>
<path d="M275.623 95.7192C275.623 95.7192 282.979 103.787 285.793 120.956C288.589 138.142 273.166 139.193 264.403 138.837C255.641 138.481 249.675 130.075 249.675 130.075C249.675 130.075 247.217 133.939 240.556 128.329C233.895 122.719 239.505 114.295 246.861 119.905C246.861 119.905 262.641 120.956 255.285 97.8209C255.285 97.8209 267.912 102.024 275.623 95.7192Z" fill="#FEFDFF"/>
<path d="M246.861 119.922C246.861 119.922 262.641 120.973 255.285 97.838C255.285 97.838 267.912 102.041 275.623 95.7363C275.623 95.7363 278.674 99.0922 281.589 106.041C281.589 106.041 296.623 93.2787 286.132 79.9569C275.623 66.6352 264.403 71.1944 257.742 79.9569C257.742 79.9569 251.776 85.2111 242.319 89.0754C233.624 92.6177 228.201 114.16 237.675 122.024C238.183 118.516 242.166 116.329 246.878 119.939L246.861 119.922Z" fill="#603E3E"/>
<path d="M263.608 135.16C267.24 135.16 270.184 132.215 270.184 128.583C270.184 124.952 267.24 122.007 263.608 122.007C259.976 122.007 257.032 124.952 257.032 128.583C257.032 132.215 259.976 135.16 263.608 135.16Z" fill="#F49292"/>
<path d="M284.234 113.838C280.912 114.177 278.319 116.939 278.319 120.346C278.319 123.99 281.268 126.922 284.895 126.922C285.268 126.922 285.641 126.871 285.997 126.804C286.183 125.092 286.132 123.16 285.776 120.956C285.353 118.363 284.81 116.007 284.234 113.821V113.838Z" fill="#F49292"/>
<path d="M241.438 129.922C241.438 134.278 241.133 138.702 241.438 143.058C241.557 144.736 242.845 146.363 244.659 146.278C246.303 146.21 248.014 144.854 247.879 143.058C247.574 138.702 247.879 134.278 247.879 129.922C247.879 128.228 246.387 126.617 244.659 126.685C242.913 126.77 241.438 128.109 241.438 129.922Z" fill="#F3CC00"/>
<path d="M275.759 137.871C271.912 138.905 267.675 138.973 264.387 138.854C259.285 138.651 255.149 135.719 252.573 133.312C252.573 133.312 256.065 145.515 251.285 153.057C251.285 153.057 258.777 173.396 270.166 169.888C281.556 166.379 278.302 150.43 278.302 150.43C278.302 150.43 274.488 146.38 275.742 137.888L275.759 137.871Z" fill="#FEFDFF"/>
<path d="M398.334 175.311C368.182 196.701 336.623 154.617 310.319 151.346C284.014 148.058 278.319 150.431 278.319 150.431C278.319 150.431 281.573 166.379 270.184 169.888C258.794 173.396 251.303 153.058 251.303 153.058C232.947 159.193 211.117 172.159 211.117 172.159C155.372 210.735 149.406 253.496 149.406 253.496C158.881 271.377 174.999 271.733 174.999 271.733C200.236 244.039 231.795 220.192 231.795 220.192C246.879 261.208 243.015 290.326 243.015 290.326C313.149 306.801 353.809 290.326 353.809 290.326C360.114 262.276 348.894 225.463 348.894 225.463C390.961 229.327 410.605 205.124 410.605 205.124C409.91 179.871 398.334 175.328 398.334 175.328V175.311Z" fill="#8962DF"/>
<path d="M252.625 150.295C259.879 149.244 268.15 147.447 275.828 144.431C275.506 142.651 275.387 140.498 275.777 137.888C271.93 138.922 267.693 138.99 264.405 138.871C259.303 138.668 255.168 135.736 252.591 133.329C252.591 133.329 255.32 142.888 252.625 150.312V150.295Z" fill="black"/>
<path d="M327.147 179.532C339.774 199.074 348.91 225.463 348.91 225.463C363.876 226.836 375.977 224.65 385.401 221.277C353.401 216.921 331.232 185.667 327.164 179.532H327.147Z" fill="black"/>
<path d="M438.554 120.38C436.452 119.092 431.774 128.583 431.774 128.583C431.774 128.583 434.113 115.584 430.605 115.126C427.096 114.651 424.52 126.685 424.52 126.685C424.52 126.685 423.588 114.414 420.554 113.821C417.52 113.228 416.588 126.922 416.588 126.922C416.588 126.922 411.91 115.126 408.639 116.279C405.368 117.448 410.622 131.702 410.622 131.702C410.622 131.702 406.537 126.787 403.826 126.905C401.131 127.024 400.69 128.888 405.825 136.465C410.961 144.041 409.571 147.125 406.995 156.939C404.419 166.752 398.351 175.294 398.351 175.294C398.351 175.294 409.927 179.854 410.622 205.09C435.977 185.447 440.655 121.634 438.554 120.346V120.38Z" fill="#FEFDFF"/>
<path d="M353.809 290.326C353.809 290.326 313.132 306.8 243.015 290.326C243.015 290.326 238.456 346.071 194.982 367.121C151.508 388.155 149.406 303.546 149.406 303.546L132.339 311.495C132.339 311.495 103.119 394.477 143.796 439.357C184.474 484.238 247.913 433.747 247.913 433.747C247.913 433.747 268.625 465.306 308.59 446.374C348.555 427.442 359.08 327.156 353.826 290.343L353.809 290.326Z" fill="#FEFDFF"/>
<path d="M149.389 303.529C149.389 303.529 151.846 292.072 142.033 290.326C132.22 288.581 112.237 287.174 114.677 292.072C117.135 296.987 132.321 311.478 132.321 311.478L149.389 303.529Z" fill="black"/>
<path d="M216.711 303.529C216.711 303.529 212.507 292.784 202.338 293.479C192.169 294.173 180.593 296.173 182 300.089C183.406 304.004 200.575 310.309 200.575 310.309C200.575 310.309 203.372 303.072 216.711 303.529Z" fill="black"/>
<path d="M232.252 327.749C227.269 322.682 220.557 314.41 216.71 303.529C216.71 303.529 201.625 304.004 200.574 310.309C200.574 310.309 203.15 337.156 213.184 354.494C221.726 346.444 227.862 336.935 232.252 327.749Z" fill="#F1EAF9"/>
<path d="M254.931 423.917L261.947 414.104C261.947 414.104 275.303 436.425 320.946 437.035C350.691 405.612 358.471 323.004 353.81 290.326C353.81 290.326 313.133 306.8 243.015 290.326C243.015 290.326 238.473 345.647 195.457 366.867C199.287 383.392 212.338 417.832 254.947 423.917H254.931Z" fill="#CE605B"/>
<path d="M261.946 414.104C265.132 406.849 268.81 399.833 272.539 392.85C276.251 385.867 280.217 379.002 284.166 372.172C288.166 365.359 292.115 358.494 296.386 351.817C300.708 345.24 304.996 338.274 311.403 333.461C308.521 336.173 306.098 339.291 303.979 342.596C301.793 345.851 299.776 349.257 297.81 352.664L286.047 373.24L273.996 393.646L267.98 403.849C265.929 407.239 263.963 410.663 261.98 414.087L261.946 414.104Z" fill="#AD4040"/>
<path d="M316.978 297.19C317.707 302.851 317.181 308.597 315.995 314.173C315.368 316.953 314.504 319.698 313.385 322.342C312.283 324.987 310.792 327.478 309.063 329.715C310.08 327.054 310.995 324.427 311.809 321.766C312.571 319.088 313.317 316.427 313.893 313.699C315.131 308.275 316.012 302.784 316.978 297.19Z" fill="#AD4040"/>
<path d="M209.997 357.359C210.862 360.63 211.913 363.833 213.218 366.935C214.472 370.053 215.913 373.087 217.574 375.969C220.896 381.748 224.946 387.121 229.895 391.528C232.353 393.748 235.031 395.697 237.861 397.409C240.692 399.121 243.743 400.46 246.827 401.68C253.098 403.9 259.776 405.002 266.539 405.375C263.166 405.595 259.759 405.595 256.352 405.256C252.946 404.968 249.607 404.154 246.302 403.239C243.031 402.205 239.844 400.833 236.827 399.155C233.844 397.426 231.031 395.392 228.455 393.104C223.336 388.477 219.184 382.85 216.116 376.731C213.065 370.613 210.845 364.07 209.98 357.342L209.997 357.359Z" fill="#AD4040"/>
<path d="M270.404 398.341C272.692 400.154 275.014 401.917 277.438 403.51C279.811 405.171 282.268 406.714 284.794 408.12C289.828 410.951 295.048 413.442 300.471 415.307C305.895 417.205 311.573 418.222 317.285 418.629L321.59 418.696C323.03 418.696 324.454 418.408 325.878 418.29L328.047 418.103C328.759 417.985 329.454 417.798 330.166 417.629C331.573 417.29 332.996 416.985 334.437 416.696C329.03 418.883 323.2 420.34 317.251 420.29C311.319 420.273 305.404 419.256 299.777 417.357C294.2 415.391 288.845 412.781 283.929 409.544C279.014 406.324 274.353 402.663 270.387 398.358L270.404 398.341Z" fill="#AD4040"/>
<path d="M261.946 294.123C261.184 298.207 260.065 302.207 258.641 306.122C257.235 310.038 255.506 313.851 253.404 317.495C251.218 321.054 248.743 324.647 245.048 327.054C243.235 328.241 240.964 329.003 238.743 328.698C236.54 328.376 234.642 327.207 233.201 325.732C234.947 326.834 236.862 327.698 238.811 327.63C240.743 327.647 242.557 326.817 244.099 325.647C245.642 324.461 246.998 323.003 248.201 321.41C249.421 319.817 250.54 318.139 251.557 316.393C253.625 312.902 255.387 309.207 257.099 305.495C258.76 301.75 260.404 297.97 261.963 294.123H261.946Z" fill="#AD4040"/>
<path d="M149.39 253.513C149.39 253.513 135.594 286.241 132.323 311.478C132.323 311.478 123.899 323.173 121.577 332.986C119.238 342.8 119.238 346.545 121.577 345.613C123.916 344.681 125.543 335.563 125.543 335.563C125.543 335.563 125.306 350.749 128.119 351.223C130.933 351.698 131.865 338.834 131.865 338.834C131.865 338.834 134.899 353.799 138.17 353.562C141.441 353.325 140.034 335.8 140.034 335.8C140.034 335.8 145.17 348.427 149.39 347.952C153.593 347.478 149.39 334.63 149.39 334.63C149.39 334.63 152.661 337.664 153.831 333.935C155 330.207 149.627 322.953 149.39 318.037C149.153 313.122 174.983 271.75 174.983 271.75C174.983 271.75 158.847 271.394 149.39 253.513Z" fill="#FEFDFF"/>
<path d="M121.575 345.613C122.389 345.139 122.779 344.257 123.151 343.444C123.507 342.613 123.779 341.732 124.033 340.851C124.524 339.088 124.897 337.291 125.185 335.495L125.931 335.563C125.982 338.037 126.151 340.512 126.355 342.969C126.609 345.376 126.846 347.986 127.795 349.969C127.914 350.19 128.067 350.376 128.168 350.444C128.27 350.512 128.27 350.495 128.338 350.478C128.507 350.41 128.863 349.952 129.067 349.444C129.507 348.427 129.795 347.224 130.033 346.037C130.473 343.647 130.761 341.19 130.948 338.766L131.439 332.512L132.795 338.647C133.405 341.444 134.151 344.257 135.066 346.969C135.524 348.308 136.05 349.647 136.694 350.834C137.016 351.41 137.388 351.986 137.761 352.308C137.948 352.495 138.1 352.512 138.1 352.512C138.1 352.495 138.016 352.579 138.151 352.427C138.66 351.698 138.914 350.122 139.049 348.783C139.185 347.393 139.253 345.952 139.287 344.512C139.338 341.647 139.236 338.732 139.049 335.868L138.643 329.817L140.982 335.41C141.931 337.681 143.015 339.952 144.287 342.054C144.914 343.122 145.609 344.122 146.354 345.037C147.1 345.935 147.998 346.783 148.846 347.003C149.253 347.037 149.575 347.071 149.778 346.851C150.015 346.63 150.219 346.173 150.32 345.63C150.524 344.546 150.473 343.308 150.32 342.105C150.049 339.664 149.473 337.207 148.778 334.834L148.134 332.614L149.846 334.156C150.422 334.681 151.236 335.19 151.897 335.19C152.524 335.224 153.015 334.647 153.303 333.851C153.812 332.325 153.253 330.427 152.676 328.715C152.066 326.97 151.337 325.241 150.693 323.495C150.032 321.749 149.473 319.919 149.405 318.038C149.626 319.902 150.337 321.631 151.083 323.343C151.829 325.054 152.659 326.715 153.388 328.461C154.032 330.207 154.88 332.071 154.32 334.207C154.151 334.698 153.964 335.207 153.541 335.631C153.151 336.071 152.507 336.393 151.897 336.376C150.659 336.342 149.795 335.749 148.965 335.088L150.015 334.41C150.829 336.851 151.49 339.308 151.88 341.885C152.066 343.173 152.185 344.495 151.998 345.901C151.88 346.596 151.676 347.393 151.015 348.105C150.676 348.427 150.219 348.715 149.744 348.783C149.287 348.884 148.846 348.783 148.405 348.766C146.761 348.308 145.812 347.223 144.914 346.24C144.032 345.224 143.287 344.139 142.626 343.037C141.27 340.817 140.134 338.546 139.1 336.156L141.032 335.698C141.27 338.647 141.388 341.58 141.388 344.529C141.388 346.003 141.338 347.495 141.151 349.003C141.066 349.749 140.948 350.512 140.778 351.274C140.575 352.054 140.405 352.834 139.761 353.698C139.456 354.122 138.694 354.63 137.948 354.545C137.236 354.495 136.711 354.139 136.372 353.817C135.66 353.156 135.27 352.461 134.88 351.766C134.151 350.376 133.643 348.969 133.168 347.562C132.236 344.732 131.541 341.885 130.931 338.986L132.778 338.868C132.558 341.393 132.236 343.868 131.66 346.359C131.355 347.596 131.05 348.834 130.456 350.071C130.134 350.664 129.829 351.376 128.846 351.834C128.338 352.054 127.643 351.901 127.27 351.579C126.88 351.274 126.677 350.918 126.507 350.596C125.406 348.003 125.389 345.529 125.185 343.02C125.033 340.512 125.084 338.02 125.168 335.529L125.914 335.597C125.507 337.41 125.033 339.19 124.423 340.952C124.118 341.817 123.779 342.698 123.355 343.512C122.914 344.308 122.423 345.19 121.575 345.579V345.613Z" fill="#B1AEB5"/>
<g style="mix-blend-mode:multiply" opacity="0.41">
<path d="M225.134 205.125C201.134 218.836 180.101 248.768 167.355 269.988C171.762 271.666 174.999 271.75 174.999 271.75C200.236 244.056 231.794 220.209 231.794 220.209L225.134 205.125Z" fill="#8962DF"/>
</g>
<g style="mix-blend-mode:multiply" opacity="0.41">
<path d="M303.962 342.596C285.657 368.223 261.946 414.103 261.946 414.103C261.946 414.103 270.166 427.832 295.759 434.052C289.911 410.205 303.962 342.596 303.962 342.596Z" fill="#CE605B"/>
</g>
<path d="M204.726 487.831C232.267 506.068 268.47 509.746 299.47 498.746C308.266 495.628 316.622 491.357 324.232 485.967C326.876 484.086 324.351 479.679 321.673 481.577C295.826 499.899 261.623 504.543 231.539 495.035C222.946 492.323 214.81 488.425 207.302 483.442C204.573 481.628 202.014 486.035 204.743 487.831H204.726Z" fill="#88B3FF"/>
<path d="M285.911 487.882C304.792 485.56 321.945 475.001 332.402 459.069C334.199 456.323 329.809 453.781 328.012 456.509C318.64 470.797 302.894 480.695 285.911 482.797C282.708 483.187 282.674 488.289 285.911 487.882Z" fill="#88B3FF"/>
</g>
</svg>
