<svg width="100" height="100" viewBox="0 0 100 100" fill="none" xmlns="http://www.w3.org/2000/svg">
<path d="M50.31 96.35C46.8 93.36 15.71 66.07 15.71 39.11C15.71 20.03 31.23 4.51001 50.31 4.51001C69.39 4.51001 84.91 20.03 84.91 39.11C84.91 66.07 53.81 93.36 50.31 96.35Z" fill="#E83534"/>
<path d="M50.31 5C69.11 5 84.41 20.3 84.41 39.1C84.41 65.15 55.04 91.6 50.31 95.69C45.58 91.6 16.21 65.15 16.21 39.1C16.21 20.3 31.5 5 50.31 5ZM50.31 4C30.92 4 15.21 19.72 15.21 39.1C15.21 68.1 50.31 97 50.31 97C50.31 97 85.41 68.1 85.41 39.1C85.41 19.72 69.69 4 50.31 4Z" fill="#BA121A"/>
<path d="M50.55 59.8C61.8497 59.8 71.01 50.6398 71.01 39.34C71.01 28.0403 61.8497 18.88 50.55 18.88C39.2502 18.88 30.09 28.0403 30.09 39.34C30.09 50.6398 39.2502 59.8 50.55 59.8Z" fill="white"/>
<path d="M50.55 48.64C55.6862 48.64 59.85 44.4762 59.85 39.34C59.85 34.2037 55.6862 30.04 50.55 30.04C45.4138 30.04 41.25 34.2037 41.25 39.34C41.25 44.4762 45.4138 48.64 50.55 48.64Z" fill="#BA121A"/>
</svg>
