<svg width="63" height="16" viewBox="0 0 63 16" fill="none" xmlns="http://www.w3.org/2000/svg">
    <rect width="63" height="16" rx="8" fill="#E62F87" fill-opacity="0.05"/>
    <rect x="0.5" y="0.5" width="62" height="15" rx="7.5" stroke="#E62F87" stroke-opacity="0.3"/>
    <path d="M6.35449 5.55469V4.22266H12.7246V5.55469H10.3398V12H8.73926V5.55469H6.35449ZM15.2812 8.62695V12H13.6914V4.22266H15.2383V7.1875H15.3027C15.5713 6.51074 16.1621 6.0918 17.043 6.0918C18.2568 6.0918 19.0625 6.9082 19.0625 8.2832V12H17.4727V8.5625C17.4727 7.84277 17.0859 7.41309 16.4199 7.41309C15.7539 7.41309 15.2812 7.85352 15.2812 8.62695ZM22.9297 12.1182C21.1465 12.1182 20.0508 10.958 20.0508 9.11035C20.0508 7.30566 21.1572 6.0918 22.8652 6.0918C24.4014 6.0918 25.6045 7.05859 25.6045 9.0459V9.49707H21.6191C21.6191 10.3779 22.1455 10.9258 22.9619 10.9258C23.499 10.9258 23.8857 10.6895 24.0469 10.335H25.5615C25.3359 11.4092 24.3691 12.1182 22.9297 12.1182ZM21.6191 8.49805H24.1006C24.1006 7.78906 23.6064 7.28418 22.8975 7.28418C22.167 7.28418 21.646 7.82666 21.6191 8.49805ZM36.293 8.11133C36.293 10.6465 34.7139 12.1074 32.6621 12.1074C30.5889 12.1074 29.0205 10.6357 29.0205 8.11133C29.0205 5.57617 30.5889 4.11523 32.6621 4.11523C34.7139 4.11523 36.293 5.57617 36.293 8.11133ZM34.6494 8.11133C34.6494 6.44629 33.8652 5.54395 32.6621 5.54395C31.459 5.54395 30.6641 6.44629 30.6641 8.11133C30.6641 9.77637 31.459 10.6787 32.6621 10.6787C33.8652 10.6787 34.6494 9.77637 34.6494 8.11133ZM37.4209 14.1914V6.16699H38.9893V7.14453H39.0537C39.2686 6.67188 39.7412 6.0918 40.7188 6.0918C42.0078 6.0918 43.082 7.09082 43.082 9.08887C43.082 11.0332 42.0508 12.0967 40.7188 12.0967C39.7627 12.0967 39.2793 11.5488 39.0537 11.0654H39.0107V14.1914H37.4209ZM38.9785 9.07812C38.9785 10.1309 39.4297 10.8291 40.2139 10.8291C41.0303 10.8291 41.46 10.1094 41.46 9.07812C41.46 8.05762 41.0303 7.35938 40.2139 7.35938C39.4189 7.35938 38.9785 8.02539 38.9785 9.07812ZM46.7559 12.1182C44.9727 12.1182 43.877 10.958 43.877 9.11035C43.877 7.30566 44.9834 6.0918 46.6914 6.0918C48.2275 6.0918 49.4307 7.05859 49.4307 9.0459V9.49707H45.4453C45.4453 10.3779 45.9717 10.9258 46.7881 10.9258C47.3252 10.9258 47.7119 10.6895 47.873 10.335H49.3877C49.1621 11.4092 48.1953 12.1182 46.7559 12.1182ZM45.4453 8.49805H47.9268C47.9268 7.78906 47.4326 7.28418 46.7236 7.28418C45.9932 7.28418 45.4722 7.82666 45.4453 8.49805ZM52.0195 8.62695V12H50.4297V6.16699H51.9443V7.1875H52.0088C52.2773 6.51074 52.9004 6.0918 53.7598 6.0918C54.9736 6.0918 55.7793 6.91895 55.7686 8.2832V12H54.1895V8.5625C54.1895 7.84277 53.792 7.41309 53.1367 7.41309C52.4707 7.41309 52.0195 7.85352 52.0195 8.62695Z" fill="#E62F87"/>
</svg>
