<svg width="24" height="24" viewBox="0 0 24 24" fill="none" xmlns="http://www.w3.org/2000/svg">
<path d="M10.054 2.65806C11.1752 1.70252 12.8244 1.70252 13.9457 2.65806L15.3674 3.86968L17.2295 4.01827C18.698 4.13546 19.8642 5.3016 19.9814 6.77012L20.13 8.63221L21.3416 10.054C22.2971 11.1752 22.2971 12.8244 21.3416 13.9457L20.13 15.3674L19.9814 17.2295C19.8642 18.698 18.698 19.8642 17.2295 19.9814L15.3674 20.13L13.9457 21.3416C12.8244 22.2971 11.1752 22.2971 10.054 21.3416L8.63221 20.13L6.77012 19.9814C5.3016 19.8642 4.13546 18.698 4.01827 17.2295L3.86968 15.3674L2.65806 13.9457C1.70252 12.8244 1.70252 11.1752 2.65806 10.054L3.86968 8.63221L4.01827 6.77012C4.13546 5.3016 5.3016 4.13546 6.77012 4.01827L8.63221 3.86968L10.054 2.65806Z" fill="#00BABB"/>
<path d="M13 8C13 8.55228 12.5523 9 12 9C11.4477 9 11 8.55228 11 8C11 7.44772 11.4477 7 12 7C12.5523 7 13 7.44772 13 8Z" fill="white"/>
<path d="M11 11C11 10.4477 11.4477 10 12 10C12.5523 10 13 10.4477 13 11V16C13 16.5523 12.5523 17 12 17C11.4477 17 11 16.5523 11 16V11Z" fill="white"/>
<path d="M11.6635 10H12V11.5H11.5219C11.1787 11.5 10.8402 11.5799 10.5332 11.7334L10.3009 11.8495C10.1627 11.9187 10 11.8181 10 11.6635C10 10.7448 10.7448 10 11.6635 10Z" fill="white"/>
<path d="M12.3365 17H12V15.5H12.4781C12.8213 15.5 13.1598 15.4201 13.4668 15.2666L13.6991 15.1505C13.8373 15.0813 14 15.1819 14 15.3365C14 16.2552 13.2552 17 12.3365 17Z" fill="white"/>
</svg>
