<svg width="32" height="32" viewBox="0 0 32 32" fill="none" xmlns="http://www.w3.org/2000/svg">
<path d="M0 10.6667C0 4.77563 4.77563 0 10.6667 0H21.3333C27.2244 0 32 4.77563 32 10.6667V21.3333C32 27.2244 27.2244 32 21.3333 32H10.6667C4.77563 32 0 27.2244 0 21.3333V10.6667Z" fill="#8FC31F"/>
<path fill-rule="evenodd" clip-rule="evenodd" d="M16 8H22.4012C23.2808 8 24 8.71323 24 9.5988V16C24 20.416 20.422 24 16 24H9.5988C8.71917 24 8 23.2868 8 22.4012V16C8 11.584 11.578 8 16 8ZM21.2062 17.6514H20.6982V13.5879H21.2062V17.6514ZM19.8269 14.462C19.9 14.3917 19.9366 14.3038 19.9366 14.2042C19.9366 14.1045 19.9 14.0166 19.8269 13.9463C19.7537 13.8759 19.6684 13.8408 19.5587 13.8408C19.449 13.8408 19.3575 13.8759 19.2844 13.9463C19.2112 14.0166 19.1747 14.1045 19.1747 14.2042C19.1747 14.3038 19.2112 14.3917 19.2844 14.462C19.3575 14.5324 19.4551 14.5675 19.5587 14.5675C19.6623 14.5675 19.7537 14.5324 19.8269 14.462ZM19.2478 17.6503H19.8512V14.9661H19.2478V17.6503ZM12.9281 17.6503H13.5872L12.2572 14.0948H11.598L10.2856 17.6503H10.88L11.1625 16.8672H12.6456L12.9281 17.6503ZM12.0747 15.2895L12.4926 16.4041L12.4867 16.4099H11.3155L11.7275 15.3066C11.804 15.1065 11.8628 14.9179 11.8982 14.7407H11.9099C11.9511 14.9293 12.0041 15.1123 12.0747 15.2895ZM16.0328 17.2417C16.263 16.9716 16.381 16.6017 16.381 16.126H16.3753C16.3753 15.7208 16.2911 15.4037 16.1282 15.1865C15.9654 14.9692 15.7295 14.8576 15.4262 14.8576C15.0331 14.8576 14.7523 15.0455 14.5951 15.4155H14.5838C14.6063 15.298 14.6175 15.1336 14.6175 14.9105H14.0952V18.9211H14.6512V17.6058C14.7579 17.6293 14.8871 17.641 15.0387 17.641C15.4712 17.641 15.8025 17.506 16.0328 17.2417ZM15.2914 15.345C15.6284 15.345 15.7969 15.621 15.7969 16.1847C15.7969 16.8542 15.5498 17.1889 15.0556 17.1889C14.8983 17.1889 14.7635 17.1712 14.6512 17.136V16.3081C14.6512 16.0556 14.7074 15.8383 14.8197 15.6562C14.9433 15.4507 15.1005 15.345 15.2914 15.345ZM18.6664 14.8683L18.6346 15.4463C18.5775 15.4344 18.5203 15.4285 18.4632 15.4285C17.9997 15.4285 17.7711 15.7979 17.7711 16.5427V17.651H17.1426V14.922H17.7394C17.7394 15.1246 17.7203 15.3272 17.6822 15.5238H17.6949C17.86 15.0411 18.1838 14.8207 18.66 14.8624L18.6664 14.8683Z" fill="white"/>
</svg>
