<svg width="32" height="32" viewBox="0 0 32 32" fill="none" xmlns="http://www.w3.org/2000/svg">
<path d="M0 10.6667C0 4.77563 4.77563 0 10.6667 0H21.3333C27.2244 0 32 4.77563 32 10.6667V21.3333C32 27.2244 27.2244 32 21.3333 32H10.6667C4.77563 32 0 27.2244 0 21.3333V10.6667Z" fill="#5F2882"/>
<path d="M18.7719 7.5H11.2035C9.8789 7.5 8.7998 8.58207 8.7998 9.91045V12.4925C9.0305 12.5299 9.25375 12.6044 9.46955 12.7313L12.1635 14.291C12.7812 14.6493 13.1458 15.2836 13.1458 16C13.1458 16.7164 12.7812 17.3507 12.1635 17.709L9.46955 19.2687C9.2612 19.3881 9.0305 19.4701 8.7998 19.5075V22.0896C8.7998 23.4179 9.8789 24.5 11.2035 24.5H18.7719C21.2203 24.5 23.1998 22.5149 23.1998 20.0597V19.9552C23.1998 18.2687 22.2844 16.7985 20.93 16C22.2844 15.2015 23.1998 13.7313 23.1998 12.0448V11.9403C23.1998 9.48505 21.2203 7.5 18.7719 7.5Z" fill="white"/>
<path d="M11.7062 17.1266L9.03652 18.7341C8.21793 19.2264 7.2002 18.611 7.2002 17.6265V14.4114C7.2002 13.4269 8.21793 12.8193 9.03652 13.3038L11.7062 14.9114C12.5248 15.4036 12.5248 16.6266 11.7062 17.1189" fill="white"/>
</svg>
