<svg width="32" height="32" viewBox="0 0 32 32" fill="none" xmlns="http://www.w3.org/2000/svg">
<path d="M0 10.6667C0 4.77563 4.77563 0 10.6667 0H21.3333C27.2244 0 32 4.77563 32 10.6667V21.3333C32 27.2244 27.2244 32 21.3333 32H10.6667C4.77563 32 0 27.2244 0 21.3333V10.6667Z" fill="#5F2882"/>
<path d="M18.7096 21.6316C18.7095 21.1607 18.8003 20.6945 18.9768 20.2595C19.1532 19.8244 19.4119 19.4291 19.738 19.0962C20.0642 18.7633 20.4513 18.4992 20.8774 18.3191C21.3035 18.139 21.7602 18.0463 22.2214 18.0464H22.2461C21.8603 17.1887 21.2265 16.4724 20.4299 15.9936C21.761 15.1987 22.6565 13.7275 22.6565 12.0394V11.9384C22.6565 9.4876 20.7098 7.5 18.3095 7.5H10.8836C10.5735 7.49994 10.2665 7.56225 9.97998 7.68338C9.69348 7.80452 9.43318 7.98209 9.21388 8.20597C8.99463 8.42984 8.82071 8.69563 8.70207 8.98814C8.58344 9.28065 8.5224 9.5942 8.52246 9.9108V12.3794C8.77218 12.419 9.01243 12.5059 9.23078 12.6358L11.875 14.1934C12.1862 14.3749 12.4445 14.6376 12.6236 14.9545C12.8027 15.2715 12.8961 15.6313 12.8942 15.9972C12.8942 16.7489 12.5117 17.4248 11.875 17.8006L9.23078 19.3582C9.01248 19.4882 8.77221 19.5754 8.52246 19.6151V22.0833C8.5224 22.3998 8.58344 22.7133 8.70207 23.0059C8.82071 23.2984 8.99463 23.5642 9.21388 23.788C9.43318 24.0119 9.69348 24.1895 9.97998 24.3106C10.2665 24.4317 10.5735 24.4941 10.8836 24.494H18.3104C18.8176 24.4937 19.3208 24.402 19.7968 24.2229C19.4537 23.8892 19.1808 23.4877 18.9946 23.0429C18.8084 22.598 18.7128 22.1191 18.7136 21.6353L18.7096 21.6316Z" fill="white"/>
<path d="M11.464 17.0665L8.81935 18.6241C8.0089 19.101 7 18.5083 7 17.5545V14.4347C7 13.4809 8.0089 12.8882 8.81935 13.3619L11.4636 14.9195C12.2709 15.3964 12.2709 16.5855 11.4636 17.0628M22.2213 18.7941C21.4845 18.7947 20.778 19.0938 20.257 19.6257C19.736 20.1577 19.4431 20.879 19.4425 21.6312C19.4431 22.3835 19.736 23.1048 20.257 23.6367C20.778 24.1687 21.4845 24.4678 22.2213 24.4684C22.9581 24.4678 23.6645 24.1687 24.1854 23.6367C24.7064 23.1048 24.9994 22.3835 25 21.6312C24.9994 20.879 24.7064 20.1577 24.1854 19.6257C23.6645 19.0938 22.9581 18.7947 22.2213 18.7941ZM23.7684 21.7723C23.7544 21.7865 23.7379 21.7977 23.7197 21.8051C23.7014 21.8125 23.6818 21.8161 23.6621 21.8155H21.3536C21.3577 21.9349 21.3788 22.0503 21.4212 22.1587C21.4614 22.269 21.5228 22.3701 21.6019 22.4558C21.681 22.5415 21.776 22.6101 21.8815 22.6577C21.9949 22.7082 22.1222 22.7335 22.2708 22.7335C22.4832 22.7335 22.66 22.694 22.7945 22.614C22.9296 22.535 23.0317 22.4518 23.092 22.3613C23.1487 22.2745 23.2126 22.2492 23.29 22.2892L23.5771 22.4119C23.6158 22.4302 23.6446 22.4555 23.6581 22.4913C23.6725 22.524 23.6653 22.5603 23.6446 22.5998C23.5054 22.818 23.3126 22.995 23.0853 23.113C22.9647 23.1746 22.8373 23.2214 22.7027 23.2577C22.5677 23.294 22.4265 23.3083 22.278 23.3083C22.0125 23.3083 21.7785 23.2651 21.5732 23.1782C21.3802 23.0993 21.2063 22.9787 21.0634 22.8246C20.9205 22.6705 20.8119 22.4866 20.7453 22.2855C20.6734 22.074 20.6374 21.8515 20.639 21.6276C20.639 21.3781 20.6778 21.1543 20.752 20.9448C20.8267 20.7385 20.9365 20.5616 21.0742 20.4132C21.2156 20.264 21.3872 20.148 21.5769 20.0732C21.7717 19.9942 21.9909 19.9505 22.2352 19.9505C22.4796 19.9505 22.7131 19.9942 22.9116 20.0842C23.1096 20.1747 23.2724 20.2974 23.407 20.4532C23.5415 20.6085 23.6442 20.789 23.7117 20.9953C23.7792 21.2012 23.8143 21.4217 23.8143 21.6602C23.8144 21.6797 23.8107 21.699 23.8034 21.717C23.796 21.735 23.7852 21.7513 23.7715 21.7649L23.7684 21.7723Z" fill="white"/>
<path d="M22.2145 20.5186C22.0867 20.5186 21.9702 20.5402 21.8707 20.5802C21.7737 20.6173 21.6856 20.6752 21.6124 20.7502C21.5418 20.8223 21.4851 20.9018 21.4423 20.9918C21.4 21.0823 21.3753 21.1765 21.3613 21.2739L23.0817 21.2666C23.0658 21.0608 22.9747 20.8685 22.8265 20.7281C22.678 20.587 22.476 20.5186 22.2145 20.5186Z" fill="white"/>
</svg>
