<svg width="32" height="32" viewBox="0 0 32 32" fill="none" xmlns="http://www.w3.org/2000/svg">
<g clip-path="url(#clip0_2802_85151)">
<g clip-path="url(#clip1_2802_85151)">
<path d="M0 10.6667C0 4.77563 4.77563 0 10.6667 0H21.3333C27.2244 0 32 4.77563 32 10.6667V21.3333C32 27.2244 27.2244 32 21.3333 32H10.6667C4.77563 32 0 27.2244 0 21.3333V10.6667Z" fill="#EA0029"/>
<path fill-rule="evenodd" clip-rule="evenodd" d="M8 8H24V24H8V8ZM10.452 17.6749C9.82513 17.0199 9.77783 16.2279 9.77783 15.8766V15.8707C9.77783 15.5193 9.82513 14.7274 10.452 14.0723C11.1025 13.4054 11.8654 13.334 12.3089 13.334C12.7525 13.334 13.1191 13.4054 13.4385 13.5424C13.9517 13.7714 14.2118 14.093 14.3437 14.256L14.3492 14.2629L13.4858 14.9298L13.4625 14.9101C13.1797 14.6715 12.8789 14.4177 12.3149 14.4177C11.6943 14.4177 11.1143 14.9897 11.1027 15.8678C11.1143 16.7517 11.6943 17.3236 12.3149 17.3236C12.8789 17.3236 13.1797 17.0699 13.4625 16.8312L13.4858 16.8115L14.3492 17.4784L14.3438 17.4852C14.2119 17.6482 13.9518 17.9699 13.4385 18.199C13.1191 18.3359 12.7407 18.4133 12.3089 18.4133C11.8772 18.4133 11.1025 18.3478 10.452 17.6749ZM20.6982 13.5879H21.9681V18.4133H20.6982V13.5879ZM18.1743 16.7885C17.9526 16.9671 17.4969 17.122 17.0104 17.2351C15.9851 17.4639 16.0776 17.08 16.1983 16.5788L16.2038 16.5562C16.3269 16.0322 16.29 15.7284 16.1853 15.3652C16.0437 14.8589 16.0129 14.3289 16.5178 14.3706C17.4846 14.454 19.2395 15.913 18.1681 16.7885H18.1743ZM19.9169 16.1691C19.6398 14.0669 14.2025 11.8038 14.923 14.7279C14.9538 14.853 14.9969 14.9781 15.0585 15.115C15.1755 15.383 15.2678 15.6093 15.2678 16.0679C15.2678 16.2406 15.237 16.455 15.1878 16.6515C14.8553 17.8843 14.9599 18.6227 16.6964 18.3607C18.4883 18.0927 20.0585 17.1518 19.9292 16.1691H19.9169Z" fill="white"/>
</g>
</g>
<defs>
<clipPath id="clip0_2802_85151">
<rect width="32" height="32" fill="white"/>
</clipPath>
<clipPath id="clip1_2802_85151">
<rect width="32" height="32" fill="white"/>
</clipPath>
</defs>
</svg>
