<svg width="32" height="32" viewBox="0 0 32 32" fill="none" xmlns="http://www.w3.org/2000/svg">
<g clip-path="url(#clip0_2802_85194)">
<g clip-path="url(#clip1_2802_85194)">
<path d="M0 10.6667C0 4.77563 4.77563 0 10.6667 0H21.3333C27.2244 0 32 4.77563 32 10.6667V21.3333C32 27.2244 27.2244 32 21.3333 32H10.6667C4.77563 32 0 27.2244 0 21.3333V10.6667Z" fill="#F08300"/>
<path d="M7.60959 19.3179H8.31535C8.31316 19.2993 8.31097 19.2785 8.30988 19.2555C8.30878 19.2325 8.30769 19.2085 8.30769 19.1855C8.30551 19.1592 8.30222 19.134 8.30003 19.1111C8.29784 19.0881 8.29456 19.064 8.29238 19.041H8.9292C8.92155 19.1089 8.91717 19.1756 8.91608 19.2402C8.91498 19.3058 8.91389 19.3704 8.91389 19.4361V20.6375C8.91389 20.7075 8.91389 20.7852 8.91608 20.8706C8.91717 20.9548 8.92155 21.0369 8.9292 21.1146H8.29238C8.30003 21.0489 8.30551 20.98 8.30769 20.9056C8.30988 20.8312 8.31207 20.7666 8.31207 20.7119H7.626C7.54174 20.7951 7.44217 20.8596 7.32838 20.9056C7.21458 20.9515 7.08874 20.9745 6.95087 20.9745C6.813 20.9745 6.67841 20.9504 6.56133 20.9023C6.44535 20.8541 6.34468 20.7885 6.26042 20.7042C6.17836 20.6178 6.11489 20.5182 6.06893 20.4033C6.02298 20.2884 6 20.1637 6 20.028C6 19.8923 6.02298 19.7698 6.06893 19.6527C6.11489 19.5356 6.17836 19.4339 6.26042 19.3474C6.34468 19.261 6.44535 19.1931 6.56133 19.1417C6.67732 19.0914 6.80753 19.0651 6.95087 19.0651C7.08327 19.0651 7.20582 19.0881 7.31743 19.134C7.42904 19.18 7.52643 19.2413 7.61068 19.3201L7.60959 19.3179ZM6.38954 21.8608C6.38954 21.6496 6.49896 21.4724 6.7178 21.3312C6.93664 21.189 7.25616 21.1179 7.67852 21.1179C7.88095 21.1179 8.0615 21.1365 8.22344 21.1748C8.38429 21.2131 8.51997 21.2656 8.62939 21.3334C8.74209 21.3991 8.82745 21.4768 8.88653 21.5687C8.94562 21.6595 8.97516 21.758 8.97516 21.8619C8.97516 22.0808 8.86027 22.2591 8.63158 22.3959C8.40289 22.5327 8.08557 22.6016 7.67852 22.6016C7.27147 22.6016 6.93664 22.5327 6.7178 22.3959C6.49896 22.2591 6.38954 22.0808 6.38954 21.8619V21.8608ZM6.59307 20.0258C6.59307 20.1429 6.62589 20.2425 6.69045 20.3235C6.7561 20.4044 6.84145 20.4449 6.94977 20.4449C7.0581 20.4449 7.13908 20.4044 7.20473 20.3235C7.27038 20.2425 7.30211 20.144 7.30211 20.0258C7.30211 19.9077 7.26929 19.8015 7.20473 19.7205C7.13908 19.6396 7.05482 19.5991 6.94977 19.5991C6.84473 19.5991 6.7561 19.6396 6.69045 19.7205C6.62479 19.8015 6.59307 19.9033 6.59307 20.0258ZM8.28362 21.8608C8.28362 21.782 8.23001 21.7219 8.12496 21.6792C8.01882 21.6365 7.87001 21.6146 7.67852 21.6146C7.48703 21.6146 7.33822 21.6365 7.23208 21.6792C7.12594 21.7219 7.07342 21.7831 7.07342 21.8608C7.07342 21.9385 7.12594 21.9998 7.23208 22.0425C7.33822 22.0851 7.48703 22.107 7.67852 22.107C7.87001 22.107 8.01882 22.0851 8.12496 22.0425C8.23109 21.9998 8.28362 21.9385 8.28362 21.8608ZM7.88532 20.1856H8.31098V19.8409H7.88205C7.88752 19.8726 7.8908 19.9033 7.89408 19.9328C7.89627 19.9624 7.89845 19.993 7.89845 20.0247C7.89845 20.0532 7.89736 20.0816 7.89408 20.109C7.89189 20.1363 7.88861 20.1615 7.88642 20.1856H7.88532Z" fill="white"/>
<path d="M11.7118 19.6222V20.1977H11.9V19.5642C11.9 19.4777 11.8989 19.3913 11.8956 19.3037C11.8934 19.2162 11.8879 19.1287 11.8803 19.04H12.4941C12.4865 19.1287 12.4821 19.2173 12.481 19.3037C12.4799 19.3913 12.4788 19.4777 12.4788 19.5642V22.025C12.4788 22.1137 12.4788 22.2012 12.481 22.2887C12.4821 22.3763 12.4865 22.4627 12.4941 22.5492H11.8803C11.8879 22.4627 11.8934 22.3763 11.8956 22.2887C11.8978 22.2012 11.9 22.1137 11.9 22.025V20.8433H11.7118V22.1323C11.7118 22.2198 11.7161 22.3063 11.7238 22.3927H11.1253C11.1307 22.3063 11.134 22.2198 11.1373 22.1323C11.1395 22.0447 11.1417 21.9572 11.1417 21.8686V21.4265C11.0804 21.4867 11.0191 21.5523 10.9579 21.6246C10.8966 21.6968 10.843 21.7591 10.797 21.8139C10.692 21.7515 10.5902 21.665 10.4917 21.5556C10.3932 21.4462 10.3188 21.3357 10.2674 21.223C10.2083 21.351 10.1284 21.479 10.0256 21.6081C9.9238 21.7373 9.81875 21.8412 9.7115 21.9189C9.6732 21.8872 9.63495 21.8543 9.59665 21.8193C9.55835 21.7843 9.52005 21.7482 9.48175 21.7121C9.44345 21.6782 9.40405 21.6453 9.36465 21.6125C9.32525 21.5797 9.28695 21.548 9.25195 21.5162C9.44345 21.3915 9.60755 21.2153 9.74215 20.9877C9.87785 20.7612 9.9457 20.4789 9.9457 20.143V19.7907H9.76185C9.71045 19.7907 9.66445 19.7907 9.624 19.7928C9.5835 19.7939 9.53865 19.7983 9.4894 19.806V19.2348C9.53755 19.2425 9.5824 19.2468 9.624 19.249C9.66445 19.2501 9.71045 19.2512 9.76185 19.2512H10.7357C10.7839 19.2512 10.8287 19.2512 10.8703 19.249C10.9108 19.2479 10.9568 19.2436 11.0082 19.2348V19.806C10.9568 19.7983 10.9108 19.7939 10.8703 19.7928C10.8298 19.7918 10.785 19.7907 10.7357 19.7907H10.5442V20.0609C10.5442 20.3848 10.5979 20.6496 10.7051 20.8553C10.8123 21.061 10.9579 21.223 11.1417 21.3401V19.6222C11.1417 19.5357 11.1406 19.4493 11.1373 19.3617C11.1351 19.2742 11.1307 19.1867 11.1253 19.098H11.7238C11.7161 19.1867 11.7118 19.2753 11.7118 19.3617V19.6222Z" fill="white"/>
<path d="M13.9016 21.7155H14.162V20.9682C14.162 20.9135 14.1609 20.85 14.1576 20.7767C14.1554 20.7034 14.1499 20.6399 14.1423 20.5852H14.7977C14.7879 20.6454 14.7813 20.7121 14.7802 20.7844C14.7791 20.8577 14.778 20.919 14.778 20.9682V21.7155H15.3919C15.4914 21.7155 15.5888 21.7155 15.6851 21.7133C15.7814 21.7123 15.8788 21.7079 15.9784 21.6991V22.278C15.8788 22.2703 15.7814 22.2659 15.6851 22.2648C15.5888 22.2637 15.4914 22.2626 15.3919 22.2626H13.3216C13.2396 22.2626 13.1476 22.2626 13.0459 22.2648C12.9441 22.2659 12.8533 22.2703 12.7734 22.278V21.6991C12.8446 21.7068 12.9233 21.7112 13.0087 21.7133C13.094 21.7144 13.1706 21.7155 13.2363 21.7155H13.2866V20.9682C13.2866 20.9135 13.2855 20.85 13.2822 20.7767C13.28 20.7034 13.2746 20.6399 13.2669 20.5852H13.9191C13.9092 20.6399 13.9027 20.7034 13.9016 20.7745C13.9005 20.8467 13.8994 20.9113 13.8994 20.9682V21.7155H13.9016ZM15.0395 19.7678H13.5131C13.431 19.7678 13.3577 19.7678 13.2932 19.77C13.2275 19.7711 13.1553 19.7755 13.0765 19.7843V19.1934C13.1553 19.201 13.2275 19.2054 13.2932 19.2076C13.3588 19.2087 13.4321 19.2098 13.5131 19.2098H15.6797C15.6797 19.7109 15.6665 20.1289 15.6414 20.4659C15.6162 20.803 15.5834 21.094 15.5451 21.3424H14.9082C14.9257 21.2308 14.9432 21.1072 14.9586 20.9748C14.9739 20.8413 14.9881 20.7078 15.0012 20.5721C15.0111 20.4342 15.0209 20.2974 15.0286 20.1618C15.0363 20.0261 15.0406 19.8959 15.0406 19.77L15.0395 19.7678Z" fill="white"/>
<path d="M16.8571 21.4295V21.1089H16.7652C16.6656 21.1089 16.5682 21.1089 16.4719 21.1111C16.3757 21.1122 16.2783 21.1166 16.1787 21.1253V20.5695C16.2783 20.5771 16.3757 20.5815 16.4719 20.5837C16.5682 20.5848 16.6656 20.5859 16.7652 20.5859H18.8125C18.912 20.5859 19.0094 20.5859 19.1057 20.5837C19.202 20.5826 19.2994 20.5782 19.399 20.5695V21.1253C19.2994 21.1177 19.202 21.1133 19.1057 21.1111C19.0094 21.11 18.912 21.1089 18.8125 21.1089H18.7129V21.4295H19.0576C19.0499 21.4821 19.0455 21.539 19.0444 21.6002C19.0433 21.6615 19.0423 21.7173 19.0423 21.7666V22.2163C19.0423 22.2765 19.0433 22.3377 19.0466 22.4001C19.0488 22.4625 19.0543 22.5227 19.0619 22.5796H18.3835C18.3912 22.5248 18.3956 22.4647 18.3967 22.4001C18.3978 22.3344 18.3989 22.2732 18.3989 22.2163V21.9504H16.9107C16.844 21.9504 16.775 21.9504 16.7017 21.9526C16.6284 21.9537 16.5584 21.958 16.4895 21.9668V21.4186C16.5431 21.4263 16.6011 21.4306 16.6634 21.4306H16.8571V21.4295ZM17.785 20.4984C17.5826 20.4984 17.3998 20.4819 17.2368 20.4469C17.0738 20.413 16.9326 20.3638 16.8155 20.2981C16.7006 20.2325 16.612 20.1559 16.5485 20.0651C16.4862 19.9753 16.4544 19.8758 16.4544 19.7652C16.4544 19.6547 16.4862 19.5562 16.5485 19.4676C16.6109 19.379 16.6995 19.3024 16.8155 19.2367C16.9326 19.1711 17.0738 19.1218 17.2368 19.0857C17.3998 19.0507 17.5837 19.0332 17.785 19.0332C18.1942 19.0332 18.517 19.1 18.7545 19.2345C18.9919 19.3691 19.1112 19.5453 19.1112 19.7641C19.1112 19.983 18.9919 20.1602 18.7545 20.2937C18.517 20.4283 18.1931 20.4951 17.785 20.4951V20.4984ZM17.1755 19.7674C17.1755 19.8375 17.2291 19.8944 17.3364 19.9381C17.4436 19.9808 17.5935 20.0027 17.785 20.0027C17.9765 20.0027 18.1253 19.9808 18.2314 19.9381C18.3376 19.8955 18.3901 19.8386 18.3901 19.7674C18.3901 19.6963 18.3365 19.6405 18.2314 19.5989C18.1253 19.5573 17.9765 19.5365 17.785 19.5365C17.5935 19.5365 17.4436 19.5573 17.3364 19.5989C17.2291 19.6405 17.1755 19.6963 17.1755 19.7674ZM18.0958 21.1089H17.4742V21.4295H18.0958V21.1089Z" fill="white"/>
<path d="M21.3845 21.0195V20.6715C21.3232 20.7339 21.2576 20.8028 21.1886 20.8772C21.1197 20.9516 21.0595 21.0216 21.0081 21.0862C20.9009 21.0315 20.7936 20.9527 20.6875 20.8499C20.5813 20.747 20.5015 20.642 20.4479 20.5347C20.4194 20.5949 20.3844 20.6573 20.3406 20.7229C20.2968 20.7886 20.2498 20.851 20.1984 20.9111C20.1469 20.9735 20.0933 21.0315 20.0353 21.0851C19.9773 21.1387 19.9204 21.1836 19.8646 21.2197C19.8088 21.165 19.741 21.1015 19.6611 21.0282C19.5823 20.9549 19.5003 20.8871 19.416 20.8247C19.6359 20.6868 19.8066 20.5085 19.9303 20.2907C20.0528 20.073 20.1141 19.8388 20.1141 19.5882V19.4471C20.1141 19.4033 20.113 19.3497 20.1097 19.2862C20.1076 19.2239 20.1021 19.1691 20.0944 19.1221H20.7466C20.7389 19.1691 20.7334 19.2228 20.7313 19.2829C20.7291 19.3431 20.7269 19.3967 20.7269 19.4438V19.5882C20.7269 19.8071 20.7871 20.0106 20.9085 20.1988C21.03 20.387 21.1875 20.5271 21.3823 20.6212V20.1594H21.2521C21.2083 20.1594 21.1635 20.1594 21.1164 20.1616C21.0694 20.1627 21.0245 20.1671 20.984 20.1747V19.5806C21.0278 19.5882 21.0726 19.5926 21.1197 19.5948C21.1667 19.5959 21.2138 19.597 21.2598 19.597H21.3823V19.4799C21.3823 19.4175 21.3823 19.3519 21.3801 19.2819C21.379 19.2129 21.3746 19.1505 21.367 19.0958H21.9688C21.9611 19.1746 21.9568 19.2512 21.9568 19.3267V21.2514C21.9568 21.3269 21.9611 21.4024 21.9688 21.4779H21.367C21.3746 21.4024 21.379 21.3269 21.3801 21.2514C21.3812 21.1759 21.3823 21.0993 21.3823 21.0206L21.3845 21.0195ZM22.1132 22.5021H20.1885V21.7788C20.1885 21.7318 20.1885 21.6694 20.1863 21.5906C20.1852 21.5119 20.1809 21.4495 20.1732 21.4024H20.8254C20.8177 21.4495 20.8133 21.5119 20.8122 21.5884C20.8111 21.665 20.81 21.7263 20.81 21.7701V21.9463H22.1132C22.2106 21.9463 22.3113 21.9463 22.4163 21.9441C22.5214 21.943 22.6242 21.9386 22.7271 21.9298V22.5163C22.6275 22.5087 22.5247 22.5043 22.4207 22.5021C22.3157 22.501 22.2139 22.4999 22.1143 22.4999L22.1132 22.5021ZM22.6811 19.5018V21.1103C22.6811 21.1891 22.6811 21.2657 22.6833 21.3433C22.6844 21.4199 22.6888 21.4965 22.6965 21.572H22.0903C22.0979 21.4965 22.1034 21.4199 22.1056 21.3433C22.1078 21.2668 22.11 21.1891 22.11 21.1103V19.5018C22.11 19.423 22.11 19.3464 22.1078 19.2709C22.1067 19.1954 22.1023 19.1188 22.0946 19.04H22.6965C22.6888 19.1188 22.6844 19.1954 22.6833 19.2709C22.6822 19.3464 22.6811 19.423 22.6811 19.5018Z" fill="white"/>
<path d="M23.8267 19.7753V20.2054H24.805V20.7568H23.8267V21.2613H23.9799C24.1791 21.2613 24.3848 21.2547 24.5949 21.2416C24.8061 21.2285 24.9921 21.2066 25.1529 21.1748V21.7066C25.0785 21.7274 24.9932 21.7449 24.8958 21.757C24.7984 21.7701 24.6977 21.7799 24.5927 21.7887C24.4855 21.7964 24.3771 21.8018 24.2688 21.804C24.1605 21.8062 24.0576 21.8084 23.9602 21.8084H23.2238V19.6998C23.2238 19.6342 23.2227 19.5554 23.2195 19.4613C23.2173 19.3672 23.2118 19.2862 23.2041 19.2184H24.4461C24.5073 19.2184 24.5741 19.2184 24.6452 19.2162C24.7163 19.2151 24.7842 19.2107 24.8487 19.2031V19.7896C24.782 19.7841 24.7142 19.7808 24.6441 19.7775C24.5741 19.7753 24.5084 19.7732 24.4472 19.7732H23.8257L23.8267 19.7753ZM25.3871 22.025V20.7765H25.2985C25.247 20.7765 25.1869 20.7765 25.1168 20.7787C25.0468 20.7798 24.9866 20.7842 24.9385 20.7919V20.178C24.9921 20.1857 25.0534 20.19 25.1223 20.1922C25.1912 20.1933 25.2525 20.1944 25.3061 20.1944H25.3871V19.5642C25.3871 19.4777 25.386 19.3913 25.3827 19.3037C25.3805 19.2162 25.3751 19.1287 25.3674 19.04H25.9999C25.9922 19.1287 25.9878 19.2173 25.9867 19.3037C25.9856 19.3913 25.9845 19.4777 25.9845 19.5642V22.025C25.9845 22.1137 25.9845 22.2012 25.9867 22.2887C25.9878 22.3763 25.9922 22.4627 25.9999 22.5492H25.3674C25.3751 22.4627 25.3805 22.3763 25.3827 22.2887C25.3849 22.2012 25.3871 22.1137 25.3871 22.025Z" fill="white"/>
<path d="M17.9384 11.1797H19.5421V17.5709H17.9308V13.6542H16.1953L17.9384 11.1797Z" fill="white"/>
<path d="M24.2801 13.6674C25.3087 13.7277 25.9877 14.4387 25.9928 15.426V15.6044C25.9852 16.7801 25.3848 17.5087 24.2928 17.569H20.2012L20.8371 16.1872H23.8925C24.1991 16.1872 24.3891 15.9234 24.3891 15.5667C24.3891 15.2527 24.1509 15.009 23.8596 15.009H21.9138C20.8726 15.009 20.2012 14.2578 20.2012 13.2554V13.077C20.2088 11.949 20.8878 11.1777 21.9012 11.1777H26.0004L25.3493 12.5545H22.2761C21.9822 12.5545 21.7998 12.7957 21.8049 13.1423C21.8049 13.4539 21.9974 13.6674 22.3319 13.6674H24.2801Z" fill="white"/>
<path d="M11.8068 11.1803L11.1557 12.562H9.0605C8.16362 12.567 7.70505 13.1624 7.68732 14.3558C7.69492 15.5793 8.10028 16.1897 8.89834 16.1847H11.8043V17.574H8.64246C6.95767 17.476 6 16.2927 6 14.3708C6 12.4565 7.04127 11.2883 8.90087 11.1777H11.8068V11.1803Z" fill="white"/>
<path d="M16.8357 15.0184H15.237L14.1299 13.4985V17.5709H12.5186V11.1797H14.1223L16.8357 15.0184Z" fill="white"/>
<path d="M14.0032 10.0691C14.0032 10.4761 13.6713 10.8052 13.2609 10.8052C12.8505 10.8052 12.5186 10.4761 12.5186 10.0691C12.5186 9.66466 12.8505 9.33301 13.2609 9.33301C13.6713 9.33301 14.0032 9.66466 14.0032 10.0691Z" fill="white"/>
<path d="M19.5423 10.0691C19.5423 10.4761 19.2104 10.8052 18.7999 10.8052C18.3895 10.8052 18.0576 10.4761 18.0576 10.0691C18.0576 9.66211 18.3895 9.33301 18.7999 9.33301C19.2078 9.33301 19.5423 9.66466 19.5423 10.0691Z" fill="white"/>
</g>
</g>
<defs>
<clipPath id="clip0_2802_85194">
<rect width="32" height="32" fill="white"/>
</clipPath>
<clipPath id="clip1_2802_85194">
<rect width="32" height="32" fill="white"/>
</clipPath>
</defs>
</svg>
