<svg width="32" height="32" viewBox="0 0 32 32" fill="none" xmlns="http://www.w3.org/2000/svg">
<g clip-path="url(#clip0_2802_85181)">
<g clip-path="url(#clip1_2802_85181)">
<path d="M0 10.6667C0 4.77563 4.77563 0 10.6667 0H21.3333C27.2244 0 32 4.77563 32 10.6667V21.3333C32 27.2244 27.2244 32 21.3333 32H10.6667C4.77563 32 0 27.2244 0 21.3333V10.6667Z" fill="#3DBCD2"/>
<path d="M12.547 19.3118H13.2538C13.2516 19.2932 13.2494 19.2724 13.2484 19.2495C13.2473 19.2255 13.2462 19.2025 13.2462 19.1785C13.244 19.1523 13.2407 19.1272 13.2385 19.1042C13.2363 19.0802 13.2331 19.0572 13.2309 19.0332H13.8688C13.8612 19.1009 13.8568 19.1676 13.8557 19.2331C13.8546 19.2987 13.8535 19.3642 13.8535 19.4287V20.6325C13.8535 20.7035 13.8535 20.781 13.8557 20.8662C13.8568 20.9515 13.8612 21.0334 13.8688 21.1109H13.2309C13.2385 21.0454 13.244 20.9755 13.2462 20.9012C13.2484 20.8269 13.2505 20.7625 13.2505 20.7068H12.5623C12.4782 20.7909 12.3788 20.8553 12.2641 20.9012C12.1505 20.9471 12.0238 20.97 11.8861 20.97C11.7485 20.97 11.613 20.946 11.4962 20.8979C11.3793 20.8499 11.2788 20.7832 11.1947 20.7002C11.1127 20.6139 11.0483 20.5134 11.0024 20.3987C10.9565 20.284 10.9336 20.1584 10.9336 20.0218C10.9336 19.8853 10.9565 19.7629 11.0024 19.645C11.0483 19.527 11.1127 19.4254 11.1947 19.3391C11.2788 19.2528 11.3793 19.184 11.4962 19.1337C11.613 19.0824 11.743 19.0572 11.8861 19.0572C12.0194 19.0572 12.1418 19.0802 12.2532 19.1261C12.3646 19.1719 12.4629 19.2342 12.547 19.3129V19.3118ZM11.3247 21.8603C11.3247 21.6484 11.4339 21.4714 11.6535 21.3294C11.873 21.1874 12.1931 21.1153 12.6159 21.1153C12.818 21.1153 13.0004 21.1339 13.1621 21.1721C13.3237 21.2104 13.4592 21.2628 13.5695 21.3305C13.682 21.3961 13.7683 21.4747 13.8273 21.5654C13.8863 21.6571 13.9158 21.7555 13.9158 21.8592C13.9158 22.0788 13.8011 22.2569 13.5717 22.3945C13.3423 22.5321 13.0244 22.5999 12.617 22.5999C12.2095 22.5999 11.873 22.5311 11.6546 22.3945C11.4361 22.258 11.3257 22.0788 11.3257 21.8592L11.3247 21.8603ZM11.5278 20.0218C11.5278 20.1398 11.5606 20.2392 11.6262 20.3201C11.6917 20.4009 11.778 20.4413 11.885 20.4413C11.9921 20.4413 12.0751 20.4009 12.1407 20.3201C12.2062 20.2392 12.239 20.1398 12.239 20.0218C12.239 19.9038 12.2062 19.7968 12.1407 19.716C12.0751 19.6351 11.9899 19.5947 11.885 19.5947C11.7802 19.5947 11.6906 19.6351 11.6262 19.716C11.5606 19.7968 11.5278 19.8995 11.5278 20.0218ZM13.2232 21.8603C13.2232 21.7817 13.1697 21.7216 13.0637 21.6779C12.9578 21.6353 12.8081 21.6134 12.6159 21.6134C12.4236 21.6134 12.2739 21.6353 12.168 21.6779C12.062 21.7205 12.0085 21.7817 12.0085 21.8603C12.0085 21.939 12.062 21.9991 12.168 22.0428C12.2739 22.0854 12.4236 22.1072 12.6159 22.1072C12.8081 22.1072 12.9567 22.0854 13.0637 22.0428C13.1697 22.0002 13.2232 21.939 13.2232 21.8603ZM12.8234 20.1824H13.2495V19.8372H12.819C12.8245 19.8689 12.8278 19.8995 12.8311 19.929C12.8332 19.9596 12.8354 19.9901 12.8354 20.0207C12.8354 20.0491 12.8343 20.0775 12.8311 20.1048C12.8289 20.1322 12.8256 20.1573 12.8234 20.1813V20.1824Z" fill="white"/>
<path d="M16.6572 19.6175V20.1943H16.8451V19.5596C16.8451 19.4733 16.844 19.3859 16.8407 19.2986C16.8386 19.2112 16.8331 19.1227 16.8254 19.0342H17.4405C17.4328 19.1227 17.4284 19.2112 17.4274 19.2986C17.4263 19.3859 17.4252 19.4733 17.4252 19.5596V22.0263C17.4252 22.1147 17.4252 22.2032 17.4274 22.2906C17.4284 22.378 17.4328 22.4654 17.4405 22.5517H16.8254C16.8331 22.4654 16.8386 22.378 16.8407 22.2906C16.8429 22.2032 16.8451 22.1147 16.8451 22.0263V20.8421H16.6572V22.1344C16.6572 22.2218 16.6616 22.3092 16.6692 22.3955H16.0695C16.075 22.3092 16.0782 22.2218 16.0815 22.1344C16.0837 22.047 16.0859 21.9585 16.0859 21.8701V21.4265C16.0247 21.4866 15.9625 21.5522 15.9013 21.6243C15.8401 21.6964 15.7855 21.7597 15.7396 21.8143C15.6347 21.7521 15.5331 21.6658 15.4337 21.5554C15.3354 21.4462 15.26 21.3348 15.2087 21.2223C15.1497 21.3501 15.0689 21.479 14.9662 21.609C14.8635 21.7379 14.7586 21.8427 14.6516 21.9203C14.6133 21.8886 14.5751 21.8559 14.5358 21.8198C14.4976 21.7848 14.4593 21.7488 14.42 21.7117C14.3818 21.6778 14.3424 21.6439 14.3031 21.6112C14.2638 21.5784 14.2255 21.5467 14.1895 21.515C14.3818 21.3894 14.5456 21.2135 14.6811 20.9852C14.8165 20.758 14.8843 20.4751 14.8843 20.1386V19.7858H14.6996C14.6483 19.7858 14.6024 19.7858 14.5609 19.788C14.5194 19.789 14.4746 19.7934 14.4265 19.8022V19.2297C14.4757 19.2374 14.5205 19.2418 14.5609 19.2439C14.6013 19.245 14.6483 19.2461 14.6996 19.2461H15.6752C15.7243 19.2461 15.7691 19.2461 15.8095 19.2439C15.8499 19.2428 15.8969 19.2385 15.9483 19.2297V19.8022C15.8969 19.7945 15.851 19.7901 15.8095 19.788C15.768 19.7869 15.7232 19.7858 15.6752 19.7858H15.4829V20.0567C15.4829 20.3811 15.5364 20.6466 15.6446 20.853C15.7516 21.0595 15.898 21.2212 16.0826 21.3392V19.6175C16.0826 19.5312 16.0815 19.4438 16.0782 19.3565C16.0761 19.2691 16.0717 19.1806 16.0662 19.0921H16.666C16.6583 19.1806 16.6539 19.2691 16.6539 19.3565V19.6175H16.6572Z" fill="white"/>
<path d="M18.1955 20.6727H18.272V20.3154C18.272 20.2707 18.272 20.2204 18.2698 20.1625C18.2687 20.1046 18.2644 20.0511 18.2567 20.0019H18.8794C18.8717 20.0489 18.8674 20.1002 18.8663 20.1549C18.8652 20.2095 18.8641 20.2608 18.8641 20.3078V20.6727H18.9635C19.1099 20.6727 19.2694 20.6683 19.442 20.6585C19.6146 20.6497 19.7784 20.6333 19.9314 20.6093V21.1227C19.7959 21.1489 19.6331 21.1675 19.4431 21.1773C19.253 21.1883 19.0716 21.1926 18.8969 21.1926H18.2086C18.1398 21.1926 18.0666 21.1926 17.9891 21.1948C17.9126 21.1959 17.8394 21.2003 17.7695 21.209V20.6563C17.8307 20.6639 17.8995 20.6683 17.9749 20.6705C18.0503 20.6716 18.1223 20.6727 18.1923 20.6727H18.1955ZM19.1754 19.6611H18.3299C18.2655 19.6611 18.201 19.6611 18.1355 19.6633C18.0699 19.6644 18.0066 19.6687 17.9454 19.6775V19.1007C18.0066 19.1083 18.0699 19.1127 18.1355 19.1149C18.201 19.116 18.2655 19.1171 18.3299 19.1171H19.7981C19.7981 19.3814 19.7883 19.6207 19.7697 19.837C19.75 20.0522 19.726 20.239 19.6943 20.3963H19.0913C19.1142 20.2859 19.1339 20.1647 19.1492 20.0292C19.1645 19.8949 19.1732 19.7725 19.1765 19.6622L19.1754 19.6611ZM20.0821 22.5035H18.2228V21.7312C18.2228 21.6842 18.2229 21.6351 18.2207 21.5826C18.2196 21.5302 18.2152 21.481 18.2076 21.4341H18.8379C18.8302 21.481 18.8259 21.5302 18.8248 21.5815C18.8237 21.6329 18.8226 21.6798 18.8226 21.7246V21.9486H20.0712C20.1761 21.9486 20.2798 21.9486 20.3825 21.9464C20.4852 21.9453 20.5857 21.9409 20.6862 21.9322V22.5199C20.6043 22.5122 20.506 22.5079 20.3923 22.5057C20.2787 22.5046 20.175 22.5035 20.0832 22.5035H20.0821ZM20.6316 19.4328V19.9735H20.755C20.8009 19.9735 20.8501 19.9735 20.9014 19.9713C20.9527 19.9702 21.0008 19.9659 21.0478 19.9571V20.5372C21.0019 20.5296 20.9538 20.5252 20.9036 20.523C20.8533 20.5219 20.8064 20.5208 20.7638 20.5208H20.6327V21.1675C20.6327 21.2352 20.6327 21.3019 20.6349 21.3674C20.6359 21.433 20.6403 21.4985 20.648 21.563H20.0177C20.0253 21.4974 20.0308 21.4319 20.0329 21.3674C20.0351 21.3019 20.0373 21.2352 20.0373 21.1675V19.4306C20.0373 19.3651 20.0362 19.2995 20.0329 19.2351C20.0308 19.1695 20.0253 19.1029 20.0177 19.0352H20.648C20.6403 19.1029 20.6359 19.1695 20.6349 19.2351C20.6338 19.3006 20.6327 19.3662 20.6327 19.4306L20.6316 19.4328Z" fill="white"/>
<path d="M17.9384 11.1797H19.5421V17.5709H17.9308V13.6542H16.1953L17.9384 11.1797Z" fill="white"/>
<path d="M24.2801 13.6674C25.3087 13.7277 25.9877 14.4387 25.9928 15.426V15.6044C25.9852 16.7801 25.3848 17.5087 24.2928 17.569H20.2012L20.8371 16.1872H23.8925C24.1991 16.1872 24.3891 15.9234 24.3891 15.5667C24.3891 15.2527 24.1509 15.009 23.8596 15.009H21.9138C20.8726 15.009 20.2012 14.2578 20.2012 13.2554V13.077C20.2088 11.949 20.8878 11.1777 21.9012 11.1777H26.0004L25.3493 12.5545H22.2761C21.9822 12.5545 21.7998 12.7957 21.8049 13.1423C21.8049 13.4539 21.9974 13.6674 22.3319 13.6674H24.2801Z" fill="white"/>
<path d="M11.8068 11.1803L11.1557 12.562H9.0605C8.16362 12.567 7.70505 13.1624 7.68732 14.3558C7.69492 15.5793 8.10028 16.1897 8.89834 16.1847H11.8043V17.574H8.64246C6.95767 17.476 6 16.2927 6 14.3708C6 12.4565 7.04127 11.2883 8.90087 11.1777H11.8068V11.1803Z" fill="white"/>
<path d="M16.8357 15.0184H15.237L14.1299 13.4985V17.5709H12.5186V11.1797H14.1223L16.8357 15.0184Z" fill="white"/>
<path d="M14.0032 10.0691C14.0032 10.4761 13.6713 10.8052 13.2609 10.8052C12.8505 10.8052 12.5186 10.4761 12.5186 10.0691C12.5186 9.66466 12.8505 9.33301 13.2609 9.33301C13.6713 9.33301 14.0032 9.66466 14.0032 10.0691Z" fill="white"/>
<path d="M19.5423 10.0691C19.5423 10.4761 19.2104 10.8052 18.7999 10.8052C18.3895 10.8052 18.0576 10.4761 18.0576 10.0691C18.0576 9.66211 18.3895 9.33301 18.7999 9.33301C19.2078 9.33301 19.5423 9.66466 19.5423 10.0691Z" fill="white"/>
</g>
</g>
<defs>
<clipPath id="clip0_2802_85181">
<rect width="32" height="32" fill="white"/>
</clipPath>
<clipPath id="clip1_2802_85181">
<rect width="32" height="32" fill="white"/>
</clipPath>
</defs>
</svg>
