<svg width="32" height="32" viewBox="0 0 32 32" fill="none" xmlns="http://www.w3.org/2000/svg">
<path d="M0 10.6667C0 4.77563 4.77563 0 10.6667 0H21.3333C27.2244 0 32 4.77563 32 10.6667V21.3333C32 27.2244 27.2244 32 21.3333 32H10.6667C4.77563 32 0 27.2244 0 21.3333V10.6667Z" fill="#3DBCD2"/>
<path d="M13.2899 9.07176C13.6147 8.74922 14.2963 8.67332 14.8695 8.66699H19.7802C19.7802 8.66699 19.8503 8.66699 19.9012 8.66699H20.3853C20.7038 8.68597 20.9522 8.94527 20.9522 9.25516C20.9522 9.40061 20.9012 9.53971 20.8057 9.64726L20.7802 9.67251L18.5764 11.8607C18.5318 11.9049 18.035 12.3982 17.207 12.4172H9.88867L13.0479 9.27411L13.2835 9.06541L13.2899 9.07176Z" fill="white"/>
<path d="M19.329 19.9228C19.329 19.9228 19.3037 19.9228 19.291 19.9228H12.042C11.8522 19.9228 11.6941 19.7655 11.6941 19.5767V11.7806V11.768V10.541L10.8212 11.4031C10.8212 11.4031 10.8085 11.4094 10.8085 11.4157L9.12595 13.0894C9.12595 13.0894 9.10065 13.1146 9.088 13.1334C8.96148 13.2719 8.51237 13.769 8.30363 14.2346C8.05693 14.782 8 15.2476 8 16.8333C8 16.8459 8 16.8522 8 16.8648V19.7718C8 19.8536 8.00632 20.6024 8.77804 21.4141C8.79069 21.4267 8.79702 21.4329 8.80967 21.4455L10.682 23.2262C10.7769 23.3332 11.0299 23.5723 11.4538 23.6415L11.5297 23.6541C11.5613 23.6541 11.789 23.6667 11.808 23.6667H16.122C16.8115 23.6667 17.2732 23.3206 17.444 23.1759C17.4503 23.1696 17.463 23.1633 17.4693 23.1507L19.7022 20.9296C19.7022 20.9296 19.7086 20.9233 19.7149 20.917C19.8161 20.81 19.873 20.6653 19.873 20.5206C19.873 20.2122 19.6326 19.9606 19.3227 19.9354L19.329 19.9228Z" fill="white"/>
<path d="M24.9938 11.8647C24.9582 11.4106 24.7503 11.0763 24.3702 10.8808C24.7622 10.6979 24.9642 10.4015 24.9642 9.99781C24.9701 9.58151 24.8632 9.25356 24.6494 9.02021C24.4355 8.79314 24.0911 8.6733 23.6218 8.66699H22.725C22.5765 8.66699 22.4399 8.72375 22.3449 8.83097C22.3033 8.87512 22.0419 9.15266 21.8341 9.37341C21.7569 9.45541 21.7153 9.61306 21.8519 9.66986C21.8756 9.68246 21.8994 9.68246 21.9232 9.68876H23.5506C23.7466 9.68876 23.9069 9.85906 23.9069 10.0672C23.9069 10.2753 23.7466 10.4456 23.5506 10.4456H22.6656V11.4169H23.5506C23.7466 11.4169 23.9069 11.5872 23.9069 11.7954C23.9069 12.0035 23.7466 12.1738 23.5506 12.1738H22.725C22.5884 12.1801 22.4636 12.2369 22.3746 12.3378C22.333 12.3819 22.0538 12.6847 21.84 12.9117C21.7569 12.9874 21.7093 13.1514 21.8578 13.2082C21.8816 13.2145 21.9053 13.2208 21.9291 13.2208H23.8772C24.5246 13.2208 24.9701 12.7793 24.9998 12.0981V11.8647H24.9938Z" fill="white"/>
</svg>
