<svg width="32" height="32" viewBox="0 0 32 32" fill="none" xmlns="http://www.w3.org/2000/svg">
<path d="M0 10.6667C0 4.77563 4.77563 0 10.6667 0H21.3333C27.2244 0 32 4.77563 32 10.6667V21.3333C32 27.2244 27.2244 32 21.3333 32H10.6667C4.77563 32 0 27.2244 0 21.3333V10.6667Z" fill="#3DBCD2"/>
<path d="M6 12.4668V19.4607H9.94615V18.3015H7.45484V16.208H9.85995V15.0489H7.45484V13.628H9.93145V12.4668H6Z" fill="white"/>
<path d="M22.0537 12.4668V19.4607H25.9999V18.3015H23.5107V16.208H25.9137V15.0489H23.5107V13.628H25.9852V12.4668H22.0537Z" fill="white"/>
<path d="M13.9405 17.7066C13.9405 17.8701 13.8649 18.0173 13.7114 18.1461C13.5579 18.2749 13.3582 18.3383 13.1101 18.3383H12.328V13.5973H13.1101C13.3582 13.5973 13.5579 13.6628 13.7114 13.7936C13.8649 13.9244 13.9405 14.0696 13.9405 14.2291V17.7066ZM15.3954 17.6023V14.2127C15.3954 13.7466 15.1936 13.3397 14.7899 12.9902C14.3863 12.6406 13.8396 12.4668 13.1501 12.4668H10.8711V19.4668H13.1479C13.7997 19.4668 14.3148 19.3094 14.7079 19.0068C14.6785 18.9046 14.6575 18.7983 14.6575 18.6858C14.6575 18.1993 14.9623 17.7822 15.3954 17.6023Z" fill="white"/>
<path d="M21.011 15.0427V14.2045C21.011 13.7016 20.7986 13.2866 20.3698 12.9595C19.943 12.6303 19.4006 12.4668 18.7404 12.4668C18.0277 12.4668 17.4664 12.6303 17.0564 12.9554C16.6443 13.2805 16.4404 13.6955 16.4404 14.1963V17.6595C16.8167 17.8599 17.0753 18.2422 17.0753 18.6879C17.0753 18.784 17.0585 18.878 17.0375 18.97C17.0459 18.9782 17.0522 18.9864 17.0627 18.9925C17.4769 19.3053 18.0361 19.4607 18.7425 19.4607C19.4342 19.4607 19.985 19.3032 20.395 18.9884C20.807 18.6736 21.011 18.2831 21.011 17.8149V15.7235H18.7804V16.8541H19.5561V17.8313C19.5561 17.9601 19.4825 18.0786 19.3354 18.189C19.1882 18.2994 18.9906 18.3546 18.7425 18.3546C18.4944 18.3546 18.2926 18.2974 18.1328 18.185C17.9751 18.0725 17.8953 17.9539 17.8953 17.8313V14.182C17.8953 14.0185 17.9709 13.8774 18.1202 13.7629C18.2716 13.6464 18.4776 13.5892 18.7404 13.5892C19.0137 13.5892 19.2198 13.6464 19.3543 13.7629C19.4889 13.8774 19.5561 14.0185 19.5561 14.182V15.0427H21.011Z" fill="white"/>
<path d="M15.864 17.9131C15.4268 17.9131 15.0693 18.2606 15.0693 18.6879C15.0693 19.1131 15.4246 19.4607 15.864 19.4607C16.3034 19.4607 16.6608 19.1131 16.6608 18.6879C16.6608 18.2606 16.3034 17.9131 15.864 17.9131Z" fill="white"/>
</svg>
