<svg width="32" height="32" viewBox="0 0 32 32" fill="none" xmlns="http://www.w3.org/2000/svg">
<path d="M0 10.6667C0 4.77563 4.77563 0 10.6667 0H21.3333C27.2244 0 32 4.77563 32 10.6667V21.3333C32 27.2244 27.2244 32 21.3333 32H10.6667C4.77563 32 0 27.2244 0 21.3333V10.6667Z" fill="#03328D"/>
<path fill-rule="evenodd" clip-rule="evenodd" d="M13.1917 19.3805C12.4363 19.9774 11.4854 20.333 10.4521 20.333C7.99298 20.333 6 18.3186 6 15.833C6 13.3475 7.99298 11.333 10.4521 11.333C11.4854 11.333 12.4363 11.6887 13.1917 12.2856C13.9471 11.6887 14.8981 11.333 15.9314 11.333C16.9963 11.333 17.9736 11.7107 18.7397 12.3408C19.5058 11.7107 20.4832 11.333 21.548 11.333C24.0071 11.333 26 13.3475 26 15.833C26 18.3186 24.0071 20.333 21.548 20.333C20.4832 20.333 19.5058 19.9553 18.7397 19.3252C17.9736 19.9553 16.9963 20.333 15.9314 20.333C14.8981 20.333 13.9471 19.9774 13.1917 19.3805ZM21.7535 14.697C22.0543 14.697 22.3014 14.4396 22.3014 14.1229C22.3014 13.8062 22.0543 13.5489 21.7535 13.5489C21.4525 13.5489 21.2055 13.8062 21.2055 14.1229C21.2055 14.4396 21.4525 14.697 21.7535 14.697ZM21.2625 18.1181H22.2412V15.2314H21.2625V18.1181Z" fill="white"/>
</svg>
