<svg width="32" height="32" viewBox="0 0 32 32" fill="none" xmlns="http://www.w3.org/2000/svg">
<path d="M0 10.6667C0 4.77563 4.77563 0 10.6667 0H21.3333C27.2244 0 32 4.77563 32 10.6667V21.3333C32 27.2244 27.2244 32 21.3333 32H10.6667C4.77563 32 0 27.2244 0 21.3333V10.6667Z" fill="#4653A2"/>
<path d="M22.9695 21.3336H20.5977C19.5514 21.3336 18.7712 20.079 18.5938 19.7687L15.9781 15.854L13.3625 19.7687C13.1851 20.079 12.4048 21.3336 11.3586 21.3336H8.98674C8.33061 21.3336 7.74984 20.9878 7.4262 20.4026C7.09813 19.8086 7.1203 19.0859 7.4794 18.5096L11.8906 11.5004C12.2186 10.9773 12.7817 10.667 13.3979 10.667C14.0142 10.667 14.5772 10.9773 14.9053 11.5004L15.9781 13.4068L17.0377 11.527C17.3791 10.9773 17.9465 10.667 18.5628 10.667C19.179 10.667 19.7421 10.9773 20.0701 11.5004L24.4769 18.5096C24.836 19.0815 24.8582 19.8086 24.5301 20.4026C24.2065 20.9834 23.6257 21.3336 22.9695 21.3336ZM16.7274 14.6747L19.6667 19.0815C19.6667 19.0815 19.6844 19.1081 19.6933 19.1258C19.9593 19.5958 20.4071 20.0568 20.5977 20.0568H22.9695C23.2355 20.0568 23.3685 19.8662 23.4129 19.7864C23.5193 19.5958 23.5104 19.3741 23.3951 19.1923L18.9884 12.1787C18.8554 11.9659 18.647 11.9438 18.5628 11.9438C18.4786 11.9438 18.2702 11.9659 18.1372 12.1787L16.7318 14.6747H16.7274ZM13.3979 11.9438C13.3137 11.9438 13.1053 11.9659 12.9723 12.1787L8.56557 19.1879C8.45031 19.3697 8.44587 19.5913 8.54784 19.782C8.59217 19.8618 8.72518 20.0524 8.99118 20.0524H11.363C11.5492 20.0524 12.0058 19.5825 12.2674 19.1214C12.2763 19.1081 12.2851 19.0948 12.294 19.077L15.2333 14.6703L13.8102 12.1477C13.6905 11.9615 13.4822 11.9393 13.3979 11.9393V11.9438Z" fill="white"/>
</svg>
