<svg width="32" height="32" viewBox="0 0 32 32" fill="none" xmlns="http://www.w3.org/2000/svg">
<path d="M0 10.6667C0 4.77563 4.77563 0 10.6667 0H21.3333C27.2244 0 32 4.77563 32 10.6667V21.3333C32 27.2244 27.2244 32 21.3333 32H10.6667C4.77563 32 0 27.2244 0 21.3333V10.6667Z" fill="#EF8200"/>
<path d="M19.7462 9.9429L22.2678 8.4148C23.0361 7.94686 24.0001 8.53178 24.0001 9.46035V12.5093C24.0001 13.4452 23.0361 14.0228 22.2678 13.5548L19.7462 12.0267C18.9778 11.5588 18.9778 10.3962 19.7462 9.92825" fill="white"/>
<path d="M24 13.9175V21.1928C24 22.6076 22.8733 23.7495 21.493 23.7495C20.6338 23.7639 19.7395 23.4335 19.7395 23.4335C19.0141 23.1965 18.1831 22.6866 18.1831 22.6866L13.0141 19.6415V21.1928C13.0141 22.6076 11.8944 23.7495 10.5071 23.7495C9.1197 23.7495 8 22.6004 8 21.1928V10.8078C8 9.39295 9.12675 8.25103 10.5071 8.25103C10.5071 8.25103 11.2324 8.2151 12.2605 8.56701C13.007 8.81838 13.7817 9.2996 13.8169 9.31395L21.831 14.0396C21.831 14.0396 22.0845 14.2048 22.3944 14.2838C22.7043 14.3628 23 14.3484 23.2676 14.2838C23.2676 14.2838 23.6338 14.212 24 13.9175Z" fill="white"/>
</svg>
