<svg width="24" height="24" viewBox="0 0 24 24" fill="none" xmlns="http://www.w3.org/2000/svg">
<path d="M14.7719 3.5H7.20352C5.87887 3.5 4.7998 4.58207 4.7998 5.91043V8.49254C5.03049 8.52985 5.25375 8.60446 5.46956 8.73133L8.16352 10.291C8.78119 10.6493 9.14584 11.2836 9.14584 12C9.14584 12.7164 8.78119 13.3507 8.16352 13.709L5.46956 15.2686C5.26119 15.3881 5.03049 15.4701 4.7998 15.5075V18.0895C4.7998 19.4179 5.87887 20.5 7.20352 20.5H14.7719C17.2203 20.5 19.1998 18.5149 19.1998 16.0597V15.9552C19.1998 14.2687 18.2845 12.7985 16.9301 12C18.2845 11.2015 19.1998 9.73134 19.1998 8.04477V7.94029C19.1998 5.48506 17.2203 3.5 14.7719 3.5Z" fill="#5F2882"/>
<path d="M7.70625 13.1266L5.03654 14.7341C4.21793 15.2264 3.2002 14.6111 3.2002 13.6265V10.4114C3.2002 9.42691 4.21793 8.81927 5.03654 9.30384L7.70625 10.9114C8.52485 11.4037 8.52485 12.6266 7.70625 13.1189" fill="#00B3B8"/>
</svg>
