<svg width="24" height="24" viewBox="0 0 24 24" fill="none" xmlns="http://www.w3.org/2000/svg">
<path d="M9.28988 5.07174C9.61472 4.74921 10.2962 4.67331 10.8694 4.66699H15.7802C15.7802 4.66699 15.8502 4.66699 15.9012 4.66699H16.3852C16.7037 4.68596 16.9521 4.94526 16.9521 5.25514C16.9521 5.40059 16.9012 5.53972 16.8056 5.64723L16.7801 5.67251L14.5764 7.86065C14.5318 7.90492 14.035 8.3982 13.207 8.41717H5.88867L9.04785 5.27411L9.28351 5.06541L9.28988 5.07174Z" fill="url(#paint0_linear_2820_10681)"/>
<path d="M15.329 15.9228C15.329 15.9228 15.3037 15.9228 15.2911 15.9228H8.04201C7.85224 15.9228 7.6941 15.7655 7.6941 15.5767V7.7806V7.768V6.54102L6.82118 7.40306C6.82118 7.40306 6.80853 7.40934 6.80853 7.41563L5.12594 9.08938C5.12594 9.08938 5.10064 9.11455 5.08799 9.13343C4.96148 9.27186 4.51237 9.76895 4.30362 10.2346C4.05693 10.782 4 11.2477 4 12.8333C4 12.8459 4 12.8522 4 12.8648V15.7718C4 15.8536 4.00633 16.6024 4.77804 17.4141C4.79069 17.4267 4.79702 17.433 4.80967 17.4455L6.68202 19.2263C6.7769 19.3332 7.02992 19.5723 7.45373 19.6415L7.52964 19.6541C7.56127 19.6541 7.78899 19.6667 7.80796 19.6667H12.122C12.8115 19.6667 13.2732 19.3206 13.444 19.1759C13.4503 19.1696 13.463 19.1633 13.4693 19.1508L15.7022 16.9296C15.7022 16.9296 15.7085 16.9233 15.7149 16.917C15.8161 16.81 15.873 16.6653 15.873 16.5206C15.873 16.2123 15.6326 15.9606 15.3227 15.9354L15.329 15.9228Z" fill="url(#paint1_linear_2820_10681)"/>
<path d="M20.9939 7.86472C20.9583 7.4106 20.7504 7.07632 20.3703 6.8808C20.7623 6.69789 20.9642 6.40146 20.9642 5.9978C20.9702 5.58152 20.8633 5.25355 20.6494 5.02019C20.4356 4.79313 20.0911 4.67329 19.6219 4.66699H18.7251C18.5766 4.66699 18.44 4.72374 18.3449 4.83096C18.3034 4.87511 18.042 5.15264 17.8341 5.37339C17.7569 5.45538 17.7154 5.61306 17.852 5.66983C17.8757 5.68244 17.8995 5.68244 17.9232 5.68875H19.5506C19.7466 5.68875 19.907 5.85905 19.907 6.06719C19.907 6.27532 19.7466 6.4456 19.5506 6.4456H18.6657V7.41692H19.5506C19.7466 7.41692 19.907 7.58721 19.907 7.79535C19.907 8.00349 19.7466 8.17379 19.5506 8.17379H18.7251C18.5885 8.18009 18.4637 8.23685 18.3746 8.33776C18.3331 8.38191 18.0539 8.68466 17.8401 8.91172C17.7569 8.98741 17.7094 9.15139 17.8579 9.20816C17.8817 9.21447 17.9054 9.22078 17.9292 9.22078H19.8773C20.5247 9.22078 20.9702 8.77928 20.9999 8.0981V7.86472H20.9939Z" fill="#3DBCD2"/>
<defs>
<linearGradient id="paint0_linear_2820_10681" x1="15.8502" y1="6.31757" x2="6.52608" y2="6.87564" gradientUnits="userSpaceOnUse">
<stop stop-color="#3EBBD1"/>
<stop offset="0.26" stop-color="#3CB7CF"/>
<stop offset="0.45" stop-color="#35AEC9"/>
<stop offset="0.62" stop-color="#2B9EBF"/>
<stop offset="0.79" stop-color="#1C87B0"/>
<stop offset="0.94" stop-color="#08699E"/>
<stop offset="1" stop-color="#005C96"/>
</linearGradient>
<linearGradient id="paint1_linear_2820_10681" x1="4.49972" y1="10.6373" x2="14.5512" y2="19.1211" gradientUnits="userSpaceOnUse">
<stop stop-color="#3EBBD1"/>
<stop offset="0.18" stop-color="#3AB5CD"/>
<stop offset="0.41" stop-color="#2FA4C3"/>
<stop offset="0.66" stop-color="#1D89B2"/>
<stop offset="0.94" stop-color="#05649B"/>
<stop offset="1" stop-color="#005C96"/>
</linearGradient>
</defs>
</svg>
