<svg width="24" height="24" viewBox="0 0 24 24" fill="none" xmlns="http://www.w3.org/2000/svg">
<g id="Icon/call">
<path id="Vector 1544" opacity="0.8" d="M4.91515 2.81432L5.62407 2.28263C5.83377 2.12535 6.13047 2.16302 6.29422 2.36771L9.72081 6.65094C9.87997 6.84989 9.86408 7.13669 9.68393 7.31684L8.00038 9.0004C9.27754 12.1933 11.8075 14.7232 15.0004 16.0004L16.7038 14.297C16.8753 14.1255 17.1453 14.1018 17.344 14.241L21.7285 17.3101C21.8864 17.4206 21.9439 17.6275 21.8656 17.8036L21.824 17.8973C20.8021 20.1965 18.1331 21.2822 15.7848 20.379C10.2076 18.2339 5.69999 13.8794 3.40172 8.36359C2.57747 6.38541 3.20072 4.10014 4.91515 2.81432Z" fill="#BEC5DA"/>
</g>
</svg>
