<svg width="24" height="24" viewBox="0 0 24 24" fill="none" xmlns="http://www.w3.org/2000/svg">
<path d="M3 6C3 4.34315 4.34315 3 6 3H18C19.6569 3 21 4.34315 21 6V18C21 19.6569 19.6569 21 18 21H6C4.34315 21 3 19.6569 3 18V6Z" fill="#E1E7F5"/>
<path d="M6 8C6 7.44772 6.44772 7 7 7H17C17.5523 7 18 7.44772 18 8C18 8.55228 17.5523 9 17 9H7C6.44772 9 6 8.55228 6 8Z" fill="#CBD2E4"/>
<path d="M6 13C6 12.4477 6.44772 12 7 12H9C9.55228 12 10 12.4477 10 13C10 13.5523 9.55228 14 9 14H7C6.44772 14 6 13.5523 6 13Z" fill="#CBD2E4"/>
<path fill-rule="evenodd" clip-rule="evenodd" d="M17 19.5C18.3807 19.5 19.5 18.3807 19.5 17C19.5 15.6193 18.3807 14.5 17 14.5C15.6193 14.5 14.5 15.6193 14.5 17C14.5 18.3807 15.6193 19.5 17 19.5ZM17 21C19.2091 21 21 19.2091 21 17C21 14.7909 19.2091 13 17 13C14.7909 13 13 14.7909 13 17C13 19.2091 14.7909 21 17 21Z" fill="#676F87"/>
<path fill-rule="evenodd" clip-rule="evenodd" d="M18.9697 18.9697C19.2626 18.6768 19.7374 18.6768 20.0303 18.9697L21.5303 20.4697C21.8232 20.7626 21.8232 21.2374 21.5303 21.5303C21.2374 21.8232 20.7626 21.8232 20.4697 21.5303L18.9697 20.0303C18.6768 19.7374 18.6768 19.2626 18.9697 18.9697Z" fill="#676F87"/>
</svg>
