<svg width="16" height="17" viewBox="0 0 16 17" fill="none" xmlns="http://www.w3.org/2000/svg">
<rect y="0.419434" width="16" height="16" rx="8" fill="#C0C3CC"/>
<path fill-rule="evenodd" clip-rule="evenodd" d="M11.7823 5.69781C12.0751 5.40492 12.0751 4.93004 11.7823 4.63715C11.4894 4.34426 11.0145 4.34426 10.7216 4.63715L8.00001 7.35874L5.27842 4.63715C4.98553 4.34426 4.51065 4.34426 4.21776 4.63715C3.92487 4.93004 3.92487 5.40492 4.21776 5.69781L6.93935 8.4194L4.21753 11.1412C3.92464 11.4341 3.92464 11.909 4.21753 12.2019C4.51043 12.4948 4.9853 12.4948 5.27819 12.2019L8.00001 9.48006L10.7218 12.2019C11.0147 12.4948 11.4896 12.4948 11.7825 12.2019C12.0754 11.909 12.0754 11.4341 11.7825 11.1412L9.06067 8.4194L11.7823 5.69781Z" fill="white"/>
</svg>
