<svg width="64" height="64" viewBox="0 0 64 64" fill="none" xmlns="http://www.w3.org/2000/svg">
<g filter="url(#filter0_f_2802_68474)">
<path d="M11 27H52.6V52.6C52.6 54.8402 52.6 55.9603 52.164 56.816C51.7805 57.5686 51.1686 58.1805 50.416 58.564C49.5603 59 48.4402 59 46.2 59H17.4C15.1598 59 14.0397 59 13.184 58.564C12.4314 58.1805 11.8195 57.5686 11.436 56.816C11 55.9603 11 54.8402 11 52.6V27Z" fill="url(#paint0_linear_2802_68474)"/>
</g>
<path d="M6 19H58V52.6C58 54.8402 58 55.9603 57.564 56.816C57.1805 57.5686 56.5686 58.1805 55.816 58.564C54.9603 59 53.8402 59 51.6 59H12.4C10.1598 59 9.03968 59 8.18404 58.564C7.43139 58.1805 6.81947 57.5686 6.43597 56.816C6 55.9603 6 54.8402 6 52.6V19Z" fill="url(#paint1_linear_2802_68474)"/>
<path d="M6 17H58V50.6C58 52.8402 58 53.9603 57.564 54.816C57.1805 55.5686 56.5686 56.1805 55.816 56.564C54.9603 57 53.8402 57 51.6 57H12.4C10.1598 57 9.03968 57 8.18404 56.564C7.43139 56.1805 6.81947 55.5686 6.43597 54.816C6 53.9603 6 52.8402 6 50.6V17Z" fill="#CCD0E5"/>
<path d="M6 16H58V48.6C58 50.8402 58 51.9603 57.564 52.816C57.1805 53.5686 56.5686 54.1805 55.816 54.564C54.9603 55 53.8402 55 51.6 55H12.4C10.1598 55 9.03968 55 8.18404 54.564C7.43139 54.1805 6.81947 53.5686 6.43597 52.816C6 51.9603 6 50.8402 6 48.6V16Z" fill="url(#paint2_linear_2802_68474)"/>
<path d="M6 15.6C6 12.2397 6 10.5595 6.65396 9.27606C7.2292 8.14708 8.14708 7.2292 9.27606 6.65396C10.5595 6 12.2397 6 15.6 6H48.4C51.7603 6 53.4405 6 54.7239 6.65396C55.8529 7.2292 56.7708 8.14708 57.346 9.27606C58 10.5595 58 12.2397 58 15.6V16H6V15.6Z" fill="url(#paint3_linear_2802_68474)"/>
<path d="M45 5C45 3.89543 45.8954 3 47 3C48.1046 3 49 3.89543 49 5V8C49 9.10457 48.1046 10 47 10C45.8954 10 45 9.10457 45 8V5Z" fill="url(#paint4_linear_2802_68474)"/>
<path d="M15 5C15 3.89543 15.8954 3 17 3C18.1046 3 19 3.89543 19 5V8C19 9.10457 18.1046 10 17 10C15.8954 10 15 9.10457 15 8V5Z" fill="url(#paint5_linear_2802_68474)"/>
<g filter="url(#filter1_i_2802_68474)">
<path fill-rule="evenodd" clip-rule="evenodd" d="M25 35.5C25 32.4624 27.4624 30 30.5 30H33.5C36.5376 30 39 32.4624 39 35.5C39 36.9905 38.4071 38.3425 37.4443 39.3331C38.9979 40.5208 40 42.3934 40 44.5C40 48.0899 37.0899 51 33.5 51H30.5C26.9101 51 24 48.0899 24 44.5C24 42.3934 25.0021 40.5208 26.5557 39.3331C25.5929 38.3425 25 36.9905 25 35.5ZM30.5 34H33.5C34.3284 34 35 34.6716 35 35.5C35 36.3284 34.3284 37 33.5 37H30.5C29.6716 37 29 36.3284 29 35.5C29 34.6716 29.6716 34 30.5 34ZM30.5 42H33.5C34.8807 42 36 43.1193 36 44.5C36 45.8807 34.8807 47 33.5 47H30.5C29.1193 47 28 45.8807 28 44.5C28 43.1193 29.1193 42 30.5 42Z" fill="url(#paint6_linear_2802_68474)"/>
</g>
<path d="M30.5 29.5C27.1863 29.5 24.5 32.1863 24.5 35.5C24.5 36.9315 25.0018 38.2467 25.8385 39.2779C24.4041 40.5591 23.5 42.4241 23.5 44.5C23.5 48.366 26.634 51.5 30.5 51.5H33.5C37.366 51.5 40.5 48.366 40.5 44.5C40.5 42.4241 39.5959 40.5591 38.1615 39.2779C38.9981 38.2467 39.5 36.9315 39.5 35.5C39.5 32.1863 36.8137 29.5 33.5 29.5H30.5ZM30.5 34.5H33.5C34.0523 34.5 34.5 34.9477 34.5 35.5C34.5 36.0523 34.0523 36.5 33.5 36.5H30.5C29.9477 36.5 29.5 36.0523 29.5 35.5C29.5 34.9477 29.9477 34.5 30.5 34.5ZM30.5 42.5H33.5C34.6046 42.5 35.5 43.3954 35.5 44.5C35.5 45.6046 34.6046 46.5 33.5 46.5H30.5C29.3954 46.5 28.5 45.6046 28.5 44.5C28.5 43.3954 29.3954 42.5 30.5 42.5Z" stroke="url(#paint7_linear_2802_68474)"/>
<path fill-rule="evenodd" clip-rule="evenodd" d="M35.9992 20.25C36.4134 20.25 36.7492 20.5858 36.7492 21V25C36.7492 25.4142 36.4134 25.75 35.9992 25.75C35.585 25.75 35.2492 25.4142 35.2492 25V21C35.2492 20.5858 35.585 20.25 35.9992 20.25Z" fill="#FB928E"/>
<path fill-rule="evenodd" clip-rule="evenodd" d="M37.9683 20.25C37.9785 20.25 37.9888 20.25 37.9992 20.25C38.0096 20.25 38.0199 20.25 38.0301 20.25C38.1854 20.25 38.3096 20.2499 38.4214 20.2597C39.6542 20.3676 40.6316 21.345 40.7395 22.5778C40.7493 22.6896 40.7492 22.8138 40.7492 22.9691C40.7492 22.9793 40.7492 22.9896 40.7492 23V25C40.7492 25.4142 40.4134 25.75 39.9992 25.75C39.585 25.75 39.2492 25.4142 39.2492 25V23C39.2492 22.7984 39.2485 22.7459 39.2452 22.7085C39.2008 22.2009 38.7983 21.7984 38.2907 21.754C38.2533 21.7507 38.2008 21.75 37.9992 21.75C37.7976 21.75 37.7451 21.7507 37.7077 21.754C37.2001 21.7984 36.7976 22.2009 36.7532 22.7085C36.7499 22.7459 36.7492 22.7984 36.7492 23V25C36.7492 25.4142 36.4134 25.75 35.9992 25.75C35.585 25.75 35.2492 25.4142 35.2492 25V23C35.2492 22.9896 35.2492 22.9793 35.2492 22.9691C35.2491 22.8138 35.2491 22.6896 35.2589 22.5778C35.3667 21.345 36.3442 20.3676 37.5769 20.2597C37.6888 20.2499 37.813 20.25 37.9683 20.25Z" fill="#FB928E"/>
<path fill-rule="evenodd" clip-rule="evenodd" d="M32.0301 25.75C32.0199 25.75 32.0096 25.75 31.9992 25.75C31.9888 25.75 31.9785 25.75 31.9683 25.75C31.813 25.75 31.6888 25.7501 31.5769 25.7403C30.3442 25.6324 29.3667 24.655 29.2589 23.4222C29.2491 23.3104 29.2491 23.1862 29.2492 23.0309C29.2492 23.0207 29.2492 23.0104 29.2492 23V21C29.2492 20.5858 29.585 20.25 29.9992 20.25C30.4134 20.25 30.7492 20.5858 30.7492 21V23C30.7492 23.2016 30.7499 23.2541 30.7532 23.2915C30.7976 23.7991 31.2001 24.2016 31.7077 24.246C31.7451 24.2493 31.7976 24.25 31.9992 24.25C32.2008 24.25 32.2533 24.2493 32.2907 24.246C32.7983 24.2016 33.2008 23.7991 33.2452 23.2915C33.2485 23.2541 33.2492 23.2016 33.2492 23V21C33.2492 20.5858 33.585 20.25 33.9992 20.25C34.4134 20.25 34.7492 20.5858 34.7492 21V23C34.7492 23.0104 34.7492 23.0207 34.7492 23.0309C34.7492 23.1862 34.7493 23.3104 34.7395 23.4222C34.6316 24.655 33.6542 25.6324 32.4214 25.7403C32.3096 25.7501 32.1854 25.75 32.0301 25.75Z" fill="#FB928E"/>
<path fill-rule="evenodd" clip-rule="evenodd" d="M33.9992 25.75C33.585 25.75 33.2492 25.4142 33.2492 25V21C33.2492 20.5858 33.585 20.25 33.9992 20.25C34.4134 20.25 34.7492 20.5858 34.7492 21V25C34.7492 25.4142 34.4134 25.75 33.9992 25.75Z" fill="#FB928E"/>
<path fill-rule="evenodd" clip-rule="evenodd" d="M23.4666 20.3882C23.8153 19.6906 24.5283 19.25 25.3082 19.25H26.3812C27.3504 19.25 28.2365 19.7976 28.67 20.6646C28.8553 21.0351 28.7051 21.4856 28.3346 21.6708C27.9641 21.8561 27.5136 21.7059 27.3284 21.3354C27.149 20.9766 26.7823 20.75 26.3812 20.75H25.3082C25.0965 20.75 24.9029 20.8696 24.8082 21.059L24.7738 21.1278C24.7576 21.1602 24.7492 21.1959 24.7492 21.2322C24.7492 21.3393 24.8221 21.4326 24.926 21.4586L27.4362 22.0862C28.2078 22.2791 28.7492 22.9724 28.7492 23.7678C28.7492 24.0369 28.6865 24.3024 28.5662 24.5431L28.5318 24.6118C28.183 25.3094 27.4701 25.75 26.6902 25.75H25.6172C24.6479 25.75 23.7618 25.2024 23.3284 24.3354C23.1431 23.9649 23.2933 23.5144 23.6638 23.3292C24.0343 23.1439 24.4848 23.2941 24.67 23.6646C24.8494 24.0234 25.2161 24.25 25.6172 24.25H26.6902C26.9019 24.25 27.0955 24.1304 27.1902 23.941L27.2245 23.8722C27.2408 23.8398 27.2492 23.8041 27.2492 23.7678C27.2492 23.6607 27.1763 23.5674 27.0724 23.5414L24.5622 22.9138C23.7905 22.7209 23.2492 22.0276 23.2492 21.2322C23.2492 20.9631 23.3118 20.6976 23.4322 20.4569L23.4666 20.3882Z" fill="#FB928E"/>
<defs>
<filter id="filter0_f_2802_68474" x="8" y="24" width="47.5996" height="38" filterUnits="userSpaceOnUse" color-interpolation-filters="sRGB">
<feFlood flood-opacity="0" result="BackgroundImageFix"/>
<feBlend mode="normal" in="SourceGraphic" in2="BackgroundImageFix" result="shape"/>
<feGaussianBlur stdDeviation="1.5" result="effect1_foregroundBlur_2802_68474"/>
</filter>
<filter id="filter1_i_2802_68474" x="24" y="30" width="16" height="21" filterUnits="userSpaceOnUse" color-interpolation-filters="sRGB">
<feFlood flood-opacity="0" result="BackgroundImageFix"/>
<feBlend mode="normal" in="SourceGraphic" in2="BackgroundImageFix" result="shape"/>
<feColorMatrix in="SourceAlpha" type="matrix" values="0 0 0 0 0 0 0 0 0 0 0 0 0 0 0 0 0 0 127 0" result="hardAlpha"/>
<feOffset dy="1"/>
<feComposite in2="hardAlpha" operator="arithmetic" k2="-1" k3="1"/>
<feColorMatrix type="matrix" values="0 0 0 0 0.228279 0 0 0 0 0.240015 0 0 0 0 0.345638 0 0 0 0.4 0"/>
<feBlend mode="normal" in2="shape" result="effect1_innerShadow_2802_68474"/>
</filter>
<linearGradient id="paint0_linear_2802_68474" x1="31.8" y1="55.9524" x2="31.8" y2="59" gradientUnits="userSpaceOnUse">
<stop stop-color="#99A0C6"/>
<stop offset="1" stop-color="#99A1CA"/>
</linearGradient>
<linearGradient id="paint1_linear_2802_68474" x1="32" y1="55.1905" x2="32" y2="59" gradientUnits="userSpaceOnUse">
<stop stop-color="#AAAEC3"/>
<stop offset="1" stop-color="#BFC4DF"/>
</linearGradient>
<linearGradient id="paint2_linear_2802_68474" x1="32" y1="16" x2="32" y2="55" gradientUnits="userSpaceOnUse">
<stop offset="0.127987" stop-color="white"/>
<stop offset="1" stop-color="#F1F2F8"/>
</linearGradient>
<linearGradient id="paint3_linear_2802_68474" x1="32" y1="6" x2="32" y2="16" gradientUnits="userSpaceOnUse">
<stop stop-color="#FB5B56"/>
<stop offset="1" stop-color="#EB3431"/>
</linearGradient>
<linearGradient id="paint4_linear_2802_68474" x1="47" y1="3" x2="47" y2="10" gradientUnits="userSpaceOnUse">
<stop stop-color="#DDDFE7"/>
<stop offset="1" stop-color="#B3B8D4"/>
</linearGradient>
<linearGradient id="paint5_linear_2802_68474" x1="17" y1="3" x2="17" y2="10" gradientUnits="userSpaceOnUse">
<stop stop-color="#DDDFE7"/>
<stop offset="1" stop-color="#B3B8D4"/>
</linearGradient>
<linearGradient id="paint6_linear_2802_68474" x1="32" y1="30" x2="32" y2="51" gradientUnits="userSpaceOnUse">
<stop stop-color="#868BAE"/>
<stop offset="1" stop-color="#5D6285"/>
</linearGradient>
<linearGradient id="paint7_linear_2802_68474" x1="32" y1="30" x2="32" y2="40.5" gradientUnits="userSpaceOnUse">
<stop stop-color="white"/>
<stop offset="1" stop-color="white" stop-opacity="0"/>
</linearGradient>
</defs>
</svg>
