<svg width="64" height="64" viewBox="0 0 64 64" fill="none" xmlns="http://www.w3.org/2000/svg">
<g filter="url(#filter0_f_2802_68483)">
<path d="M8 38.399C8 36.1588 8 35.0387 8.43597 34.1831C8.81947 33.4304 9.43139 32.8185 10.184 32.435C11.0397 31.999 12.1598 31.999 14.4 31.999H45.6C47.8402 31.999 48.9603 31.999 49.816 32.435C50.5686 32.8185 51.1805 33.4304 51.564 34.1831C52 35.0387 52 36.1588 52 38.399V49.599C52 51.8392 52 52.9593 51.564 53.815C51.1805 54.5676 50.5686 55.1796 49.816 55.563C48.9603 55.999 47.8402 55.999 45.6 55.999H14.4C12.1598 55.999 11.0397 55.999 10.184 55.563C9.43139 55.1796 8.81947 54.5676 8.43597 53.815C8 52.9593 8 51.8392 8 49.599V38.399Z" fill="url(#paint0_linear_2802_68483)"/>
</g>
<path d="M6 32.399C6 30.1588 6 29.0387 6.43597 28.1831C6.81947 27.4304 7.43139 26.8185 8.18404 26.435C9.03968 25.999 10.1598 25.999 12.4 25.999H47.6C49.8402 25.999 50.9603 25.999 51.816 26.435C52.5686 26.8185 53.1805 27.4304 53.564 28.1831C54 29.0387 54 30.1588 54 32.399V49.599C54 51.8392 54 52.9593 53.564 53.815C53.1805 54.5676 52.5686 55.1796 51.816 55.563C50.9603 55.999 49.8402 55.999 47.6 55.999H12.4C10.1598 55.999 9.03968 55.999 8.18404 55.563C7.43139 55.1796 6.81947 54.5676 6.43597 53.815C6 52.9593 6 51.8392 6 49.599V32.399Z" fill="url(#paint1_linear_2802_68483)"/>
<path d="M6 36.999H54V41.999H6V36.999Z" fill="#B0D4FF"/>
<path d="M36 49.499C36 48.1183 37.1193 46.999 38.5 46.999H47.5C48.8807 46.999 50 48.1183 50 49.499C50 50.8797 48.8807 51.999 47.5 51.999H38.5C37.1193 51.999 36 50.8797 36 49.499Z" fill="#B0D4FF"/>
<g filter="url(#filter1_f_2802_68483)">
<path d="M12.6211 26.289C12.2321 24.0828 12.0376 22.9797 12.3183 22.0613C12.5653 21.2535 13.0617 20.5446 13.7363 20.0363C14.5032 19.4584 15.6063 19.2639 17.8125 18.8748L48.5385 13.457C50.7447 13.068 51.8478 12.8735 52.7661 13.1543C53.5739 13.4012 54.2828 13.8976 54.7912 14.5722C55.3691 15.3392 55.5636 16.4423 55.9526 18.6484L58.2448 31.6479C58.6338 33.8541 58.8283 34.9572 58.5475 35.8755C58.3005 36.6833 57.8042 37.3922 57.1296 37.9006C56.3626 38.4785 55.2595 38.673 53.0534 39.062L22.3274 44.4798C20.1212 44.8689 19.0181 45.0634 18.0997 44.7826C17.2919 44.5356 16.583 44.0392 16.0747 43.3646C15.4967 42.5977 15.3022 41.4946 14.9132 39.2884L12.6211 26.289Z" fill="url(#paint2_linear_2802_68483)"/>
</g>
<path d="M9.78417 21.7121C9.39516 19.5059 9.20065 18.4028 9.48142 17.4844C9.72839 16.6766 10.2248 15.9678 10.8994 15.4594C11.6663 14.8815 12.7694 14.687 14.9756 14.2979L49.6408 8.18553C51.847 7.79653 52.9501 7.60202 53.8684 7.88279C54.6762 8.12976 55.3851 8.62613 55.8935 9.30075C56.4714 10.0677 56.6659 11.1708 57.0549 13.377L60.0417 30.3156C60.4307 32.5218 60.6252 33.6249 60.3444 34.5433C60.0975 35.3511 59.6011 36.06 58.9265 36.5683C58.1595 37.1463 57.0564 37.3408 54.8503 37.7298L20.185 43.8422C17.9789 44.2312 16.8758 44.4257 15.9574 44.1449C15.1496 43.898 14.4407 43.4016 13.9324 42.727C13.3544 41.96 13.1599 40.8569 12.7709 38.6508L9.78417 21.7121Z" fill="url(#paint3_linear_2802_68483)"/>
<path fill-rule="evenodd" clip-rule="evenodd" d="M56.4015 38.4718C59.121 37.9923 60.9368 35.399 60.4573 32.6795C60.745 34.3112 59.2146 35.9449 57.039 36.3286L17.6467 43.2745C15.4711 43.6581 13.4742 42.6463 13.1865 41.0146C13.666 43.7341 16.2593 45.55 18.9788 45.0704L56.4015 38.4718Z" fill="url(#paint4_linear_2802_68483)"/>
<path d="M55.4766 27.4646C55.9561 30.1841 54.1403 32.7774 51.4208 33.2569C48.7014 33.7364 46.1081 31.9206 45.6286 29.2011C45.149 26.4816 46.9649 23.8883 49.6844 23.4088C52.4038 22.9293 54.9971 24.7452 55.4766 27.4646Z" fill="#A7FFE2"/>
<path d="M48.5831 28.6804C49.0626 31.3999 47.2468 33.9932 44.5273 34.4727C41.8078 34.9522 39.2145 33.1364 38.735 30.4169C38.2555 27.6975 40.0713 25.1042 42.7908 24.6246C45.5103 24.1451 48.1036 25.961 48.5831 28.6804Z" fill="white"/>
<path d="M14.8686 27.5173C14.6768 26.4295 15.4031 25.3922 16.4909 25.2004L23.3846 23.9848C24.4724 23.793 25.5097 24.5194 25.7015 25.6071L26.3961 29.5464C26.5879 30.6342 25.8616 31.6715 24.7738 31.8633L17.8801 33.0788C16.7923 33.2706 15.755 32.5443 15.5632 31.4565L14.8686 27.5173Z" fill="#A7FFE2"/>
<path d="M35.4926 17.7885C35.3008 16.7007 36.0272 15.6634 37.115 15.4716L50.9023 13.0405C51.99 12.8487 53.0274 13.575 53.2192 14.6628C53.411 15.7506 52.6846 16.7879 51.5969 16.9797L37.8095 19.4108C36.7218 19.6026 35.6844 18.8763 35.4926 17.7885Z" fill="#5F6274"/>
<defs>
<filter id="filter0_f_2802_68483" x="5" y="28.999" width="50" height="30" filterUnits="userSpaceOnUse" color-interpolation-filters="sRGB">
<feFlood flood-opacity="0" result="BackgroundImageFix"/>
<feBlend mode="normal" in="SourceGraphic" in2="BackgroundImageFix" result="shape"/>
<feGaussianBlur stdDeviation="1.5" result="effect1_foregroundBlur_2802_68483"/>
</filter>
<filter id="filter1_f_2802_68483" x="9.18555" y="10.0215" width="52.4951" height="37.8936" filterUnits="userSpaceOnUse" color-interpolation-filters="sRGB">
<feFlood flood-opacity="0" result="BackgroundImageFix"/>
<feBlend mode="normal" in="SourceGraphic" in2="BackgroundImageFix" result="shape"/>
<feGaussianBlur stdDeviation="1.5" result="effect1_foregroundBlur_2802_68483"/>
</filter>
<linearGradient id="paint0_linear_2802_68483" x1="14.7692" y1="53.1754" x2="35.7958" y2="29.2308" gradientUnits="userSpaceOnUse">
<stop stop-color="#E3F3FF"/>
<stop offset="1" stop-color="#D5EDFA"/>
</linearGradient>
<linearGradient id="paint1_linear_2802_68483" x1="13.3846" y1="52.4696" x2="39.8895" y2="26.1277" gradientUnits="userSpaceOnUse">
<stop stop-color="#E3F3FF"/>
<stop offset="1" stop-color="#D0ECFB"/>
</linearGradient>
<linearGradient id="paint2_linear_2802_68483" x1="12.3395" y1="20.7394" x2="56.55" y2="41.28" gradientUnits="userSpaceOnUse">
<stop stop-color="#51E9AA"/>
<stop offset="1" stop-color="#00DEC3"/>
</linearGradient>
<linearGradient id="paint3_linear_2802_68483" x1="9.58676" y1="16.2859" x2="59.255" y2="37.8068" gradientUnits="userSpaceOnUse">
<stop stop-color="#53E49F"/>
<stop offset="1" stop-color="#33D8BB"/>
</linearGradient>
<linearGradient id="paint4_linear_2802_68483" x1="32.3071" y1="11.2421" x2="37.5165" y2="40.7863" gradientUnits="userSpaceOnUse">
<stop stop-color="#0CC398"/>
<stop offset="1" stop-color="#0CC398"/>
</linearGradient>
</defs>
</svg>
