<svg width="24" height="24" viewBox="0 0 24 24" fill="none" xmlns="http://www.w3.org/2000/svg">
<path d="M2 8.4668V15.4606H5.94617V14.3015H3.45485V12.208H5.85997V11.0488H3.45485V9.62802H5.93145V8.4668H2Z" fill="#3DBCD2"/>
<path d="M18.0537 8.4668V15.4606H21.9999V14.3015H19.5106V12.208H21.9137V11.0488H19.5106V9.62802H21.9851V8.4668H18.0537Z" fill="#3DBCD2"/>
<path d="M9.94056 13.7066C9.94056 13.8701 9.86488 14.0173 9.7114 14.1461C9.55793 14.2749 9.3582 14.3383 9.11012 14.3383H8.32804V9.59735H9.11012C9.3582 9.59735 9.55793 9.66277 9.7114 9.79362C9.86488 9.92446 9.94056 10.0696 9.94056 10.229V13.7066ZM11.3954 13.6023V10.2127C11.3954 9.74659 11.1935 9.33976 10.7899 8.99017C10.3862 8.64058 9.83965 8.4668 9.15007 8.4668H6.87109V15.4668H9.14796C9.7997 15.4668 10.3148 15.3094 10.7079 15.0068C10.6785 14.9046 10.6574 14.7983 10.6574 14.6858C10.6574 14.1993 10.9623 13.7822 11.3954 13.6023Z" fill="#3DBCD2"/>
<path d="M17.011 11.0427V10.2045C17.011 9.70162 16.7987 9.28661 16.3698 8.9595C15.943 8.63036 15.4006 8.4668 14.7404 8.4668C14.0277 8.4668 13.4664 8.63036 13.0564 8.95541C12.6444 9.28047 12.4404 9.69548 12.4404 10.1963V13.6595C12.8168 13.8599 13.0753 14.2422 13.0753 14.6879C13.0753 14.7839 13.0585 14.878 13.0375 14.97C13.0459 14.9782 13.0522 14.9863 13.0627 14.9925C13.4769 15.3053 14.0361 15.4606 14.7425 15.4606C15.4342 15.4606 15.985 15.3032 16.395 14.9884C16.8071 14.6735 17.011 14.2831 17.011 13.8149V11.7235H14.7804V12.854H15.5562V13.8313C15.5562 13.9601 15.4826 14.0786 15.3354 14.189C15.1882 14.2994 14.9906 14.3546 14.7425 14.3546C14.4945 14.3546 14.2926 14.2974 14.1328 14.1849C13.9752 14.0725 13.8953 13.9539 13.8953 13.8313V10.182C13.8953 10.0185 13.971 9.87744 14.1202 9.76295C14.2716 9.64642 14.4776 9.58918 14.7404 9.58918C15.0137 9.58918 15.2198 9.64642 15.3543 9.76295C15.4889 9.87744 15.5562 10.0185 15.5562 10.182V11.0427H17.011Z" fill="#3DBCD2"/>
<path d="M11.864 13.9131C11.4267 13.9131 11.0693 14.2607 11.0693 14.6879C11.0693 15.1132 11.4246 15.4607 11.864 15.4607C12.3034 15.4607 12.6608 15.1132 12.6608 14.6879C12.6608 14.2607 12.3034 13.9131 11.864 13.9131Z" fill="#867E70"/>
</svg>
