<svg width="24" height="24" viewBox="0 0 24 24" fill="none" xmlns="http://www.w3.org/2000/svg">
<path d="M3 8H21V18C21 19.6569 19.6569 21 18 21H6C4.34315 21 3 19.6569 3 18V8Z" fill="#E1E7F5"/>
<path d="M3 7C3 5.34315 4.34315 4 6 4V5C6 6.10457 6.89543 7 8 7C9.10457 7 10 6.10457 10 5V4H14V5C14 6.10457 14.8954 7 16 7C17.1046 7 18 6.10457 18 5V4C19.6569 4 21 5.34315 21 7V9H3V7Z" fill="#F76A43"/>
<path d="M7 4C7 3.44772 7.44772 3 8 3C8.55228 3 9 3.44772 9 4V5C9 5.55228 8.55228 6 8 6C7.44772 6 7 5.55228 7 5V4Z" fill="#F76A43"/>
<path d="M15 4C15 3.44772 15.4477 3 16 3C16.5523 3 17 3.44772 17 4V5C17 5.55228 16.5523 6 16 6C15.4477 6 15 5.55228 15 5V4Z" fill="#F76A43"/>
<path d="M6 14C6 13.4477 6.44772 13 7 13C7.55228 13 8 13.4477 8 14C8 14.5523 7.55228 15 7 15C6.44772 15 6 14.5523 6 14Z" fill="#BEC5DA"/>
<path d="M10 14C10 13.4477 10.4477 13 11 13C11.5523 13 12 13.4477 12 14C12 14.5523 11.5523 15 11 15C10.4477 15 10 14.5523 10 14Z" fill="#BEC5DA"/>
<rect x="14" y="13" width="4" height="2" rx="1" fill="white"/>
<path d="M22 17C22 19.7614 19.7614 22 17 22C14.2386 22 12 19.7614 12 17C12 14.2386 14.2386 12 17 12C19.7614 12 22 14.2386 22 17Z" fill="#32C5A0"/>
<path fill-rule="evenodd" clip-rule="evenodd" d="M19.4157 15.5003C19.6915 15.7301 19.7288 16.14 19.499 16.4157L16.999 19.4157C16.882 19.556 16.7115 19.6407 16.5291 19.649C16.3466 19.6572 16.1691 19.5884 16.04 19.4592L14.54 17.9592C14.2861 17.7054 14.2861 17.2938 14.54 17.04C14.7938 16.7862 15.2054 16.7862 15.4592 17.04L16.4559 18.0367L18.5003 15.5835C18.7301 15.3077 19.1399 15.2705 19.4157 15.5003Z" fill="white"/>
</svg>
