<svg width="24" height="24" viewBox="0 0 24 24" fill="none" xmlns="http://www.w3.org/2000/svg">
<path fill-rule="evenodd" clip-rule="evenodd" d="M15.6055 14.0147C15.6297 13.9897 15.6627 13.9551 15.7033 13.9117C15.7843 13.8249 15.8961 13.702 16.0283 13.548C16.2915 13.2416 16.6427 12.8039 16.9962 12.2759C17.055 12.188 17.115 12.0959 17.1756 12H19.3974C19.622 12 19.8191 12.1498 19.8792 12.3662L21.8236 19.3662C21.9121 19.6848 21.6725 20 21.3419 20H2.65752C2.32686 20 2.08726 19.6848 2.17576 19.3662L4.1202 12.3662C4.18032 12.1498 4.37736 12 4.60196 12H6.82378C6.88436 12.0959 6.9444 12.188 7.00323 12.2759C7.35671 12.8039 7.70793 13.2416 7.97105 13.548C8.10329 13.702 8.21505 13.8249 8.29612 13.9117L8.43904 14.0607L10.939 16.5607C11.5248 17.1464 12.4746 17.1464 13.0604 16.5607L15.6055 14.0147Z" fill="#E1E7F5"/>
<path fill-rule="evenodd" clip-rule="evenodd" d="M14.5 13C14.5 13 17 10.5 17 8.03125C17 5.25257 14.7614 3 12 3C9.23858 3 7 5.25257 7 8.03125C7 10.5 9.5 13 9.5 13L12 15.5L14.5 13ZM12 9.875C13.0355 9.875 13.875 9.03553 13.875 8C13.875 6.96447 13.0355 6.125 12 6.125C10.9645 6.125 10.125 6.96447 10.125 8C10.125 9.03553 10.9645 9.875 12 9.875Z" fill="#F76A43"/>
</svg>
