<svg width="20" height="20" viewBox="0 0 20 20" fill="none" xmlns="http://www.w3.org/2000/svg">
<circle cx="10" cy="10" r="10" fill="#00BABB"/>
<path d="M11 5C11 5.55228 10.5523 6 10 6C9.44772 6 9 5.55228 9 5C9 4.44772 9.44772 4 10 4C10.5523 4 11 4.44772 11 5Z" fill="white"/>
<path d="M9 8C9 7.44772 9.44772 7 10 7C10.5523 7 11 7.44772 11 8V15C11 15.5523 10.5523 16 10 16C9.44772 16 9 15.5523 9 15V8Z" fill="white"/>
<path d="M9.66354 7H10V8.5H9.52187C9.17867 8.5 8.84019 8.57991 8.53322 8.73339L8.30094 8.84953C8.16268 8.91866 8 8.81812 8 8.66354C8 7.74479 8.74479 7 9.66354 7Z" fill="white"/>
<path d="M10.3365 16H10V14.5H10.4781C10.8213 14.5 11.1598 14.4201 11.4668 14.2666L11.6991 14.1505C11.8373 14.0813 12 14.1819 12 14.3365C12 15.2552 11.2552 16 10.3365 16Z" fill="white"/>
</svg>
