<svg width="24" height="24" viewBox="0 0 24 24" fill="none" xmlns="http://www.w3.org/2000/svg">
<path fill-rule="evenodd" clip-rule="evenodd" d="M6.45206 16.333C7.48535 16.333 8.43635 15.9773 9.19177 15.3804C9.94719 15.9773 10.8982 16.333 11.9315 16.333C12.9963 16.333 13.9737 15.9553 14.7397 15.3252C15.5058 15.9553 16.4832 16.333 17.548 16.333C20.0071 16.333 22.0001 14.3185 22.0001 11.833C22.0001 9.34746 20.0071 7.33301 17.548 7.33301C16.4832 7.33301 15.5058 7.71071 14.7397 8.34081C13.9737 7.71071 12.9963 7.33301 11.9315 7.33301C10.8982 7.33301 9.94719 7.68869 9.19177 8.28555C8.43635 7.68869 7.48535 7.33301 6.45206 7.33301C3.99298 7.33301 2 9.34746 2 11.833C2 14.3185 3.99298 16.333 6.45206 16.333ZM17.7534 10.6968C18.0543 10.6968 18.3014 10.4395 18.3014 10.1228C18.3014 9.80612 18.0543 9.54879 17.7534 9.54879C17.4525 9.54879 17.2055 9.80612 17.2055 10.1228C17.2055 10.4395 17.4525 10.6968 17.7534 10.6968ZM17.2625 14.118H18.2412V11.2313H17.2625V14.118Z" fill="#03328D"/>
</svg>
