<svg width="24" height="24" viewBox="0 0 24 24" fill="none" xmlns="http://www.w3.org/2000/svg">
<path d="M3 9.4C3 7.15979 3 6.03968 3.43597 5.18404C3.81947 4.43139 4.43139 3.81947 5.18404 3.43597C6.03968 3 7.15979 3 9.4 3H14.6C16.8402 3 17.9603 3 18.816 3.43597C19.5686 3.81947 20.1805 4.43139 20.564 5.18404C21 6.03968 21 7.15979 21 9.4V14.6C21 16.8402 21 17.9603 20.564 18.816C20.1805 19.5686 19.5686 20.1805 18.816 20.564C17.9603 21 16.8402 21 14.6 21H9.4C7.15979 21 6.03968 21 5.18404 20.564C4.43139 20.1805 3.81947 19.5686 3.43597 18.816C3 17.9603 3 16.8402 3 14.6V9.4Z" fill="#C0C3CC"/>
<path d="M9.91602 7C8.30822 7 7 8.30899 7 9.91719V14.0836C7 15.6916 8.30899 17 9.91719 17H14.0836C15.6916 17 17 15.691 17 14.0828V9.91602C17 8.30822 15.691 7 14.0828 7H9.91602ZM15 8.6C15.2208 8.6 15.4 8.7792 15.4 9C15.4 9.2208 15.2208 9.4 15 9.4C14.7792 9.4 14.6 9.2208 14.6 9C14.6 8.7792 14.7792 8.6 15 8.6ZM12 9.4C13.434 9.4 14.6 10.566 14.6 12C14.6 13.434 13.4338 14.6 12 14.6C10.566 14.6 9.4 13.4338 9.4 12C9.4 10.5662 10.566 9.4 12 9.4ZM12 10.2C11.0058 10.2 10.2 11.0058 10.2 12C10.2 12.9942 11.0058 13.8 12 13.8C12.9942 13.8 13.8 12.9942 13.8 12C13.8 11.0058 12.9942 10.2 12 10.2Z" fill="white"/>
</svg>
