<svg width="40" height="40" viewBox="0 0 40 40" fill="none" xmlns="http://www.w3.org/2000/svg">
<circle cx="20" cy="20" r="20" fill="#F9E007"/>
<g clip-path="url(#clip0_2586_85251)">
<path d="M19.8145 11.6602C14.1599 11.6602 9.59961 15.2398 9.59961 19.5855C9.59961 22.4063 11.4967 24.8763 14.3423 26.2867L13.3791 29.8163C13.361 29.8691 13.3582 29.926 13.3711 29.9802C13.384 30.0346 13.412 30.0845 13.4521 30.1241C13.5106 30.1746 13.5858 30.2026 13.6637 30.2028C13.7283 30.1978 13.7896 30.1727 13.8388 30.1313L17.9832 27.3893C18.5949 27.4721 19.2116 27.5151 19.8292 27.5181C25.4766 27.5181 30.0441 23.9385 30.0441 19.5855C30.0441 15.2326 25.4619 11.6602 19.8145 11.6602Z" fill="#392020"/>
<path d="M13.1955 18.3531H12.0946C11.9581 18.3569 11.8234 18.3231 11.706 18.2557C11.6539 18.2241 11.6091 18.1825 11.5745 18.1335C11.5398 18.0844 11.516 18.0289 11.5046 17.9706C11.5011 17.9336 11.5011 17.8964 11.5046 17.8594C11.5011 17.7901 11.5151 17.7211 11.5451 17.6581C11.5752 17.5952 11.6205 17.5402 11.6772 17.4978C11.8027 17.41 11.9541 17.3636 12.109 17.3656H15.4261C15.5636 17.3609 15.6993 17.3974 15.8146 17.4699C15.8679 17.5001 15.9137 17.5413 15.9485 17.5907C15.9834 17.6399 16.0064 17.6961 16.0161 17.7551C16.0196 17.7897 16.0196 17.8247 16.0161 17.8594C16.0195 17.9296 16.0056 17.9996 15.9756 18.0637C15.9456 18.1278 15.9003 18.184 15.8434 18.2279C15.721 18.3155 15.5711 18.3598 15.4189 18.3531H14.354V22.0107C14.3583 22.0885 14.3458 22.1664 14.3173 22.2395C14.2888 22.3125 14.2449 22.379 14.1885 22.4347C14.1343 22.4881 14.0692 22.5298 13.9973 22.5574C13.9254 22.5849 13.8484 22.5977 13.7711 22.5948C13.636 22.5984 13.5037 22.5567 13.397 22.4765C13.2953 22.3982 13.2263 22.2872 13.2027 22.1637C13.1956 22.1129 13.1956 22.0615 13.2027 22.0107L13.1955 18.3531Z" fill="#FEE500"/>
<path d="M16.4092 17.7211C16.4402 17.6087 16.5129 17.5113 16.6134 17.4478C16.7204 17.389 16.8424 17.3605 16.9654 17.3659H17.2329C17.3634 17.3613 17.4926 17.3921 17.6061 17.4547C17.7263 17.5331 17.8118 17.6526 17.8454 17.7894L19.2535 21.6489C19.2901 21.7496 19.3206 21.8522 19.3451 21.9564C19.3475 21.9996 19.3475 22.0428 19.3451 22.086C19.3475 22.1527 19.3348 22.2189 19.3081 22.2804C19.2813 22.3416 19.2411 22.3966 19.1902 22.4413C19.1409 22.4903 19.0816 22.5291 19.0162 22.555C18.9508 22.5807 18.8806 22.5933 18.81 22.5916C18.7014 22.6021 18.5924 22.5768 18.5004 22.5198C18.4084 22.4628 18.3389 22.3773 18.3031 22.2774L18.0074 21.4372H16.1557L15.86 22.2774C15.825 22.3794 15.7547 22.4665 15.661 22.5237C15.5673 22.581 15.456 22.605 15.3461 22.5916C15.227 22.5946 15.1104 22.5586 15.0152 22.4891C14.9224 22.4175 14.8598 22.3156 14.8391 22.2022C14.8354 22.1636 14.8354 22.1246 14.8391 22.086C14.8271 22.0183 14.8271 21.949 14.8391 21.8812C14.8391 21.8061 14.8884 21.7241 14.9166 21.6489L16.4092 17.7211ZM17.1132 18.616L16.4444 20.6653H17.775L17.1132 18.616Z" fill="#FEE500"/>
<path d="M19.3473 17.9499C19.3398 17.7938 19.3981 17.6414 19.5094 17.5258C19.5661 17.4719 19.634 17.4298 19.7089 17.4023C19.7838 17.3748 19.864 17.3623 19.9442 17.3658C20.0822 17.3643 20.217 17.4059 20.3275 17.484C20.4297 17.5656 20.4978 17.679 20.5189 17.8038C20.5263 17.8522 20.5263 17.9014 20.5189 17.9499V21.6067H22.5455C22.6859 21.6049 22.8241 21.6409 22.9435 21.7109C22.9971 21.7421 23.0431 21.7836 23.0787 21.8326C23.1143 21.8818 23.1386 21.9374 23.1498 21.9959C23.1498 21.9959 23.1498 22.0654 23.1498 22.1002C23.1533 22.1695 23.1389 22.2384 23.1083 22.3013C23.0775 22.3643 23.031 22.4194 22.973 22.4618C22.8445 22.5494 22.6894 22.5958 22.5308 22.5937H20.04C19.8814 22.6034 19.7237 22.5645 19.5905 22.4826C19.4713 22.3986 19.392 22.2737 19.3694 22.135C19.364 22.0586 19.364 21.9819 19.3694 21.9055L19.3473 17.9499Z" fill="#FEE500"/>
<path d="M23.2018 17.9434C23.1973 17.7894 23.2572 17.6395 23.3699 17.5237C23.4845 17.4299 23.6314 17.3746 23.786 17.3671C23.9404 17.3596 24.093 17.4003 24.2181 17.4823C24.3266 17.5623 24.3999 17.6745 24.4244 17.7988C24.4282 17.8469 24.4282 17.8953 24.4244 17.9434V19.6291L26.3578 17.6199C26.4322 17.5514 26.5114 17.4871 26.5946 17.4273C26.6732 17.3852 26.7632 17.3637 26.8544 17.3653C26.988 17.3647 27.1186 17.4007 27.2288 17.4685C27.2808 17.5001 27.3251 17.5407 27.3594 17.588C27.3934 17.6353 27.4167 17.6883 27.4275 17.7438C27.4306 17.7574 27.4306 17.7715 27.4275 17.7851C27.4239 17.801 27.4239 17.8174 27.4275 17.8333C27.4273 17.9057 27.4062 17.9768 27.3664 18.0397C27.3259 18.1063 27.2772 18.1686 27.2212 18.2254L25.9527 19.4778L27.481 21.6107V21.6796C27.5604 21.7782 27.6222 21.8873 27.6645 22.0031V22.0373C27.6733 22.1172 27.6605 22.1976 27.6272 22.272C27.5939 22.3462 27.5412 22.4122 27.4734 22.4639C27.3459 22.5508 27.19 22.5968 27.0303 22.5947C26.9241 22.5987 26.8186 22.5772 26.7246 22.5328C26.6227 22.4713 26.539 22.3887 26.48 22.292L25.0587 20.2278L24.3786 20.8677V22.0168C24.3831 22.1707 24.3232 22.3205 24.2105 22.4365C24.1501 22.4897 24.0784 22.5311 23.9994 22.5584C23.9206 22.5855 23.8364 22.598 23.7521 22.5947C23.6111 22.5975 23.4735 22.5561 23.3623 22.4778C23.2544 22.4003 23.1811 22.2903 23.156 22.1681C23.1485 22.1179 23.1485 22.067 23.156 22.0168L23.2018 17.9434Z" fill="#FEE500"/>
</g>
<defs>
<clipPath id="clip0_2586_85251">
<rect width="22.2222" height="22.2222" fill="white" transform="translate(8.71094 9.82031)"/>
</clipPath>
</defs>
</svg>
