<svg width="12" height="12" viewBox="0 0 12 12" fill="none" xmlns="http://www.w3.org/2000/svg">
<g id="Icon/my address">
<path id="Subtract" fill-rule="evenodd" clip-rule="evenodd" d="M6.77611 11.0682C8.06339 10.265 10.5 8.3074 10.5 4.99609C10.5 2.51081 8.48528 0.496094 6 0.496094C3.51472 0.496094 1.5 2.51081 1.5 4.99609C1.5 8.3074 3.93661 10.265 5.22389 11.0682C5.70401 11.3678 6.29599 11.3678 6.77611 11.0682ZM5.99994 6.99805C7.10451 6.99805 7.99994 6.10262 7.99994 4.99805C7.99994 3.89348 7.10451 2.99805 5.99994 2.99805C4.89537 2.99805 3.99994 3.89348 3.99994 4.99805C3.99994 6.10262 4.89537 6.99805 5.99994 6.99805Z" fill="#FF852E"/>
</g>
</svg>
