<svg width="24" height="24" viewBox="0 0 24 24" fill="none" xmlns="http://www.w3.org/2000/svg">
<g clip-path="url(#clip0_2802_68410)">
<path fill-rule="evenodd" clip-rule="evenodd" d="M15.0547 17.7389C16.9711 15.7087 18.7 13.0302 18.7 10.05C18.7 6.31443 15.6927 3.3 12 3.3C8.30732 3.3 5.3 6.31443 5.3 10.05C5.3 13.0302 7.02895 15.7087 8.94535 17.7389C9.88676 18.7362 10.8322 19.5329 11.543 20.08C11.7099 20.2085 11.8633 20.3228 12 20.4223C12.1367 20.3228 12.2901 20.2085 12.457 20.08C13.1678 19.5329 14.1132 18.7362 15.0547 17.7389ZM15.3 10C15.3 11.8225 13.8225 13.3 12 13.3C10.1775 13.3 8.7 11.8225 8.7 10C8.7 8.17746 10.1775 6.7 12 6.7C13.8225 6.7 15.3 8.17746 15.3 10ZM20 10.05C20 17 12 22 12 22C12 22 4 17 4 10.05C4 5.60411 7.58172 2 12 2C16.4183 2 20 5.60411 20 10.05ZM14 10C14 11.1046 13.1046 12 12 12C10.8954 12 10 11.1046 10 10C10 8.89543 10.8954 8 12 8C13.1046 8 14 8.89543 14 10Z" fill="#161618"/>
</g>
<defs>
<clipPath id="clip0_2802_68410">
<rect width="24" height="24" fill="white"/>
</clipPath>
</defs>
</svg>
