<svg width="22" height="24" viewBox="0 0 22 24" fill="none" xmlns="http://www.w3.org/2000/svg">
<g id="Group 1319">
<path id="BI_CREVERSE" d="M12.6366 10.9795L5.15218 6.68254C2.86535 5.37015 0.0078125 7.01105 0.0078125 9.63584V18.2289C0.0078125 20.8541 2.86535 22.4946 5.15218 21.1822L12.6366 16.8852C14.923 15.5729 14.923 12.2919 12.6366 10.9795Z" fill="#00BABB"/>
<g id="BI_CREVERSE_2">
<path d="M20.2349 17.8505L12.0065 22.5732C11.7211 22.7388 11.398 22.8259 11.0692 22.8259C10.7404 22.8259 10.4172 22.7388 10.1319 22.5732C9.54557 22.2362 9.19459 21.6336 9.19459 20.9599V18.8615L15.6797 15.1397C16.1845 14.8521 16.7539 14.7011 17.333 14.7011C17.9121 14.7011 18.4814 14.8521 18.9863 15.1397L20.2349 15.8563C20.4108 15.9546 20.5573 16.099 20.6592 16.2744C20.7611 16.4498 20.8146 16.6497 20.814 16.8532C20.8144 17.0568 20.7609 17.2568 20.6591 17.4323C20.5572 17.6077 20.4107 17.7523 20.2349 17.8509V17.8505ZM6.18977 19.2351C5.90439 19.4005 5.58131 19.4874 5.25256 19.4872C4.9238 19.4871 4.6008 19.3999 4.31556 19.2343C3.72804 18.8976 3.37745 18.2942 3.37745 17.6205V6.38121C3.37745 5.70757 3.72724 5.10369 4.31476 4.76789C4.60018 4.60278 4.92301 4.51558 5.25166 4.51482C5.57384 4.51482 5.89601 4.59836 6.18977 4.76667L8.01675 5.81504V18.1855L6.18977 19.2355V19.2351ZM9.19459 3.03938C9.19459 2.36615 9.54557 1.76349 10.1319 1.42606C10.4171 1.26035 10.7402 1.17317 11.069 1.17317C11.3978 1.17317 11.7209 1.26035 12.0061 1.42606L20.2349 6.14923C20.4107 6.24776 20.5571 6.39227 20.659 6.56768C20.7608 6.74309 20.8144 6.94298 20.814 7.1465C20.8144 7.34993 20.7609 7.54974 20.659 7.72503C20.5572 7.90032 20.4107 8.04466 20.2349 8.14296L18.9863 8.86C18.4814 9.14757 17.9121 9.29863 17.333 9.29863C16.7539 9.29863 16.1845 9.14757 15.6797 8.86L9.19459 5.13816V3.03938ZM20.824 14.8412L19.5754 14.1242C18.8907 13.7341 18.1184 13.5292 17.333 13.5292C16.5475 13.5292 15.7752 13.7341 15.0906 14.1242L9.19459 17.5082V6.49152L15.0906 9.87512C15.775 10.266 16.5477 10.4708 17.3334 10.4697C18.1082 10.4697 18.8838 10.2722 19.5754 9.87552L20.824 9.15849C21.556 8.73833 21.9927 7.98601 21.9927 7.1465C21.9927 6.30618 21.556 5.55467 20.824 5.1337L12.596 0.411348C12.1312 0.141799 11.6049 0 11.0694 0C10.5338 0 10.0076 0.141799 9.54277 0.411348C8.58706 0.960883 8.01675 1.94315 8.01675 3.03979V4.46169L6.77888 3.75195C6.31393 3.48232 5.78751 3.34051 5.25181 3.34058C4.71611 3.34065 4.18972 3.4826 3.72484 3.75236C2.76953 4.30108 2.19922 5.28335 2.19922 6.38121V17.6209C2.19922 18.718 2.76953 19.7015 3.72564 20.2498C4.19091 20.5184 4.71697 20.6602 5.25246 20.6614C5.78787 20.6605 6.31387 20.5187 6.77888 20.2498L8.01675 19.5388V20.9603C8.01675 22.0574 8.58706 23.0396 9.54277 23.5892C10.0079 23.8576 10.5339 23.9992 11.0692 24C11.5935 24 12.1178 23.8633 12.596 23.5892L20.824 18.866C21.556 18.4454 21.9927 17.6939 21.9927 16.8536C21.9927 16.0141 21.556 15.2614 20.824 14.842V14.8412Z" fill="#161618"/>
<path d="M20.2349 17.8505L12.0065 22.5732C11.7211 22.7388 11.398 22.8259 11.0692 22.8259C10.7404 22.8259 10.4172 22.7388 10.1319 22.5732C9.54557 22.2362 9.19459 21.6336 9.19459 20.9599V18.8615L15.6797 15.1397C16.1845 14.8521 16.7539 14.7011 17.333 14.7011C17.9121 14.7011 18.4814 14.8521 18.9863 15.1397L20.2349 15.8563C20.4108 15.9546 20.5573 16.099 20.6592 16.2744C20.7611 16.4498 20.8146 16.6497 20.814 16.8532C20.8144 17.0568 20.7609 17.2568 20.6591 17.4323C20.5572 17.6077 20.4107 17.7523 20.2349 17.8509V17.8505ZM6.18977 19.2351C5.90439 19.4005 5.58131 19.4874 5.25256 19.4872C4.9238 19.4871 4.6008 19.3999 4.31556 19.2343C3.72804 18.8976 3.37745 18.2942 3.37745 17.6205V6.38121C3.37745 5.70757 3.72724 5.10369 4.31476 4.76789C4.60018 4.60278 4.92301 4.51558 5.25166 4.51482C5.57384 4.51482 5.89601 4.59836 6.18977 4.76667L8.01675 5.81504V18.1855L6.18977 19.2355V19.2351ZM9.19459 3.03938C9.19459 2.36615 9.54557 1.76349 10.1319 1.42606C10.4171 1.26035 10.7402 1.17317 11.069 1.17317C11.3978 1.17317 11.7209 1.26035 12.0061 1.42606L20.2349 6.14923C20.4107 6.24776 20.5571 6.39227 20.659 6.56768C20.7608 6.74309 20.8144 6.94298 20.814 7.1465C20.8144 7.34993 20.7609 7.54974 20.659 7.72503C20.5572 7.90032 20.4107 8.04466 20.2349 8.14296L18.9863 8.86C18.4814 9.14757 17.9121 9.29863 17.333 9.29863C16.7539 9.29863 16.1845 9.14757 15.6797 8.86L9.19459 5.13816V3.03938ZM20.824 14.8412L19.5754 14.1242C18.8907 13.7341 18.1184 13.5292 17.333 13.5292C16.5475 13.5292 15.7752 13.7341 15.0906 14.1242L9.19459 17.5082V6.49152L15.0906 9.87512C15.775 10.266 16.5477 10.4708 17.3334 10.4697C18.1082 10.4697 18.8838 10.2722 19.5754 9.87552L20.824 9.15849C21.556 8.73833 21.9927 7.98601 21.9927 7.1465C21.9927 6.30618 21.556 5.55467 20.824 5.1337L12.596 0.411348C12.1312 0.141799 11.6049 0 11.0694 0C10.5338 0 10.0076 0.141799 9.54277 0.411348C8.58706 0.960883 8.01675 1.94315 8.01675 3.03979V4.46169L6.77888 3.75195C6.31393 3.48232 5.78751 3.34051 5.25181 3.34058C4.71611 3.34065 4.18972 3.4826 3.72484 3.75236C2.76953 4.30108 2.19922 5.28335 2.19922 6.38121V17.6209C2.19922 18.718 2.76953 19.7015 3.72564 20.2498C4.19091 20.5184 4.71697 20.6602 5.25246 20.6614C5.78787 20.6605 6.31387 20.5187 6.77888 20.2498L8.01675 19.5388V20.9603C8.01675 22.0574 8.58706 23.0396 9.54277 23.5892C10.0079 23.8576 10.5339 23.9992 11.0692 24C11.5935 24 12.1178 23.8633 12.596 23.5892L20.824 18.866C21.556 18.4454 21.9927 17.6939 21.9927 16.8536C21.9927 16.0141 21.556 15.2614 20.824 14.842V14.8412Z" fill="black" fill-opacity="0.2"/>
<path d="M20.2349 17.8505L12.0065 22.5732C11.7211 22.7388 11.398 22.8259 11.0692 22.8259C10.7404 22.8259 10.4172 22.7388 10.1319 22.5732C9.54557 22.2362 9.19459 21.6336 9.19459 20.9599V18.8615L15.6797 15.1397C16.1845 14.8521 16.7539 14.7011 17.333 14.7011C17.9121 14.7011 18.4814 14.8521 18.9863 15.1397L20.2349 15.8563C20.4108 15.9546 20.5573 16.099 20.6592 16.2744C20.7611 16.4498 20.8146 16.6497 20.814 16.8532C20.8144 17.0568 20.7609 17.2568 20.6591 17.4323C20.5572 17.6077 20.4107 17.7523 20.2349 17.8509V17.8505ZM6.18977 19.2351C5.90439 19.4005 5.58131 19.4874 5.25256 19.4872C4.9238 19.4871 4.6008 19.3999 4.31556 19.2343C3.72804 18.8976 3.37745 18.2942 3.37745 17.6205V6.38121C3.37745 5.70757 3.72724 5.10369 4.31476 4.76789C4.60018 4.60278 4.92301 4.51558 5.25166 4.51482C5.57384 4.51482 5.89601 4.59836 6.18977 4.76667L8.01675 5.81504V18.1855L6.18977 19.2355V19.2351ZM9.19459 3.03938C9.19459 2.36615 9.54557 1.76349 10.1319 1.42606C10.4171 1.26035 10.7402 1.17317 11.069 1.17317C11.3978 1.17317 11.7209 1.26035 12.0061 1.42606L20.2349 6.14923C20.4107 6.24776 20.5571 6.39227 20.659 6.56768C20.7608 6.74309 20.8144 6.94298 20.814 7.1465C20.8144 7.34993 20.7609 7.54974 20.659 7.72503C20.5572 7.90032 20.4107 8.04466 20.2349 8.14296L18.9863 8.86C18.4814 9.14757 17.9121 9.29863 17.333 9.29863C16.7539 9.29863 16.1845 9.14757 15.6797 8.86L9.19459 5.13816V3.03938ZM20.824 14.8412L19.5754 14.1242C18.8907 13.7341 18.1184 13.5292 17.333 13.5292C16.5475 13.5292 15.7752 13.7341 15.0906 14.1242L9.19459 17.5082V6.49152L15.0906 9.87512C15.775 10.266 16.5477 10.4708 17.3334 10.4697C18.1082 10.4697 18.8838 10.2722 19.5754 9.87552L20.824 9.15849C21.556 8.73833 21.9927 7.98601 21.9927 7.1465C21.9927 6.30618 21.556 5.55467 20.824 5.1337L12.596 0.411348C12.1312 0.141799 11.6049 0 11.0694 0C10.5338 0 10.0076 0.141799 9.54277 0.411348C8.58706 0.960883 8.01675 1.94315 8.01675 3.03979V4.46169L6.77888 3.75195C6.31393 3.48232 5.78751 3.34051 5.25181 3.34058C4.71611 3.34065 4.18972 3.4826 3.72484 3.75236C2.76953 4.30108 2.19922 5.28335 2.19922 6.38121V17.6209C2.19922 18.718 2.76953 19.7015 3.72564 20.2498C4.19091 20.5184 4.71697 20.6602 5.25246 20.6614C5.78787 20.6605 6.31387 20.5187 6.77888 20.2498L8.01675 19.5388V20.9603C8.01675 22.0574 8.58706 23.0396 9.54277 23.5892C10.0079 23.8576 10.5339 23.9992 11.0692 24C11.5935 24 12.1178 23.8633 12.596 23.5892L20.824 18.866C21.556 18.4454 21.9927 17.6939 21.9927 16.8536C21.9927 16.0141 21.556 15.2614 20.824 14.842V14.8412Z" fill="black" fill-opacity="0.2"/>
<path d="M20.2349 17.8505L12.0065 22.5732C11.7211 22.7388 11.398 22.8259 11.0692 22.8259C10.7404 22.8259 10.4172 22.7388 10.1319 22.5732C9.54557 22.2362 9.19459 21.6336 9.19459 20.9599V18.8615L15.6797 15.1397C16.1845 14.8521 16.7539 14.7011 17.333 14.7011C17.9121 14.7011 18.4814 14.8521 18.9863 15.1397L20.2349 15.8563C20.4108 15.9546 20.5573 16.099 20.6592 16.2744C20.7611 16.4498 20.8146 16.6497 20.814 16.8532C20.8144 17.0568 20.7609 17.2568 20.6591 17.4323C20.5572 17.6077 20.4107 17.7523 20.2349 17.8509V17.8505ZM6.18977 19.2351C5.90439 19.4005 5.58131 19.4874 5.25256 19.4872C4.9238 19.4871 4.6008 19.3999 4.31556 19.2343C3.72804 18.8976 3.37745 18.2942 3.37745 17.6205V6.38121C3.37745 5.70757 3.72724 5.10369 4.31476 4.76789C4.60018 4.60278 4.92301 4.51558 5.25166 4.51482C5.57384 4.51482 5.89601 4.59836 6.18977 4.76667L8.01675 5.81504V18.1855L6.18977 19.2355V19.2351ZM9.19459 3.03938C9.19459 2.36615 9.54557 1.76349 10.1319 1.42606C10.4171 1.26035 10.7402 1.17317 11.069 1.17317C11.3978 1.17317 11.7209 1.26035 12.0061 1.42606L20.2349 6.14923C20.4107 6.24776 20.5571 6.39227 20.659 6.56768C20.7608 6.74309 20.8144 6.94298 20.814 7.1465C20.8144 7.34993 20.7609 7.54974 20.659 7.72503C20.5572 7.90032 20.4107 8.04466 20.2349 8.14296L18.9863 8.86C18.4814 9.14757 17.9121 9.29863 17.333 9.29863C16.7539 9.29863 16.1845 9.14757 15.6797 8.86L9.19459 5.13816V3.03938ZM20.824 14.8412L19.5754 14.1242C18.8907 13.7341 18.1184 13.5292 17.333 13.5292C16.5475 13.5292 15.7752 13.7341 15.0906 14.1242L9.19459 17.5082V6.49152L15.0906 9.87512C15.775 10.266 16.5477 10.4708 17.3334 10.4697C18.1082 10.4697 18.8838 10.2722 19.5754 9.87552L20.824 9.15849C21.556 8.73833 21.9927 7.98601 21.9927 7.1465C21.9927 6.30618 21.556 5.55467 20.824 5.1337L12.596 0.411348C12.1312 0.141799 11.6049 0 11.0694 0C10.5338 0 10.0076 0.141799 9.54277 0.411348C8.58706 0.960883 8.01675 1.94315 8.01675 3.03979V4.46169L6.77888 3.75195C6.31393 3.48232 5.78751 3.34051 5.25181 3.34058C4.71611 3.34065 4.18972 3.4826 3.72484 3.75236C2.76953 4.30108 2.19922 5.28335 2.19922 6.38121V17.6209C2.19922 18.718 2.76953 19.7015 3.72564 20.2498C4.19091 20.5184 4.71697 20.6602 5.25246 20.6614C5.78787 20.6605 6.31387 20.5187 6.77888 20.2498L8.01675 19.5388V20.9603C8.01675 22.0574 8.58706 23.0396 9.54277 23.5892C10.0079 23.8576 10.5339 23.9992 11.0692 24C11.5935 24 12.1178 23.8633 12.596 23.5892L20.824 18.866C21.556 18.4454 21.9927 17.6939 21.9927 16.8536C21.9927 16.0141 21.556 15.2614 20.824 14.842V14.8412Z" fill="black" fill-opacity="0.2"/>
</g>
</g>
</svg>
