<svg width="24" height="24" viewBox="0 0 24 24" fill="none" xmlns="http://www.w3.org/2000/svg">
<path d="M3 6C3 4.34315 4.34315 3 6 3H18C19.6569 3 21 4.34315 21 6V18C21 19.6569 19.6569 21 18 21H6C4.34315 21 3 19.6569 3 18V6Z" fill="#E1E7F5"/>
<path d="M6 8C6 7.44772 6.44772 7 7 7H17C17.5523 7 18 7.44772 18 8C18 8.55228 17.5523 9 17 9H7C6.44772 9 6 8.55228 6 8Z" fill="#CBD2E4"/>
<path d="M6 13C6 12.4477 6.44772 12 7 12H9C9.55228 12 10 12.4477 10 13C10 13.5523 9.55228 14 9 14H7C6.44772 14 6 13.5523 6 13Z" fill="#CBD2E4"/>
<mask id="mask0_2802_68255" style="mask-type:alpha" maskUnits="userSpaceOnUse" x="12" y="12" width="10" height="10">
<circle cx="17" cy="17" r="5" fill="#666666"/>
</mask>
<g mask="url(#mask0_2802_68255)">
<path d="M22 17C22 19.7614 19.7614 22 17 22C14.2386 22 12 19.7614 12 17C12 14.2386 14.2386 12 17 12C19.7614 12 22 14.2386 22 17Z" fill="#00BABB"/>
<path d="M17 17C17.8284 17 18.5 16.3284 18.5 15.5C18.5 14.6716 17.8284 14 17 14C16.1716 14 15.5 14.6716 15.5 15.5C15.5 16.3284 16.1716 17 17 17Z" fill="white"/>
<path d="M16 18C14.3431 18 13 19.3431 13 21V21.5C13 22.0523 13.4477 22.5 14 22.5H20C20.5523 22.5 21 22.0523 21 21.5V21C21 19.3431 19.6569 18 18 18H16Z" fill="white"/>
<path fill-rule="evenodd" clip-rule="evenodd" d="M17 20.5C18.933 20.5 20.5 18.933 20.5 17C20.5 15.067 18.933 13.5 17 13.5C15.067 13.5 13.5 15.067 13.5 17C13.5 18.933 15.067 20.5 17 20.5ZM17 22C19.7614 22 22 19.7614 22 17C22 14.2386 19.7614 12 17 12C14.2386 12 12 14.2386 12 17C12 19.7614 14.2386 22 17 22Z" fill="#00BABB"/>
</g>
</svg>
