<svg width="24" height="24" viewBox="0 0 24 24" fill="none" xmlns="http://www.w3.org/2000/svg">
<path d="M15.7461 5.94291L18.2677 4.4148C19.0361 3.94686 20 4.53178 20 5.46034V8.50925C20 9.44513 19.0361 10.0228 18.2677 9.55482L15.7461 8.02668C14.9778 7.55874 14.9778 6.39621 15.7461 5.92827" fill="#00B3B8"/>
<path d="M20 9.91753V17.1928C20 18.6076 18.8732 19.7495 17.493 19.7495C16.6338 19.7639 15.7394 19.4335 15.7394 19.4335C15.0141 19.1965 14.1831 18.6866 14.1831 18.6866L9.01408 15.6415V17.1928C9.01408 18.6076 7.89437 19.7495 6.50704 19.7495C5.11972 19.7495 4 18.6004 4 17.1928V6.80779C4 5.39295 5.12676 4.25103 6.50704 4.25103C6.50704 4.25103 7.23239 4.2151 8.26056 4.56702C9.00704 4.81838 9.78169 5.29958 9.8169 5.31394L17.831 10.0396C17.831 10.0396 18.0845 10.2048 18.3944 10.2838C18.7042 10.3628 19 10.3485 19.2676 10.2838C19.2676 10.2838 19.6338 10.212 20 9.91753Z" fill="#F08300"/>
</svg>
