<svg width="24" height="24" viewBox="0 0 24 24" fill="none" xmlns="http://www.w3.org/2000/svg">
<path fill-rule="evenodd" clip-rule="evenodd" d="M12 18.7C15.7003 18.7 18.7 15.7003 18.7 12C18.7 8.29969 15.7003 5.3 12 5.3C8.29969 5.3 5.3 8.29969 5.3 12C5.3 15.7003 8.29969 18.7 12 18.7ZM12 20C16.4183 20 20 16.4183 20 12C20 7.58172 16.4183 4 12 4C7.58172 4 4 7.58172 4 12C4 16.4183 7.58172 20 12 20Z" fill="#161618"/>
<path d="M14 12C14 13.1046 13.1046 14 12 14C10.8954 14 10 13.1046 10 12C10 10.8954 10.8954 10 12 10C13.1046 10 14 10.8954 14 12Z" fill="#161618"/>
<path fill-rule="evenodd" clip-rule="evenodd" d="M7 12C7 12.359 6.70899 12.65 6.35 12.65H2.65C2.29101 12.65 2 12.359 2 12C2 11.641 2.29101 11.35 2.65 11.35H6.35C6.70899 11.35 7 11.641 7 12Z" fill="#161618"/>
<path fill-rule="evenodd" clip-rule="evenodd" d="M11.9984 7C11.6395 7 11.3484 6.70899 11.3484 6.35V2.65C11.3484 2.29101 11.6395 2 11.9984 2C12.3574 2 12.6484 2.29101 12.6484 2.65V6.35C12.6484 6.70899 12.3574 7 11.9984 7Z" fill="#161618"/>
<path fill-rule="evenodd" clip-rule="evenodd" d="M22 12C22 12.359 21.709 12.65 21.35 12.65H17.65C17.291 12.65 17 12.359 17 12C17 11.641 17.291 11.35 17.65 11.35H21.35C21.709 11.35 22 11.641 22 12Z" fill="#161618"/>
<path fill-rule="evenodd" clip-rule="evenodd" d="M11.9984 22C11.6395 22 11.3484 21.709 11.3484 21.35V17.65C11.3484 17.291 11.6395 17 11.9984 17C12.3574 17 12.6484 17.291 12.6484 17.65V21.35C12.6484 21.709 12.3574 22 11.9984 22Z" fill="#161618"/>
</svg>
