<svg width="24" height="24" viewBox="0 0 24 24" fill="none" xmlns="http://www.w3.org/2000/svg">
<g clip-path="url(#clip0_2802_68404)">
<path d="M12 9.02924L12.4635 9.96844L13.5 10.1191L12.75 10.8501L12.9271 11.8824L12 11.395L11.0729 11.8824L11.25 10.8501L10.5 10.1191L11.5365 9.96844L12 9.02924Z" fill="#161618"/>
<path fill-rule="evenodd" clip-rule="evenodd" d="M13.6676 4.65676L12.1316 3.34778C12.0568 3.28407 11.9469 3.28407 11.8721 3.34778L10.3361 4.65676C9.96775 4.97069 9.50973 5.1604 9.02727 5.1989L7.01555 5.35944C6.91765 5.36725 6.83991 5.445 6.8321 5.5429L6.67156 7.55461C6.63306 8.03707 6.44334 8.49509 6.12941 8.86347L4.82043 10.3995C4.75673 10.4742 4.75673 10.5842 4.82043 10.6589L6.12941 12.1949C6.44334 12.5633 6.63306 13.0213 6.67156 13.5038L6.8321 15.5155C6.83991 15.6134 6.91765 15.6912 7.01555 15.699L9.02727 15.8595C9.50973 15.898 9.96775 16.0877 10.3361 16.4017L11.8721 17.7106C11.9469 17.7743 12.0568 17.7743 12.1316 17.7106L13.6676 16.4017C14.036 16.0877 14.494 15.898 14.9765 15.8595L16.9882 15.699C17.0861 15.6912 17.1638 15.6134 17.1716 15.5155L17.3322 13.5038C17.3707 13.0213 17.5604 12.5633 17.8743 12.1949L19.1833 10.6589C19.247 10.5842 19.247 10.4742 19.1833 10.3995L17.8743 8.86347C17.5604 8.49509 17.3707 8.03707 17.3322 7.55461L17.1716 5.5429C17.1638 5.445 17.0861 5.36725 16.9882 5.35944L14.9765 5.1989C14.494 5.1604 14.036 4.97068 13.6676 4.65676ZM12.9748 2.35833C12.4142 1.88056 11.5896 1.88056 11.0289 2.35833L9.49292 3.66731C9.33276 3.8038 9.13362 3.88628 8.92385 3.90302L6.91214 4.06356C6.17788 4.12215 5.59481 4.70522 5.53622 5.43949L5.37568 7.4512C5.35894 7.66096 5.27645 7.8601 5.13996 8.02027L3.83098 9.55628C3.35321 10.1169 3.35321 10.9415 3.83098 11.5021L5.13996 13.0381C5.27645 13.1983 5.35894 13.3974 5.37568 13.6072L5.53622 15.6189C5.59481 16.3532 6.17788 16.9363 6.91214 16.9949L8.92385 17.1554C9.13362 17.1721 9.33276 17.2546 9.49292 17.3911L11.0289 18.7001C11.5896 19.1779 12.4142 19.1779 12.9748 18.7001L14.5108 17.3911C14.671 17.2546 14.8701 17.1721 15.0799 17.1554L17.0916 16.9949C17.8258 16.9363 18.4089 16.3532 18.4675 15.6189L18.628 13.6072C18.6448 13.3974 18.7273 13.1983 18.8638 13.0381L20.1727 11.5021C20.6505 10.9415 20.6505 10.1169 20.1727 9.55628L18.8638 8.02027C18.7273 7.8601 18.6448 7.66096 18.628 7.4512L18.4675 5.43949C18.4089 4.70522 17.8258 4.12215 17.0916 4.06356L15.0799 3.90302C14.8701 3.88628 14.671 3.8038 14.5108 3.66731L12.9748 2.35833Z" fill="#161618"/>
<path d="M7 16.7V20.9375C7 21.5909 7.61628 22.0687 8.24904 21.906L11.751 21.0055C11.9143 20.9635 12.0857 20.9635 12.249 21.0055L15.751 21.906C16.3837 22.0687 17 21.5909 17 20.9375V16.7L15.7 16.8037V20.5506L12.5728 19.7465C12.197 19.6499 11.803 19.6499 11.4272 19.7465L8.3 20.5506V16.8037L7 16.7Z" fill="#161618"/>
<path fill-rule="evenodd" clip-rule="evenodd" d="M12.0016 8.37921C12.249 8.37921 12.475 8.51968 12.5845 8.74154L12.8967 9.37431L13.5951 9.47578C13.8399 9.51136 14.0433 9.68286 14.1198 9.91816C14.1962 10.1535 14.1325 10.4118 13.9553 10.5845L13.45 11.077L13.5693 11.7725C13.6111 12.0164 13.5109 12.2628 13.3107 12.4082C13.1105 12.5537 12.8452 12.5728 12.6262 12.4577L12.0016 12.1294L11.377 12.4577C11.158 12.5729 10.8926 12.5537 10.6925 12.4082C10.4923 12.2628 10.3921 12.0164 10.4339 11.7725L10.5532 11.077L10.0479 10.5845C9.8707 10.4118 9.80694 10.1535 9.88339 9.91816C9.95985 9.68286 10.1633 9.51136 10.4081 9.47578L11.1064 9.37431L11.4187 8.74154C11.5282 8.51968 11.7542 8.37921 12.0016 8.37921Z" fill="#161618"/>
</g>
<defs>
<clipPath id="clip0_2802_68404">
<rect width="24" height="24" fill="white"/>
</clipPath>
</defs>
</svg>
