<svg width="24" height="24" viewBox="0 0 24 24" fill="none" xmlns="http://www.w3.org/2000/svg">
<path fill-rule="evenodd" clip-rule="evenodd" d="M16.998 14H6.99805V21.3612C6.99805 22.1096 7.78989 22.5928 8.45539 22.2505L11.5407 20.6638C11.8277 20.5162 12.1684 20.5162 12.4554 20.6638L15.5407 22.2505C16.2062 22.5928 16.998 22.1096 16.998 21.3612V14Z" fill="#00BABB"/>
<path d="M11.027 1.82903C11.5876 1.35126 12.4122 1.35126 12.9728 1.82903L14.5088 3.13801C14.669 3.2745 14.8682 3.35699 15.0779 3.37373L17.0896 3.53426C17.8239 3.59286 18.407 4.17592 18.4656 4.91019L18.6261 6.9219C18.6428 7.13167 18.7253 7.33081 18.8618 7.49097L20.1708 9.02698C20.6486 9.58762 20.6486 10.4122 20.1708 10.9728L18.8618 12.5088C18.7253 12.669 18.6428 12.8682 18.6261 13.0779L18.4656 15.0896C18.407 15.8239 17.8239 16.407 17.0896 16.4656L15.0779 16.6261C14.8682 16.6428 14.669 16.7253 14.5088 16.8618L12.9728 18.1708C12.4122 18.6486 11.5876 18.6486 11.027 18.1708L9.49097 16.8618C9.33081 16.7253 9.13167 16.6428 8.9219 16.6261L6.91019 16.4656C6.17592 16.407 5.59286 15.8239 5.53426 15.0896L5.37373 13.0779C5.35699 12.8682 5.2745 12.669 5.13801 12.5088L3.82903 10.9728C3.35126 10.4122 3.35126 9.58762 3.82903 9.02698L5.13801 7.49097C5.2745 7.33081 5.35699 7.13167 5.37373 6.9219L5.53426 4.91019C5.59286 4.17592 6.17592 3.59286 6.91019 3.53426L8.9219 3.37373C9.13167 3.35699 9.33081 3.2745 9.49097 3.13801L11.027 1.82903Z" fill="#A6EBE9"/>
<path d="M11.0714 8.87856C11.3271 8.36055 11.4549 8.10154 11.6138 7.99704C11.8473 7.84343 12.1497 7.84343 12.3832 7.99704C12.5421 8.10154 12.6699 8.36055 12.9255 8.87856C13.4972 8.96163 13.783 9.00316 13.9315 9.12193C14.1497 9.29653 14.2432 9.58421 14.1693 9.85373C14.119 10.0371 13.9121 10.2387 13.4985 10.6419C13.5961 11.2113 13.645 11.4959 13.5779 11.6738C13.4793 11.9354 13.2346 12.1132 12.9554 12.1261C12.7655 12.1349 12.5098 12.0005 11.9985 11.7317C11.4872 12.0005 11.2315 12.1349 11.0416 12.1261C10.7624 12.1132 10.5177 11.9354 10.4191 11.6738C10.352 11.4959 10.4008 11.2113 10.4985 10.6419C10.0848 10.2387 9.87801 10.0371 9.82771 9.85373C9.75377 9.58421 9.84724 9.29653 10.0655 9.12193C10.214 9.00316 10.4998 8.96163 11.0714 8.87856Z" fill="white"/>
</svg>
