<svg width="24" height="24" viewBox="0 0 24 24" fill="none" xmlns="http://www.w3.org/2000/svg">
<path d="M4.65 12C5.00899 12 5.29669 12.2919 5.33105 12.6492C5.65757 16.0449 8.51872 18.7 12 18.7C15.7003 18.7 18.7 15.7003 18.7 12C18.7 8.29969 15.7003 5.3 12 5.3C9.4621 5.3 7.25377 6.71108 6.11678 8.79147C5.99059 9.02236 5.75398 9.17647 5.49086 9.17647C5.01792 9.17647 4.69334 8.70321 4.9133 8.28453C6.25154 5.73729 8.92289 4 12 4C16.4183 4 20 7.58172 20 12C20 16.4183 16.4183 20 12 20C7.80051 20 4.35677 16.7642 4.02601 12.6499C3.99725 12.292 4.29102 12 4.65 12Z" fill="#161618"/>
<path d="M4.65 5C4.29101 5 4 5.29101 4 5.65V9.35C4 9.70899 4.29101 10 4.65 10H8.35C8.70898 10 9 9.709 9 9.35001C9 8.99103 8.70899 8.70001 8.35 8.70001H5.3V5.65C5.3 5.29101 5.00898 5 4.65 5Z" fill="#161618"/>
</svg>
