<svg width="24" height="24" viewBox="0 0 24 24" fill="none" xmlns="http://www.w3.org/2000/svg">
<path d="M3 8H21V18C21 19.6569 19.6569 21 18 21H6C4.34315 21 3 19.6569 3 18V8Z" fill="#E1E7F5"/>
<path d="M3 7C3 5.34315 4.34315 4 6 4V5C6 6.10457 6.89543 7 8 7C9.10457 7 10 6.10457 10 5V4H14V5C14 6.10457 14.8954 7 16 7C17.1046 7 18 6.10457 18 5V4C19.6569 4 21 5.34315 21 7V9H3V7Z" fill="#F76A43"/>
<path d="M7 4C7 3.44772 7.44772 3 8 3C8.55228 3 9 3.44772 9 4V5C9 5.55228 8.55228 6 8 6C7.44772 6 7 5.55228 7 5V4Z" fill="#F76A43"/>
<path d="M15 4C15 3.44772 15.4477 3 16 3C16.5523 3 17 3.44772 17 4V5C17 5.55228 16.5523 6 16 6C15.4477 6 15 5.55228 15 5V4Z" fill="#F76A43"/>
<path d="M6 14C6 13.4477 6.44772 13 7 13C7.55228 13 8 13.4477 8 14C8 14.5523 7.55228 15 7 15C6.44772 15 6 14.5523 6 14Z" fill="#BEC5DA"/>
<path d="M10 14C10 13.4477 10.4477 13 11 13C11.5523 13 12 13.4477 12 14C12 14.5523 11.5523 15 11 15C10.4477 15 10 14.5523 10 14Z" fill="#BEC5DA"/>
<path fill-rule="evenodd" clip-rule="evenodd" d="M17 19.5C18.3807 19.5 19.5 18.3807 19.5 17C19.5 15.6193 18.3807 14.5 17 14.5C15.6193 14.5 14.5 15.6193 14.5 17C14.5 18.3807 15.6193 19.5 17 19.5ZM17 21C19.2091 21 21 19.2091 21 17C21 14.7909 19.2091 13 17 13C14.7909 13 13 14.7909 13 17C13 19.2091 14.7909 21 17 21Z" fill="#676F87"/>
<path fill-rule="evenodd" clip-rule="evenodd" d="M18.9697 18.9697C19.2626 18.6768 19.7374 18.6768 20.0303 18.9697L21.5303 20.4697C21.8232 20.7626 21.8232 21.2374 21.5303 21.5303C21.2374 21.8232 20.7626 21.8232 20.4697 21.5303L18.9697 20.0303C18.6768 19.7374 18.6768 19.2626 18.9697 18.9697Z" fill="#676F87"/>
</svg>
