<svg width="16" height="16" viewBox="0 0 16 16" fill="none" xmlns="http://www.w3.org/2000/svg">
<path opacity="0.5" d="M2 5.33301H14V11.9997C14 13.1042 13.1046 13.9997 12 13.9997H4C2.89543 13.9997 2 13.1042 2 11.9997V5.33301Z" fill="white"/>
<path d="M2 4.66699C2 3.56242 2.89543 2.66699 4 2.66699V3.33366C4 4.07004 4.59695 4.66699 5.33333 4.66699C6.06971 4.66699 6.66667 4.07004 6.66667 3.33366V2.66699H9.33333V3.33366C9.33333 4.07004 9.93029 4.66699 10.6667 4.66699C11.403 4.66699 12 4.07004 12 3.33366V2.66699C13.1046 2.66699 14 3.56242 14 4.66699V6.00033H2V4.66699Z" fill="white"/>
<path d="M4.66675 2.66667C4.66675 2.29848 4.96522 2 5.33341 2C5.7016 2 6.00008 2.29848 6.00008 2.66667V3.33333C6.00008 3.70152 5.7016 4 5.33341 4C4.96522 4 4.66675 3.70152 4.66675 3.33333V2.66667Z" fill="white"/>
<path d="M10.0001 2.66667C10.0001 2.29848 10.2986 2 10.6667 2C11.0349 2 11.3334 2.29848 11.3334 2.66667V3.33333C11.3334 3.70152 11.0349 4 10.6667 4C10.2986 4 10.0001 3.70152 10.0001 3.33333V2.66667Z" fill="white"/>
<path opacity="0.6" d="M4 9.33366C4 8.96547 4.29848 8.66699 4.66667 8.66699C5.03486 8.66699 5.33333 8.96547 5.33333 9.33366C5.33333 9.70185 5.03486 10.0003 4.66667 10.0003C4.29848 10.0003 4 9.70185 4 9.33366Z" fill="white"/>
<path opacity="0.6" d="M6.66675 9.33366C6.66675 8.96547 6.96522 8.66699 7.33341 8.66699C7.7016 8.66699 8.00008 8.96547 8.00008 9.33366C8.00008 9.70185 7.7016 10.0003 7.33341 10.0003C6.96522 10.0003 6.66675 9.70185 6.66675 9.33366Z" fill="white"/>
<path d="M9.33325 9.33366C9.33325 8.96547 9.63173 8.66699 9.99992 8.66699H11.3333C11.7014 8.66699 11.9999 8.96547 11.9999 9.33366C11.9999 9.70185 11.7014 10.0003 11.3333 10.0003H9.99992C9.63173 10.0003 9.33325 9.70185 9.33325 9.33366Z" fill="white"/>
</svg>
