<svg width="24" height="24" viewBox="0 0 24 24" fill="none" xmlns="http://www.w3.org/2000/svg">
<path d="M12 3L17.9277 5.54043C18.3317 5.71359 18.3317 6.28641 17.9277 6.45957L12 9V3Z" fill="#A6EBE9"/>
<path d="M11.5 2.5C11.5 2.22386 11.7239 2 12 2C12.2761 2 12.5 2.22386 12.5 2.5V10.5C12.5 10.7761 12.2761 11 12 11C11.7239 11 11.5 10.7761 11.5 10.5V2.5Z" fill="#00BABB"/>
<path fill-rule="evenodd" clip-rule="evenodd" d="M11.1056 9.44747L4 13.0003V19.0003C4 20.6571 5.34315 22.0003 7 22.0003H17C18.6569 22.0003 20 20.6571 20 19.0003V13.0003L12.8944 9.44747C12.3314 9.16595 11.6686 9.16595 11.1056 9.44747ZM9 16.0002C8.44772 16.0002 8 16.448 8 17.0002C8 17.5525 8.44772 18.0002 9 18.0002H15C15.5523 18.0002 16 17.5525 16 17.0002C16 16.448 15.5523 16.0002 15 16.0002H9Z" fill="#00BABB"/>
</svg>
