<svg width="16" height="16" viewBox="0 0 16 16" fill="none" xmlns="http://www.w3.org/2000/svg">
<path opacity="0.5" d="M8 2L11.9518 3.69362C12.2211 3.80906 12.2211 4.19094 11.9518 4.30638L8 6V2Z" fill="white"/>
<path d="M7.66663 1.66634C7.66663 1.48225 7.81586 1.33301 7.99996 1.33301C8.18405 1.33301 8.33329 1.48225 8.33329 1.66634V6.99967C8.33329 7.18377 8.18405 7.33301 7.99996 7.33301C7.81586 7.33301 7.66663 7.18377 7.66663 6.99967V1.66634Z" fill="white"/>
<path fill-rule="evenodd" clip-rule="evenodd" d="M7.40367 6.29799L2.66663 8.66651V12.6665C2.66663 13.7711 3.56206 14.6665 4.66663 14.6665H11.3333C12.4379 14.6665 13.3333 13.7711 13.3333 12.6665V8.66651L8.59624 6.29799C8.22087 6.11031 7.77904 6.11031 7.40367 6.29799ZM5.99996 10.6665C5.63177 10.6665 5.33329 10.965 5.33329 11.3332C5.33329 11.7014 5.63177 11.9998 5.99996 11.9998H9.99996C10.3681 11.9998 10.6666 11.7014 10.6666 11.3332C10.6666 10.965 10.3681 10.6665 9.99996 10.6665H5.99996Z" fill="white"/>
</svg>
