<svg width="24" height="24" viewBox="0 0 24 24" fill="none" xmlns="http://www.w3.org/2000/svg">
<path fill-rule="evenodd" clip-rule="evenodd" d="M10.5 16.7C13.9242 16.7 16.7 13.9242 16.7 10.5C16.7 7.07583 13.9242 4.3 10.5 4.3C7.07583 4.3 4.3 7.07583 4.3 10.5C4.3 13.9242 7.07583 16.7 10.5 16.7ZM10.5 18C14.6421 18 18 14.6421 18 10.5C18 6.35786 14.6421 3 10.5 3C6.35786 3 3 6.35786 3 10.5C3 14.6421 6.35786 18 10.5 18Z" fill="#161618"/>
<path fill-rule="evenodd" clip-rule="evenodd" d="M20.5 20.5C20.2462 20.7538 19.8346 20.7538 19.5808 20.5L15 15.9192C14.7462 15.6654 14.7462 15.2538 15 15C15.2538 14.7462 15.6654 14.7462 15.9192 15L20.5 19.5808C20.7538 19.8346 20.7538 20.2462 20.5 20.5Z" fill="#161618"/>
</svg>
