<svg width="12" height="13" viewBox="0 0 12 13" fill="none" xmlns="http://www.w3.org/2000/svg">
<g id="Icon/search">
<g id="Vector">
<path fill-rule="evenodd" clip-rule="evenodd" d="M5.25 8.85C6.96208 8.85 8.35 7.46208 8.35 5.75C8.35 4.03792 6.96208 2.65 5.25 2.65C3.53792 2.65 2.15 4.03792 2.15 5.75C2.15 7.46208 3.53792 8.85 5.25 8.85ZM5.25 9.5C7.32107 9.5 9 7.82107 9 5.75C9 3.67893 7.32107 2 5.25 2C3.17893 2 1.5 3.67893 1.5 5.75C1.5 7.82107 3.17893 9.5 5.25 9.5Z" fill="white"/>
<path fill-rule="evenodd" clip-rule="evenodd" d="M10.25 10.75C10.1231 10.8769 9.9173 10.8769 9.79038 10.75L7.5 8.45962C7.37308 8.3327 7.37308 8.12692 7.5 8C7.62692 7.87308 7.8327 7.87308 7.95962 8L10.25 10.2904C10.3769 10.4173 10.3769 10.6231 10.25 10.75Z" fill="white"/>
</g>
</g>
</svg>
