<svg width="24" height="24" viewBox="0 0 24 24" fill="none" xmlns="http://www.w3.org/2000/svg">
<path fill-rule="evenodd" clip-rule="evenodd" d="M17 7.7C17.9389 7.7 18.7 6.93888 18.7 6C18.7 5.06112 17.9389 4.3 17 4.3C16.0611 4.3 15.3 5.06112 15.3 6C15.3 6.93888 16.0611 7.7 17 7.7ZM17 9C18.6569 9 20 7.65685 20 6C20 4.34315 18.6569 3 17 3C15.3431 3 14 4.34315 14 6C14 7.65685 15.3431 9 17 9Z" fill="#161618"/>
<path fill-rule="evenodd" clip-rule="evenodd" d="M6 13.7C6.93888 13.7 7.7 12.9389 7.7 12C7.7 11.0611 6.93888 10.3 6 10.3C5.06112 10.3 4.3 11.0611 4.3 12C4.3 12.9389 5.06112 13.7 6 13.7ZM6 15C7.65685 15 9 13.6569 9 12C9 10.3431 7.65685 9 6 9C4.34315 9 3 10.3431 3 12C3 13.6569 4.34315 15 6 15Z" fill="#161618"/>
<path fill-rule="evenodd" clip-rule="evenodd" d="M17 19.7C17.9389 19.7 18.7 18.9389 18.7 18C18.7 17.0611 17.9389 16.3 17 16.3C16.0611 16.3 15.3 17.0611 15.3 18C15.3 18.9389 16.0611 19.7 17 19.7ZM17 21C18.6569 21 20 19.6569 20 18C20 16.3431 18.6569 15 17 15C15.3431 15 14 16.3431 14 18C14 19.6569 15.3431 21 17 21Z" fill="#161618"/>
<path fill-rule="evenodd" clip-rule="evenodd" d="M14.1187 6.83218L8.26172 10.0269C8.54644 10.3528 8.76183 10.7407 8.88489 11.1678L14.7419 7.97309C14.4572 7.64725 14.2418 7.25928 14.1187 6.83218ZM14.1187 17.1678L8.26172 13.9731C8.54644 13.6472 8.76183 13.2593 8.88489 12.8322L14.7419 16.0269C14.4572 16.3528 14.2418 16.7407 14.1187 17.1678Z" fill="#161618"/>
</svg>
