<svg width="24" height="24" viewBox="0 0 24 24" fill="none" xmlns="http://www.w3.org/2000/svg">
<g id="Icon/share">
<g id="Subtract">
<path d="M15.0608 7.2898C14.5477 6.85465 14.1829 6.25008 14.0526 5.5625L6.93945 9.71185C7.45254 10.147 7.81741 10.7516 7.94764 11.4391L15.0608 7.2898Z" fill="#999999"/>
<path d="M7.94764 12.5625C7.81741 13.2501 7.45254 13.8547 6.93945 14.2898L14.0526 18.4391C14.1829 17.7516 14.5477 17.147 15.0608 16.7118L7.94764 12.5625Z" fill="#999999"/>
</g>
<path id="Union (Stroke)" fill-rule="evenodd" clip-rule="evenodd" d="M13 5C13 2.79086 14.7909 1 17 1C19.2091 1 21 2.79086 21 5C21 7.20914 19.2091 9 17 9C14.7909 9 13 7.20914 13 5ZM17 3C15.8954 3 15 3.89543 15 5C15 6.10457 15.8954 7 17 7C18.1046 7 19 6.10457 19 5C19 3.89543 18.1046 3 17 3ZM1 12C1 9.79086 2.79086 8 5 8C7.20914 8 9 9.79086 9 12C9 14.2091 7.20914 16 5 16C2.79086 16 1 14.2091 1 12ZM5 10C3.89543 10 3 10.8954 3 12C3 13.1046 3.89543 14 5 14C6.10457 14 7 13.1046 7 12C7 10.8954 6.10457 10 5 10ZM17 17C15.8954 17 15 17.8954 15 19C15 20.1046 15.8954 21 17 21C18.1046 21 19 20.1046 19 19C19 17.8954 18.1046 17 17 17ZM13 19C13 16.7909 14.7909 15 17 15C19.2091 15 21 16.7909 21 19C21 21.2091 19.2091 23 17 23C14.7909 23 13 21.2091 13 19Z" fill="#999999"/>
</g>
</svg>
