<svg width="25" height="24" viewBox="0 0 25 24" fill="none" xmlns="http://www.w3.org/2000/svg">
<path d="M12.4993 11C14.7085 11 16.4993 9.20914 16.4993 7C16.4993 4.79086 14.7085 3 12.4993 3C10.2902 3 8.49935 4.79086 8.49935 7C8.49935 9.20914 10.2902 11 12.4993 11Z" fill="#CBD2E4"/>
<path d="M10.4069 13C6.9979 13 4.08859 15.4646 3.52816 18.8271C3.51157 18.9267 3.57096 19.0239 3.66671 19.0558C9.36269 20.9544 15.636 20.9544 21.332 19.0558C21.4277 19.0239 21.4871 18.9267 21.4705 18.8271C20.9101 15.4646 18.0008 13 14.5918 13H10.4069Z" fill="#CBD2E4"/>
<path d="M22.5 17C22.5 19.7614 20.2614 22 17.5 22C14.7386 22 12.5 19.7614 12.5 17C12.5 14.2386 14.7386 12 17.5 12C20.2614 12 22.5 14.2386 22.5 17Z" fill="#00BABB"/>
<path fill-rule="evenodd" clip-rule="evenodd" d="M14.498 17.0001C14.498 16.6411 14.7891 16.3501 15.148 16.3501H19.848C20.207 16.3501 20.498 16.6411 20.498 17.0001C20.498 17.3591 20.207 17.6501 19.848 17.6501H15.148C14.7891 17.6501 14.498 17.3591 14.498 17.0001Z" fill="white"/>
<path fill-rule="evenodd" clip-rule="evenodd" d="M17.4996 14C17.8586 14 18.1496 14.291 18.1496 14.65L18.1496 19.35C18.1496 19.709 17.8586 20 17.4996 20C17.1406 20 16.8496 19.709 16.8496 19.35L16.8496 14.65C16.8496 14.291 17.1406 14 17.4996 14Z" fill="white"/>
</svg>
