<svg width="24" height="24" viewBox="0 0 24 24" fill="none" xmlns="http://www.w3.org/2000/svg">
<path fill-rule="evenodd" clip-rule="evenodd" d="M18 6.5C18 8.433 16.433 10 14.5 10C14.0933 10 13.7029 9.93064 13.3398 9.80311C13.0008 8.57137 12.1513 7.55112 11.0332 6.98409C11.0113 6.82586 11 6.66425 11 6.5C11 4.567 12.567 3 14.5 3C16.433 3 18 4.567 18 6.5ZM16.1951 18.3976C18.1258 18.2325 20.037 17.785 21.862 17.055C21.9415 17.0232 21.9873 16.9391 21.9705 16.8551C21.4059 14.0321 18.9272 12 16.0483 12H13.3892C13.1825 12.9107 12.6997 13.7165 12.0333 14.3246C13.9578 14.9545 15.5124 16.4529 16.1951 18.3976Z" fill="#CBD2E4"/>
<path d="M8.99996 14C10.6568 14 12 12.6569 12 11C12 9.34315 10.6568 8 8.99996 8C7.34311 8 5.99996 9.34315 5.99996 11C5.99996 12.6569 7.34311 14 8.99996 14Z" fill="#6E69FF"/>
<path d="M8.0075 15.5C5.56719 15.5 3.47146 17.2429 3.02003 19.6411C3.008 19.705 3.04103 19.769 3.10016 19.7961C6.84573 21.5128 11.1533 21.5128 14.8989 19.7961C14.958 19.769 14.9911 19.705 14.979 19.6411C14.5276 17.2429 12.4319 15.5 9.99156 15.5H8.0075Z" fill="#6E69FF"/>
</svg>
