<svg width="64" height="64" viewBox="0 0 64 64" fill="none" xmlns="http://www.w3.org/2000/svg">
<g id="Illust/student">
<circle id="Ellipse 5850" cx="32" cy="32" r="32" fill="#F2F3F7"/>
<mask id="mask0_2802_68582" style="mask-type:alpha" maskUnits="userSpaceOnUse" x="0" y="0" width="64" height="64">
<circle id="Ellipse 5848" cx="32" cy="32" r="32" fill="#F4FDFC"/>
</mask>
<g mask="url(#mask0_2802_68582)">
<g id="Group 1000001703">
<g id="Group 1000001702">
<path id="Rectangle 156016" d="M7 64C7 51.8497 16.8497 42 29 42H35C47.1503 42 57 51.8497 57 64H7Z" fill="#ABAEB7"/>
<g id="Mask group">
<mask id="mask1_2802_68582" style="mask-type:alpha" maskUnits="userSpaceOnUse" x="7" y="42" width="50" height="22">
<path id="Rectangle 156025" d="M7 64C7 51.8497 16.8497 42 29 42H35C47.1503 42 57 51.8497 57 64H7Z" fill="#8C8E96"/>
</mask>
<g mask="url(#mask1_2802_68582)">
<path id="Union" fill-rule="evenodd" clip-rule="evenodd" d="M35 48H29L30 54L29 64H35L34 54L35 48Z" fill="#72747C"/>
<path id="Rectangle 156025_2" d="M7 50C7 45.5817 10.5817 42 15 42V64H7V50Z" fill="#E1E3EB"/>
<path id="Rectangle 156026" d="M49 42C53.4183 42 57 45.5817 57 50V64H49V42Z" fill="#E1E3EB"/>
</g>
</g>
<g id="Vector">
<path d="M24 46C24 42.6863 26.6863 40 30 40H32V48C32 50.2091 30.2091 52 28 52H26C24.8954 52 24 51.1046 24 50V46Z" fill="#E1E3EB"/>
<path d="M40 46C40 42.6863 37.3137 40 34 40H32V48C32 50.2091 33.7909 52 36 52H38C39.1046 52 40 51.1046 40 50V46Z" fill="#E1E3EB"/>
</g>
<path id="Rectangle 156012" d="M28 36C28 33.7909 29.7909 32 32 32C34.2091 32 36 33.7909 36 36V44C36 46.2091 34.2091 48 32 48C29.7909 48 28 46.2091 28 44V36Z" fill="#C0C3CC"/>
<path id="Union_2" fill-rule="evenodd" clip-rule="evenodd" d="M21 23C21 16.9249 25.9249 12 32 12C38.0751 12 43 16.9249 43 23V24C45.2091 24 47 25.7909 47 28C47 30.2091 45.2091 32 43 32H41.8006C39.9799 35.5617 36.2747 38 32 38C27.7253 38 24.0201 35.5617 22.1994 32H21C18.7909 32 17 30.2091 17 28C17 25.7909 18.7909 24 21 24V23Z" fill="#E1E3EB"/>
<path id="Union_3" d="M16 17C16 12.5817 19.5817 9 24 9H33C34.7094 9 36.1684 10.0723 36.741 11.581C37.1401 11.2199 37.6694 11 38.25 11C41.9779 11 45 14.0221 45 17.75V24C45 24.5523 44.5523 25 44 25C40.596 25 37.6885 22.8739 36.533 19.8773C35.8605 21.1402 34.5307 22 33 22H32C31.2311 22 30.5129 21.7831 29.9032 21.407C28.5856 23.5619 26.2107 25 23.5 25C19.3579 25 16 21.6421 16 17.5V17Z" fill="#434447"/>
<g id="Group 1000001701">
<g id="Vector_2">
<path d="M35 27C35 26.4477 35.4477 26 36 26C36.5523 26 37 26.4477 37 27C37 27.5523 36.5523 28 36 28C35.4477 28 35 27.5523 35 27Z" fill="#434447"/>
<path d="M27 27C27 26.4477 27.4477 26 28 26C28.5523 26 29 26.4477 29 27C29 27.5523 28.5523 28 28 28C27.4477 28 27 27.5523 27 27Z" fill="#434447"/>
</g>
<path id="Union_4" d="M34.2948 31.0766C34.4573 30.2639 33.6813 29.5789 32.8951 29.841L31.4365 30.3272C30.8342 30.5279 30.5493 31.2156 30.8332 31.7835C31.608 33.3331 33.905 33.0254 34.2448 31.3267L34.2948 31.0766Z" fill="#8C8E96"/>
<path id="Vector 1488 (Stroke)" fill-rule="evenodd" clip-rule="evenodd" d="M32.2237 26.5529C32.4707 26.6764 32.5708 26.9767 32.4473 27.2237L31.4473 29.2237C31.3238 29.4707 31.0235 29.5708 30.7765 29.4473C30.5295 29.3238 30.4294 29.0235 30.5529 28.7765L31.5529 26.7765C31.6764 26.5295 31.9767 26.4294 32.2237 26.5529Z" fill="#C0C3CC"/>
<path id="Vector 1489 (Stroke)" fill-rule="evenodd" clip-rule="evenodd" d="M34.5 23C34.5 22.7239 34.7239 22.5 35 22.5H35.0858C36.1239 22.5 37.1195 22.9124 37.8536 23.6464C38.0488 23.8417 38.0488 24.1583 37.8536 24.3536C37.6583 24.5488 37.3417 24.5488 37.1464 24.3536C36.5999 23.807 35.8587 23.5 35.0858 23.5H35C34.7239 23.5 34.5 23.2761 34.5 23Z" fill="#434447"/>
</g>
</g>
</g>
</g>
</g>
</svg>
