<svg width="40" height="40" viewBox="0 0 40 40" fill="none" xmlns="http://www.w3.org/2000/svg">
<circle cx="20" cy="20" r="20" fill="#0B0B0C"/>
<path d="M20.0774 22.3775L17.3546 25.1003C17.0249 25.4185 16.5847 25.5963 16.1265 25.5963C15.6684 25.5963 15.2281 25.4185 14.8985 25.1003C14.7368 24.9393 14.6085 24.7479 14.5209 24.5371C14.4334 24.3264 14.3884 24.1004 14.3884 23.8722C14.3884 23.644 14.4334 23.4181 14.5209 23.2073C14.6085 22.9966 14.7368 22.8052 14.8985 22.6442L17.6213 19.9214C17.7534 19.7892 17.8276 19.61 17.8276 19.4231C17.8276 19.2362 17.7534 19.057 17.6213 18.9249C17.4891 18.7927 17.3099 18.7185 17.123 18.7185C16.9361 18.7185 16.7569 18.7927 16.6248 18.9249L13.902 21.6547C13.3534 22.2517 13.0568 23.0376 13.0739 23.8482C13.0911 24.6588 13.4208 25.4314 13.9941 26.0047C14.5674 26.578 15.34 26.9077 16.1506 26.9248C16.9611 26.942 17.747 26.6453 18.3441 26.0968L21.0739 23.374C21.206 23.2419 21.2803 23.0626 21.2803 22.8758C21.2803 22.6889 21.206 22.5096 21.0739 22.3775C20.9418 22.2454 20.7625 22.1711 20.5756 22.1711C20.3888 22.1711 20.2095 22.2454 20.0774 22.3775ZM26.0985 13.9003C25.5081 13.3137 24.7097 12.9844 23.8774 12.9844C23.0451 12.9844 22.2467 13.3137 21.6564 13.9003L18.9265 16.6231C18.8611 16.6886 18.8092 16.7662 18.7738 16.8517C18.7384 16.9372 18.7201 17.0288 18.7201 17.1214C18.7201 17.2139 18.7384 17.3055 18.7738 17.391C18.8092 17.4765 18.8611 17.5542 18.9265 17.6196C18.992 17.685 19.0696 17.7369 19.1551 17.7724C19.2406 17.8078 19.3322 17.826 19.4248 17.826C19.5173 17.826 19.6089 17.8078 19.6944 17.7724C19.7799 17.7369 19.8576 17.685 19.923 17.6196L22.6458 14.8968C22.9755 14.5786 23.4157 14.4008 23.8739 14.4008C24.332 14.4008 24.7723 14.5786 25.102 14.8968C25.2636 15.0578 25.3919 15.2492 25.4795 15.46C25.567 15.6707 25.6121 15.8967 25.6121 16.1249C25.6121 16.3531 25.567 16.579 25.4795 16.7898C25.3919 17.0005 25.2636 17.1919 25.102 17.3529L22.3792 20.0758C22.3134 20.141 22.2612 20.2186 22.2256 20.3041C22.1899 20.3896 22.1716 20.4814 22.1716 20.574C22.1716 20.6666 22.1899 20.7584 22.2256 20.8439C22.2612 20.9294 22.3134 21.007 22.3792 21.0722C22.4444 21.138 22.522 21.1902 22.6075 21.2259C22.693 21.2615 22.7848 21.2798 22.8774 21.2798C22.97 21.2798 23.0618 21.2615 23.1473 21.2259C23.2328 21.1902 23.3104 21.138 23.3756 21.0722L26.0985 18.3424C26.6851 17.7521 27.0144 16.9536 27.0144 16.1214C27.0144 15.2891 26.6851 14.4906 26.0985 13.9003ZM17.7756 22.2231C17.8412 22.2882 17.919 22.3396 18.0045 22.3745C18.09 22.4095 18.1815 22.4272 18.2739 22.4266C18.3663 22.4272 18.4578 22.4095 18.5433 22.3745C18.6288 22.3396 18.7066 22.2882 18.7721 22.2231L22.2248 18.7705C22.3569 18.6383 22.4312 18.4591 22.4312 18.2722C22.4312 18.0854 22.3569 17.9061 22.2248 17.774C22.0926 17.6419 21.9134 17.5676 21.7265 17.5676C21.5396 17.5676 21.3604 17.6419 21.2283 17.774L17.7756 21.2266C17.7099 21.2919 17.6577 21.3695 17.622 21.455C17.5864 21.5405 17.5681 21.6322 17.5681 21.7249C17.5681 21.8175 17.5864 21.9092 17.622 21.9948C17.6577 22.0803 17.7099 22.1579 17.7756 22.2231Z" fill="white"/>
</svg>
