<svg width="24" height="24" viewBox="0 0 24 24" fill="none" xmlns="http://www.w3.org/2000/svg">
<path d="M3 9.4C3 7.15979 3 6.03968 3.43597 5.18404C3.81947 4.43139 4.43139 3.81947 5.18404 3.43597C6.03968 3 7.15979 3 9.4 3H14.6C16.8402 3 17.9603 3 18.816 3.43597C19.5686 3.81947 20.1805 4.43139 20.564 5.18404C21 6.03968 21 7.15979 21 9.4V14.6C21 16.8402 21 17.9603 20.564 18.816C20.1805 19.5686 19.5686 20.1805 18.816 20.564C17.9603 21 16.8402 21 14.6 21H9.4C7.15979 21 6.03968 21 5.18404 20.564C4.43139 20.1805 3.81947 19.5686 3.43597 18.816C3 17.9603 3 16.8402 3 14.6V9.4Z" fill="#C0C3CC"/>
<path d="M17.7 9.21429C17.55 8.71429 17.175 8.35714 16.65 8.21429C15.75 8 11.925 8 11.925 8C11.925 8 8.175 8 7.2 8.21429C6.675 8.35714 6.3 8.71429 6.15 9.21429C6 10.1429 6 12 6 12C6 12 6 13.8571 6.225 14.7857C6.375 15.2857 6.75 15.6429 7.275 15.7857C8.175 16 12 16 12 16C12 16 15.75 16 16.725 15.7857C17.25 15.6429 17.625 15.2857 17.775 14.7857C18 13.8571 18 12 18 12C18 12 18 10.1429 17.7 9.21429ZM10.8 13.7143V10.2857L13.95 12L10.8 13.7143Z" fill="white"/>
</svg>
